<?xml version="1.0" encoding="UTF-8"?>
<svg id="artwork" xmlns="http://www.w3.org/2000/svg" viewBox="0 0 100 100">
  <defs>
    <style>
      .cls-1 {
        fill: #ebebeb;
        stroke-width: 0px;
      }

      .cls-2 {
        stroke: #bbb;
      }

      .cls-2, .cls-3, .cls-4 {
        fill: none;
        stroke-miterlimit: 10;
        stroke-width: 4px;
      }

      .cls-3 {
        stroke: #f94239;
      }

      .cls-4 {
        stroke: #3396ff;
      }
    </style>
  </defs>
  <g>
    <rect class="cls-1" x="17" y="17.97" width="68" height="17.47"/>
    <path class="cls-2" d="M85,36.41H21.85c-2.68,0-4.85-2.17-4.85-4.85v-9.71c0-2.68,2.17-4.85,4.85-4.85h63.15"/>
  </g>
  <g>
    <rect class="cls-1" x="17" y="41.26" width="68" height="17.47"/>
    <path class="cls-3" d="M85,59.71H21.85c-2.68,0-4.85-2.17-4.85-4.85v-9.71c0-2.68,2.17-4.85,4.85-4.85h63.15"/>
  </g>
  <g>
    <rect class="cls-1" x="19" y="64.56" width="66" height="17.47"/>
    <path class="cls-4" d="M85,83H21.85c-2.68,0-4.85-2.17-4.85-4.85v-9.71c0-2.68,2.17-4.85,4.85-4.85h63.15"/>
  </g>
</svg>