<?xml version="1.0" encoding="UTF-8"?>
<svg id="artwork" xmlns="http://www.w3.org/2000/svg" viewBox="0 0 100 100">
  <defs>
    <style>
      .cls-1 {
        fill: #f5f5f5;
      }

      .cls-1, .cls-2 {
        stroke-width: 0px;
      }

      .cls-2 {
        fill: #dcdcdc;
      }
    </style>
  </defs>
  <path class="cls-2" d="M50,40c5.51,0,10,4.49,10,10s-4.49,10-10,10-10-4.49-10-10,4.49-10,10-10M50,10c-22.09,0-40,17.91-40,40s17.91,40,40,40,40-17.91,40-40S72.09,10,50,10h0Z"/>
  <path class="cls-1" d="M50,43c3.86,0,7,3.14,7,7s-3.14,7-7,7-7-3.14-7-7,3.14-7,7-7M50,13c-20.43,0-37,16.57-37,37s16.57,37,37,37,37-16.57,37-37S70.43,13,50,13h0Z"/>
  <path class="cls-2" d="M50,39c6.07,0,11,4.93,11,11s-4.93,11-11,11-11-4.93-11-11,4.93-11,11-11M50,35c-8.28,0-15,6.72-15,15s6.72,15,15,15,15-6.72,15-15-6.72-15-15-15h0Z"/>
</svg>