<?xml version="1.0" encoding="UTF-8"?>
<svg id="artwork" xmlns="http://www.w3.org/2000/svg" viewBox="0 0 100 100">
  <defs>
    <style>
      .cls-1 {
        fill: #ebebeb;
      }

      .cls-1, .cls-2, .cls-3 {
        stroke-width: 0px;
      }

      .cls-2 {
        fill: #565656;
      }

      .cls-3 {
        fill: #bbb;
      }
    </style>
  </defs>
  <rect class="cls-1" x="10" y="67" width="80" height="23" rx="5" ry="5"/>
  <rect class="cls-3" x="10" y="62" width="80" height="23" rx="5" ry="5"/>
  <g>
    <rect class="cls-2" x="12" y="12" width="76" height="48" rx="3" ry="3"/>
    <path class="cls-1" d="M85,14c.55,0,1,.45,1,1v42c0,.55-.45,1-1,1H15c-.55,0-1-.45-1-1V15c0-.55.45-1,1-1h70M85,10H15c-2.76,0-5,2.24-5,5v42c0,2.76,2.24,5,5,5h70c2.76,0,5-2.24,5-5V15c0-2.76-2.24-5-5-5h0Z"/>
  </g>
</svg>