<?xml version="1.0" encoding="UTF-8"?>
<svg id="artwork" xmlns="http://www.w3.org/2000/svg" viewBox="0 0 100 100">
  <defs>
    <style>
      .cls-1 {
        fill: #ebebeb;
      }

      .cls-1, .cls-2, .cls-3, .cls-4 {
        stroke-width: 0px;
      }

      .cls-2 {
        fill: #bbb;
      }

      .cls-3 {
        fill: #dcdcdc;
      }

      .cls-4 {
        fill: #f94239;
      }
    </style>
  </defs>
  <rect class="cls-4" x="10" y="25" width="80" height="50"/>
  <polygon class="cls-4" points="60 75 40 75 44 79 56 79 60 75"/>
  <rect class="cls-3" x="15" y="20" width="30" height="50"/>
  <rect class="cls-3" x="45" y="25" width="5" height="45"/>
  <rect class="cls-2" x="15" y="64" width="29" height="6"/>
  <circle class="cls-3" cx="45" cy="25" r="5"/>
  <rect class="cls-1" x="55" y="20" width="30" height="50" transform="translate(140 90) rotate(-180)"/>
  <rect class="cls-1" x="50" y="25" width="5" height="45" transform="translate(105 95) rotate(-180)"/>
  <rect class="cls-2" x="56" y="64" width="29" height="6" transform="translate(141 134) rotate(-180)"/>
  <circle class="cls-1" cx="55" cy="25" r="5"/>
  <path class="cls-2" d="M38,70c0-3.31,2.69-6,6-6s6,2.69,6,6"/>
  <path class="cls-2" d="M50,70c0-3.31,2.69-6,6-6s6,2.69,6,6"/>
</svg>