<?xml version="1.0" encoding="UTF-8"?>
<svg id="artwork" xmlns="http://www.w3.org/2000/svg" viewBox="0 0 100 100">
  <defs>
    <style>
      .cls-1 {
        fill: #474747;
      }

      .cls-1, .cls-2, .cls-3 {
        stroke-width: 0px;
      }

      .cls-2 {
        fill: #ebebeb;
      }

      .cls-3 {
        fill: #f94239;
      }
    </style>
  </defs>
  <path class="cls-2" d="M90.71,39.62l-51.08,51.08c3.53-3.53-.41-13.18-8.78-21.55-8.37-8.37-18.02-12.31-21.55-8.78L60.38,9.29c-3.53,3.53.41,13.18,8.78,21.55,8.37,8.37,18.02,12.31,21.55,8.78Z"/>
  <path class="cls-2" d="M90.71,39.62l-30.33-30.33c3.53-3.53,13.18.41,21.55,8.78,8.37,8.37,12.31,18.02,8.78,21.55Z"/>
  <path class="cls-1" d="M39.62,90.71l-30.33-30.33c3.53-3.53,13.18.41,21.55,8.78,8.37,8.37,12.31,18.02,8.78,21.55Z"/>
  <path class="cls-1" d="M9.29,60.38l30.33,30.33c-3.53,3.53-13.18-.41-21.55-8.78-8.37-8.37-12.31-18.02-8.78-21.55Z"/>
  <path class="cls-2" d="M60.38,9.29l30.33,30.33c-3.53,3.53-13.18-.41-21.55-8.78-8.37-8.37-12.31-18.02-8.78-21.55Z"/>
  <g>
    <path class="cls-3" d="M69.95,60.38l-7.18,7.18c1.33-1.33,1.6-3.54.96-6.23,2.68.64,4.89.38,6.23-.96Z"/>
    <path class="cls-3" d="M69.95,60.38l-30.33-30.33c3.53-3.53,13.18.41,21.55,8.78,8.37,8.37,12.31,18.02,8.78,21.55Z"/>
    <path class="cls-3" d="M39.62,30.05l30.33,30.33c-1.33,1.33-3.54,1.6-6.23.96-1.05-4.41-4.53-10.11-9.74-15.32s-10.91-8.69-15.32-9.74c-.64-2.68-.38-4.89.96-6.23Z"/>
    <path class="cls-3" d="M39.62,30.05c-1.33,1.33-1.6,3.54-.96,6.23-2.68-.64-4.89-.38-6.23.96l7.18-7.18Z"/>
  </g>
</svg>