<?xml version="1.0" encoding="UTF-8"?>
<svg id="artwork" xmlns="http://www.w3.org/2000/svg" viewBox="0 0 100 100">
  <defs>
    <style>
      .cls-1 {
        fill: #474747;
      }

      .cls-1, .cls-2, .cls-3 {
        stroke-width: 0px;
      }

      .cls-2 {
        fill: #bbb;
      }

      .cls-3 {
        fill: #5c5c5c;
      }
    </style>
  </defs>
  <rect class="cls-3" x="10" y="22" width="80" height="56"/>
  <rect class="cls-1" x="10" y="20" width="80" height="6"/>
  <path class="cls-1" d="M20,35h13v30h-13c-2.76,0-5-2.24-5-5v-20c0-2.76,2.24-5,5-5Z"/>
  <path class="cls-3" d="M33,38h0v24h0c-6.62,0-12-5.38-12-12h0c0-6.62,5.38-12,12-12Z"/>
  <path class="cls-1" d="M67,35h13c2.76,0,5,2.24,5,5v20c0,2.76-2.24,5-5,5h-13v-30h0Z"/>
  <rect class="cls-2" x="33" y="35" width="34" height="30"/>
  <path class="cls-3" d="M79,38h0v24h0c-6.62,0-12-5.38-12-12h0c0-6.62,5.38-12,12-12Z" transform="translate(146 100) rotate(-180)"/>
</svg>