<?xml version="1.0" encoding="UTF-8"?>
<svg id="artwork" xmlns="http://www.w3.org/2000/svg" viewBox="0 0 100 100">
  <defs>
    <style>
      .cls-1 {
        stroke: #dcdcdc;
        stroke-width: 4px;
      }

      .cls-1, .cls-2 {
        fill: none;
        stroke-miterlimit: 10;
      }

      .cls-3 {
        fill: #bbb;
      }

      .cls-3, .cls-4, .cls-5 {
        stroke-width: 0px;
      }

      .cls-4 {
        fill: #dcdcdc;
      }

      .cls-5 {
        fill: #f94239;
      }

      .cls-2 {
        stroke: #f94239;
        stroke-width: 7px;
      }
    </style>
  </defs>
  <path class="cls-4" d="M50,10c6.3,0,11,3.17,11,6s-4.7,6-11,6-11-3.17-11-6,4.7-6,11-6M50,6c-8.28,0-15,4.48-15,10s6.72,10,15,10,15-4.48,15-10-6.72-10-15-10h0Z"/>
  <rect class="cls-4" x="47.87" y="42.1" width="4.26" height="26.61"/>
  <path class="cls-1" d="M47.87,90l3.16-1.9c2.14-1.29,2.09-4.41-.09-5.62l-2.2-1.22c-2.58-1.44-2.06-5.3.81-5.99h0c3.22-.78,3.34-5.31.17-6.27l-2.49-.75"/>
  <rect class="cls-3" x="35.1" y="63.39" width="29.81" height="10.65"/>
  <rect class="cls-3" x="35.1" y="42.1" width="4.26" height="26.61"/>
  <rect class="cls-3" x="60.65" y="42.1" width="4.26" height="26.61"/>
  <rect class="cls-5" x="25" y="23" width="50" height="20" rx="10" ry="10"/>
  <g>
    <path class="cls-2" d="M70.68,29.58h0c0,10.66,4.23,20.88,11.77,28.42l4.51,4.51"/>
    <path class="cls-2" d="M29.32,29.58h0c0,10.66-4.23,20.88-11.77,28.42l-4.51,4.51"/>
  </g>
  <circle class="cls-4" cx="35" cy="33" r="4"/>
  <circle class="cls-4" cx="66" cy="33" r="4"/>
</svg>