<?xml version="1.0" encoding="UTF-8"?>
<svg id="artwork" xmlns="http://www.w3.org/2000/svg" xmlns:xlink="http://www.w3.org/1999/xlink" viewBox="0 0 100 100">
  <defs>
    <style>
      .cls-1 {
        fill: #ebebeb;
      }

      .cls-1, .cls-2, .cls-3, .cls-4, .cls-5 {
        stroke-width: 0px;
      }

      .cls-6 {
        clip-path: url(#clippath);
      }

      .cls-2 {
        fill: none;
      }

      .cls-3 {
        fill: #ade6ff;
      }

      .cls-4 {
        fill: #daf4ff;
      }

      .cls-5 {
        fill: #ccc;
      }
    </style>
    <clipPath id="clippath">
      <rect class="cls-2" x="19" y="10" width="62" height="80" rx="20" ry="20"/>
    </clipPath>
  </defs>
  <rect class="cls-3" x="22" y="20" width="56" height="66" rx="10" ry="10" transform="translate(100 106) rotate(180)"/>
  <g>
    <circle class="cls-4" cx="69.36" cy="61.11" r="10.64"/>
    <circle class="cls-4" cx="56.95" cy="64.59" r="8.12"/>
    <rect class="cls-4" x="41" y="64.66" width="39" height="8.86" rx="4.43" ry="4.43"/>
  </g>
  <g>
    <circle class="cls-4" cx="30.45" cy="41.3" r="8.45"/>
    <rect class="cls-4" x="21" y="41" width="25" height="9" rx="4.5" ry="4.5" transform="translate(67 91) rotate(-180)"/>
  </g>
  <g>
    <g class="cls-6">
      <circle class="cls-5" cx="50" cy="-28" r="54"/>
    </g>
    <path class="cls-1" d="M61,16c7.72,0,14,6.28,14,14v40c0,7.72-6.28,14-14,14h-22c-7.72,0-14-6.28-14-14V30c0-7.72,6.28-14,14-14h22M61,10h-22c-11.05,0-20,8.95-20,20v40c0,11.05,8.95,20,20,20h22c11.05,0,20-8.95,20-20V30c0-11.05-8.95-20-20-20h0Z"/>
    <path class="cls-1" d="M57,20h-14c-.55,0-1,.45-1,1s.45,1,1,1h14c.55,0,1-.45,1-1s-.45-1-1-1h0Z"/>
  </g>
</svg>