<?xml version="1.0" encoding="UTF-8"?>
<svg id="artwork" xmlns="http://www.w3.org/2000/svg" xmlns:xlink="http://www.w3.org/1999/xlink" viewBox="0 0 100 100">
  <defs>
    <style>
      .cls-1 {
        fill: #474747;
      }

      .cls-1, .cls-2, .cls-3, .cls-4, .cls-5, .cls-6, .cls-7 {
        stroke-width: 0px;
      }

      .cls-8 {
        clip-path: url(#clippath);
      }

      .cls-2 {
        fill: none;
      }

      .cls-3 {
        fill: #bbb;
      }

      .cls-4 {
        fill: #8b8b8b;
      }

      .cls-5 {
        fill: #5c5c5c;
      }

      .cls-6 {
        fill: #ffcd4e;
      }

      .cls-7 {
        fill: #707070;
      }
    </style>
    <clipPath id="clippath">
      <rect class="cls-2" x="19" y="10" width="62" height="80" rx="20" ry="20"/>
    </clipPath>
  </defs>
  <rect class="cls-7" x="22" y="20" width="56" height="54"/>
  <g>
    <circle class="cls-4" cx="69.36" cy="70.11" r="10.64"/>
    <circle class="cls-4" cx="56.95" cy="73.59" r="8.12"/>
  </g>
  <path class="cls-5" d="M34,73h32c6.62,0,12,5.38,12,12v3H22v-3c0-6.62,5.38-12,12-12Z" transform="translate(100 161) rotate(180)"/>
  <g>
    <g class="cls-8">
      <circle class="cls-4" cx="50" cy="-28" r="54"/>
    </g>
    <path class="cls-1" d="M61,16c7.72,0,14,6.28,14,14v40c0,7.72-6.28,14-14,14h-22c-7.72,0-14-6.28-14-14V30c0-7.72,6.28-14,14-14h22M61,10h-22c-11.05,0-20,8.95-20,20v40c0,11.05,8.95,20,20,20h22c11.05,0,20-8.95,20-20V30c0-11.05-8.95-20-20-20h0Z"/>
    <rect class="cls-3" x="42" y="20" width="16" height="2" rx="1" ry="1"/>
  </g>
  <path class="cls-6" d="M40.05,45.13c-1.44-4.09-.04-8.48,3.16-11.05-1.1,0-2.22.17-3.32.55-5.19,1.82-7.92,7.51-6.1,12.69s7.51,7.92,12.69,6.1c1.1-.39,2.08-.95,2.94-1.65-4.1-.01-7.93-2.56-9.37-6.65Z"/>
</svg>