<?xml version="1.0" encoding="UTF-8"?>
<svg id="artwork" xmlns="http://www.w3.org/2000/svg" xmlns:xlink="http://www.w3.org/1999/xlink" viewBox="0 0 100 100">
  <defs>
    <style>
      .cls-1 {
        clip-path: url(#clippath);
      }

      .cls-2 {
        fill: none;
      }

      .cls-2, .cls-3, .cls-4 {
        stroke-width: 0px;
      }

      .cls-3 {
        fill: #dcdcdc;
      }

      .cls-4 {
        fill: #f94239;
      }
    </style>
    <clipPath id="clippath">
      <path class="cls-2" d="M78.15,92.83h0c-6.8,3.93-15.51,1.26-18.95-5.81l-20.03-38.85,19.79-11.42,23.63,36.77c4.4,6.51,2.36,15.38-4.44,19.31Z"/>
    </clipPath>
  </defs>
  <path class="cls-3" d="M54.71,6.05c-4.97-3.13-18.21,2.89-23.3,5.83S14.49,23.27,14.72,29.14c.34,8.78,26.77,20.1,26.77,20.1l17.25-9.96s3.41-28.55-4.02-33.23ZM51.41,31.98l-2.27-1.12-10.16,5.86-.16,2.53c-3.64-1.82-13.76-7.26-13.93-11.5-.13-3.45,6.83-8.42,9.82-10.15s10.78-5.27,13.7-3.43c3.58,2.26,3.24,13.75,2.99,17.81Z"/>
  <g class="cls-1">
    <rect class="cls-4" x="43.03" y="27.65" width="36.35" height="69.58" transform="translate(-23.02 38.97) rotate(-30)"/>
    <rect class="cls-3" x="59.39" y="88.69" width="36.35" height="4.15" transform="translate(-34.99 50.94) rotate(-30)"/>
  </g>
</svg>