<?xml version="1.0" encoding="UTF-8"?>
<svg id="artwork" xmlns="http://www.w3.org/2000/svg" viewBox="0 0 100 100">
  <defs>
    <style>
      .cls-1 {
        fill: #333;
      }

      .cls-1, .cls-2, .cls-3, .cls-4, .cls-5, .cls-6, .cls-7, .cls-8, .cls-9 {
        stroke-width: 0px;
      }

      .cls-2 {
        fill: #474747;
      }

      .cls-3 {
        fill: #ebebeb;
      }

      .cls-4 {
        fill: #bbb;
      }

      .cls-5 {
        fill: #dcdcdc;
      }

      .cls-6 {
        fill: #8b8b8b;
      }

      .cls-7 {
        fill: #f94239;
      }

      .cls-8 {
        fill: #999;
      }

      .cls-9 {
        fill: #b21d00;
      }
    </style>
  </defs>
  <path class="cls-4" d="M23,50h46v40H18v-35c0-2.76,2.24-5,5-5Z"/>
  <path class="cls-8" d="M29,50h40v40H24v-35c0-2.76,2.24-5,5-5Z"/>
  <polygon class="cls-2" points="72 34 72 90 12 90 12 65.38 51.74 65.38 72 34"/>
  <g>
    <path class="cls-6" d="M24,66h32v6H18c0-3.31,2.69-6,6-6Z"/>
    <polygon class="cls-6" points="61 72 69 41 61 41 53 72 61 72"/>
  </g>
  <path class="cls-2" d="M61,8h17c3.86,0,7,3.14,7,7v14c0,3.86-3.14,7-7,7h-17V8h0Z" transform="translate(51 95) rotate(-90)"/>
  <polygon class="cls-2" points="73 34 62.15 72 47.56 72 59 34 73 34"/>
  <path class="cls-2" d="M18.5,59h18.5v13h-18.5c-3.59,0-6.5-2.91-6.5-6.5h0c0-3.59,2.91-6.5,6.5-6.5Z"/>
  <path class="cls-1" d="M33.29,59h35.56v13h-35.56c-3.52,0-6.38-2.86-6.38-6.38v-.24c0-3.52,2.86-6.38,6.38-6.38Z"/>
  <path class="cls-1" d="M68,15h17c3.86,0,7,3.14,7,7h0c0,3.86-3.14,7-7,7h-17v-14h0Z" transform="translate(58 102) rotate(-90)"/>
  <rect class="cls-7" x="55.64" y="16" width="15.36" height="15" rx="4" ry="4"/>
  <rect class="cls-9" x="60.5" y="20.5" width="15" height="6" rx="3" ry="3" transform="translate(44.5 91.5) rotate(-90)"/>
  <polygon class="cls-1" points="87 34 76.15 72 61.56 72 73 34 87 34"/>
  <polygon class="cls-1" points="87 34 87 90 27 90 27 65.38 66.74 65.38 87 34"/>
  <path class="cls-3" d="M41,50h46v40h-51v-35c0-2.76,2.24-5,5-5Z"/>
  <path class="cls-5" d="M47,50h40v40h-45v-35c0-2.76,2.24-5,5-5Z"/>
</svg>