<?xml version="1.0" encoding="UTF-8"?>
<svg id="artwork" xmlns="http://www.w3.org/2000/svg" viewBox="0 0 100 100">
  <defs>
    <style>
      .cls-1 {
        fill: #f5f5f5;
      }

      .cls-1, .cls-2 {
        stroke-width: 0px;
      }

      .cls-2 {
        fill: #dcdcdc;
      }

      .cls-3 {
        letter-spacing: -.03em;
      }

      .cls-4 {
        letter-spacing: -.06em;
      }

      .cls-5 {
        fill: none;
        stroke: #dcdcdc;
        stroke-miterlimit: 10;
        stroke-width: 2px;
      }

      .cls-6 {
        fill: #8b8b8b;
        font-family: JalnanGothicTTF, 'Jalnan Gothic TTF';
        font-size: 9px;
      }
    </style>
  </defs>
  <rect class="cls-1" x="17" y="10" width="66" height="80"/>
  <rect class="cls-2" x="25" y="61" width="50" height="6"/>
  <rect class="cls-2" x="26" y="30" width="24" height="26"/>
  <rect class="cls-2" x="25" y="71" width="34" height="6"/>
  <text class="cls-6" transform="translate(25.01 24.26)"><tspan class="cls-4" x="0" y="0">P</tspan><tspan x="5.99" y="0">ASSPO</tspan><tspan class="cls-3" x="37.82" y="0">R</tspan><tspan x="44.51" y="0">T</tspan></text>
  <path class="cls-2" d="M65,32c4.41,0,8,3.59,8,8s-3.59,8-8,8-8-3.59-8-8,3.59-8,8-8M65,30c-5.52,0-10,4.48-10,10s4.48,10,10,10,10-4.48,10-10-4.48-10-10-10h0Z"/>
  <path class="cls-2" d="M65,32.05c.65.52,2,3.26,2,7.95s-1.35,7.43-2,7.95c-.65-.52-2-3.26-2-7.95s1.35-7.43,2-7.95M65,30c-2.21,0-4,4.48-4,10s1.79,10,4,10,4-4.48,4-10-1.79-10-4-10h0Z"/>
  <line class="cls-5" x1="56.44" y1="40" x2="74" y2="40"/>
</svg>