<?xml version="1.0" encoding="UTF-8"?>
<svg id="artwork" xmlns="http://www.w3.org/2000/svg" viewBox="0 0 100 100">
  <defs>
    <style>
      .cls-1 {
        fill: #ebebeb;
      }

      .cls-1, .cls-2, .cls-3 {
        stroke-width: 0px;
      }

      .cls-2 {
        fill: #dcdcdc;
      }

      .cls-4 {
        fill: none;
        stroke: #474747;
        stroke-linecap: round;
        stroke-miterlimit: 10;
        stroke-width: 4px;
      }

      .cls-3 {
        fill: #f94239;
      }
    </style>
  </defs>
  <polygon class="cls-1" points="82 90 18 90 22 24 78 24 82 90"/>
  <path class="cls-4" d="M35.33,29.53v-6.86c0-8.1,6.57-14.67,14.67-14.67h0c8.1,0,14.67,6.57,14.67,14.67v6.86"/>
  <rect class="cls-2" x="27" y="50" width="21" height="36"/>
  <rect class="cls-2" x="52" y="57" width="21" height="29"/>
  <rect class="cls-2" x="57" y="46" width="11" height="9"/>
  <rect class="cls-2" x="32" y="43" width="11" height="5"/>
  <g>
    <g>
      <path class="cls-3" d="M41.23,44.14c0,1.49-.39,2.61-1.18,3.37-.78.76-1.92,1.14-3.41,1.14h-2.79s0-8.95,0-8.95h2.79c1.49,0,2.62.38,3.41,1.14s1.18,1.86,1.18,3.3ZM39.5,44.14c0-.53-.07-.98-.2-1.36-.13-.38-.32-.68-.56-.92-.24-.23-.54-.4-.9-.51-.35-.11-.75-.16-1.2-.16h-1.06v5.98h1.06c.44,0,.84-.06,1.2-.17s.65-.3.9-.54c.24-.25.43-.56.56-.94.13-.38.2-.84.2-1.37Z"/>
      <path class="cls-3" d="M36.64,48.93h-3.07v-9.51h3.07c1.55,0,2.77.41,3.6,1.21.84.81,1.26,1.99,1.26,3.5s-.42,2.76-1.26,3.57c-.83.81-2.04,1.22-3.6,1.22ZM34.13,48.38h2.51c1.41,0,2.49-.36,3.21-1.06.72-.7,1.09-1.77,1.09-3.18s-.37-2.4-1.09-3.1c-.73-.7-1.81-1.06-3.21-1.06h-2.51v8.4ZM36.64,47.45h-1.34v-6.53h1.34c.47,0,.9.06,1.27.17.4.12.73.31,1.01.58.27.27.49.61.63,1.02.14.4.22.89.22,1.45s-.07,1.05-.22,1.46c-.14.42-.36.77-.63,1.05-.27.28-.61.49-1.01.61-.38.12-.81.19-1.28.19ZM35.86,46.89h.79c.41,0,.79-.05,1.11-.16.31-.1.57-.26.78-.48.21-.22.38-.5.5-.84.12-.35.18-.78.18-1.28s-.06-.92-.18-1.27c-.12-.33-.28-.6-.5-.81-.21-.2-.47-.35-.78-.45-.33-.1-.7-.15-1.12-.15h-.79v5.42Z"/>
    </g>
    <g>
      <path class="cls-3" d="M46.88,47.41c.58,0,1.04-.2,1.37-.59.33-.39.5-.99.5-1.79v-5.33s1.73,0,1.73,0v5.31c0,1.29-.32,2.25-.96,2.87-.64.62-1.52.93-2.64.93s-2.01-.31-2.64-.93-.96-1.58-.96-2.87v-5.31s1.73,0,1.73,0v5.33c0,.8.17,1.39.5,1.79s.79.59,1.37.59Z"/>
      <path class="cls-3" d="M46.88,49.09c-1.19,0-2.15-.34-2.84-1.01-.69-.67-1.04-1.7-1.04-3.07v-5.59h2.28v5.6c0,.73.15,1.27.43,1.61.28.33.66.49,1.16.49s.88-.16,1.16-.49c.29-.34.43-.88.43-1.61v-5.6h2.28v5.59c0,1.36-.35,2.4-1.04,3.07-.69.67-1.64,1.01-2.84,1.01ZM43.56,39.98v5.04c0,1.21.29,2.11.87,2.67.58.56,1.41.85,2.45.85s1.87-.29,2.45-.85c.58-.56.87-1.46.87-2.67v-5.04h-1.17v5.05c0,.86-.19,1.52-.56,1.96-.39.46-.92.69-1.59.69s-1.2-.23-1.59-.69c-.37-.44-.56-1.1-.56-1.96v-5.05h-1.17Z"/>
    </g>
    <g>
      <path class="cls-3" d="M56.34,48.66h-1.73s0-7.49,0-7.49l-2.56.03v-1.49s6.85,0,6.85,0v1.49s-2.56-.03-2.56-.03v7.49Z"/>
      <path class="cls-3" d="M56.62,48.93h-2.28v-7.49l-2.56.03v-2.04h7.41v2.04l-2.56-.03v7.49ZM54.89,48.38h1.17v-7.49l2.56.03v-.93h-6.3v.93l2.56-.03v7.49Z"/>
    </g>
    <g>
      <path class="cls-3" d="M64.53,44.85v3.81s-1.73,0-1.73,0v-3.81s-2.99-5.14-2.99-5.14h1.87s1.99,3.67,1.99,3.67l1.97-3.67h1.87s-2.99,5.14-2.99,5.14Z"/>
      <path class="cls-3" d="M64.81,48.93h-2.28v-4.01l-3.19-5.49h2.52l1.83,3.36,1.8-3.36h2.52l-3.19,5.49v4.01ZM63.08,48.38h1.17v-3.61l2.78-4.79h-1.23l-2.13,3.97-2.16-3.97h-1.23l2.78,4.79v3.61Z"/>
    </g>
    <g>
      <path class="cls-3" d="M33.86,51.88h5.71s0,1.46,0,1.46h-4.04v2.28h3.79s0,1.49,0,1.49h-3.79v3.72s-1.67,0-1.67,0v-8.95Z"/>
      <path class="cls-3" d="M35.81,61.11h-2.23v-9.51h6.26v2.01h-4.04v1.73h3.79v2.04h-3.79v3.72ZM34.13,60.56h1.12v-3.72h3.79v-.93h-3.79v-2.84h4.04v-.91h-5.16v8.4Z"/>
    </g>
    <g>
      <path class="cls-3" d="M49.12,54.66c0,.62-.17,1.15-.52,1.58-.35.43-.8.75-1.35.94l2.11,3.65h-1.85s-1.93-3.35-1.93-3.35h-1.31v3.35s-1.73,0-1.73,0v-8.95s3.36,0,3.36,0c.51,0,.97.07,1.37.22.4.15.74.34,1.01.59s.48.54.62.88c.14.34.21.7.21,1.08ZM47.4,54.66c0-.39-.12-.7-.37-.94-.24-.23-.61-.35-1.11-.35h-1.65v2.63h1.65c.46,0,.82-.12,1.08-.36.26-.24.39-.57.39-.98Z"/>
      <path class="cls-3" d="M49.84,61.11h-2.49l-1.93-3.35h-.88v3.35h-2.28v-9.51h3.64c.54,0,1.04.08,1.46.24.43.16.8.38,1.1.65.3.27.54.6.69.98.16.37.23.77.23,1.19,0,.68-.2,1.27-.59,1.75-.31.39-.7.69-1.17.91l2.19,3.79ZM47.68,60.56h1.21l-2.04-3.52.31-.11c.5-.18.91-.46,1.23-.86.31-.39.46-.85.46-1.41,0-.34-.06-.67-.19-.98-.12-.3-.31-.56-.55-.78-.25-.22-.56-.4-.92-.54-.37-.13-.79-.2-1.27-.2h-3.08v8.4h1.17v-3.35h1.75l1.93,3.35ZM45.92,56.27h-1.92v-3.18h1.92c.57,0,1,.14,1.3.43.3.29.45.67.45,1.14,0,.49-.16.89-.48,1.19-.31.29-.74.43-1.27.43ZM44.55,55.72h1.37c.39,0,.69-.09.9-.29.2-.19.3-.44.3-.78,0-.31-.09-.55-.28-.74-.19-.18-.5-.28-.92-.28h-1.37v2.08Z"/>
    </g>
    <g>
      <path class="cls-3" d="M52.18,51.88h5.82s0,1.46,0,1.46h-4.14v2.19h3.89s0,1.46,0,1.46h-3.89v2.38h4.22s0,1.46,0,1.46h-5.9s0-8.95,0-8.95Z"/>
      <path class="cls-3" d="M58.36,61.11h-6.45v-9.51h6.37v2.01h-4.14v1.64h3.89v2.01h-3.89v1.82h4.22v2.01ZM52.46,60.56h5.34v-.91h-4.22v-2.93h3.89v-.91h-3.89v-2.74h4.14v-.91h-5.26v8.4Z"/>
    </g>
    <g>
      <path class="cls-3" d="M61.2,51.88h5.82s0,1.46,0,1.46h-4.14v2.19h3.89s0,1.46,0,1.46h-3.89v2.38h4.22s0,1.46,0,1.46h-5.9s0-8.95,0-8.95Z"/>
      <path class="cls-3" d="M67.37,61.11h-6.45v-9.51h6.37v2.01h-4.14v1.64h3.89v2.01h-3.89v1.82h4.22v2.01ZM61.47,60.56h5.34v-.91h-4.22v-2.93h3.89v-.91h-3.89v-2.74h4.14v-.91h-5.26v8.4Z"/>
    </g>
  </g>
</svg>