<?xml version="1.0" encoding="UTF-8"?>
<svg id="artwork" xmlns="http://www.w3.org/2000/svg" viewBox="0 0 100 100">
  <defs>
    <style>
      .cls-1, .cls-2, .cls-3, .cls-4, .cls-5 {
        stroke-width: 0px;
      }

      .cls-1, .cls-6 {
        fill: #474747;
      }

      .cls-2 {
        fill: #ebebeb;
      }

      .cls-3 {
        fill: #dcdcdc;
      }

      .cls-4 {
        fill: #fc531f;
      }

      .cls-7 {
        fill: none;
        stroke-width: 2px;
      }

      .cls-7, .cls-6 {
        stroke: #474747;
        stroke-miterlimit: 10;
      }

      .cls-6 {
        stroke-width: .5px;
      }

      .cls-5 {
        fill: #ff7847;
      }
    </style>
  </defs>
  <g>
    <rect class="cls-5" x="20" y="15" width="60" height="70" transform="translate(9.67 -8.08) rotate(10.23)"/>
    <rect class="cls-5" x="20" y="15" width="60" height="70" transform="translate(9.67 -8.08) rotate(10.23)"/>
    <rect class="cls-4" x="20.43" y="10.21" width="6" height="70" transform="translate(8.4 -3.44) rotate(10.23)"/>
  </g>
  <g>
    <g>
      <rect class="cls-2" x="20" y="15" width="60" height="70" transform="translate(-4.17 4.55) rotate(-5)"/>
      <rect class="cls-2" x="20" y="15" width="60" height="70" transform="translate(-4.17 4.55) rotate(-5)"/>
      <rect class="cls-3" x="20.1" y="17.35" width="6" height="70" transform="translate(-4.47 2.21) rotate(-5)"/>
    </g>
    <polygon class="cls-1" points="63.14 73.95 41.22 75.86 41.73 58.75 59.66 57.19 63.14 73.95"/>
    <g>
      <path class="cls-6" d="M40.41,30.49c.12,1.34-.15,2.38-.79,3.13-.65.75-1.64,1.18-2.98,1.3l-2.51.22-.7-8.06,2.51-.22c1.34-.12,2.39.13,3.16.75s1.2,1.58,1.32,2.88ZM38.86,30.63c-.04-.48-.14-.88-.29-1.21-.15-.33-.34-.59-.58-.78-.24-.19-.52-.32-.85-.39-.33-.07-.69-.08-1.09-.05l-.96.08.47,5.38.96-.08c.4-.03.75-.12,1.06-.25s.56-.32.76-.56c.2-.24.34-.54.43-.89.09-.35.11-.77.07-1.25Z"/>
      <path class="cls-6" d="M45.76,32.99c.53-.05.92-.26,1.19-.64.27-.38.37-.93.31-1.65l-.42-4.79,1.55-.14.42,4.78c.1,1.16-.11,2.05-.64,2.66-.52.61-1.29.96-2.31,1.04s-1.83-.12-2.45-.63-.98-1.34-1.09-2.51l-.42-4.78,1.55-.14.42,4.79c.06.72.26,1.24.59,1.57s.76.47,1.28.42Z"/>
      <path class="cls-6" d="M54.37,33.37l-1.55.14-.59-6.74-2.31.23-.12-1.34,6.17-.54.12,1.34-2.31.18.59,6.74Z"/>
      <path class="cls-6" d="M61.44,29.29l.3,3.43-1.55.14-.3-3.43-3.09-4.39,1.69-.15,2.08,3.14,1.48-3.45,1.69-.15-2.29,4.86Z"/>
      <path class="cls-6" d="M34.39,38.04l5.14-.45.12,1.31-3.63.32.18,2.06,3.41-.3.12,1.34-3.41.3.29,3.35-1.51.13-.7-8.06Z"/>
      <path class="cls-6" d="M48.35,39.34c.05.56-.07,1.05-.35,1.46-.28.42-.66.74-1.14.95l2.19,3.12-1.66.15-2-2.86-1.18.1.26,3.01-1.55.14-.7-8.06,3.02-.26c.46-.04.88-.01,1.25.09.37.1.69.25.96.45s.48.45.63.75c.15.3.25.62.28.96ZM46.79,39.47c-.03-.35-.17-.62-.4-.81-.24-.19-.58-.27-1.03-.23l-1.48.13.21,2.37,1.48-.13c.41-.04.73-.17.95-.41.22-.24.31-.54.28-.92Z"/>
      <path class="cls-6" d="M50.88,36.6l5.24-.46.12,1.31-3.73.33.17,1.97,3.5-.31.12,1.32-3.5.31.19,2.14,3.8-.33.12,1.31-5.31.46-.7-8.06Z"/>
      <path class="cls-6" d="M59,35.89l5.24-.46.12,1.31-3.73.33.17,1.97,3.5-.31.12,1.32-3.5.31.19,2.14,3.8-.33.12,1.31-5.31.46-.7-8.06Z"/>
    </g>
    <path class="cls-7" d="M46.71,58.32l-.17-1.99c-.19-2.2,1.44-4.14,3.64-4.33h0c2.2-.19,4.14,1.44,4.33,3.64l.17,1.99"/>
  </g>
</svg>