<?xml version="1.0" encoding="UTF-8"?>
<svg id="artwork" xmlns="http://www.w3.org/2000/svg" viewBox="0 0 100 100">
  <defs>
    <style>
      .cls-1 {
        fill: #333;
      }

      .cls-1, .cls-2, .cls-3, .cls-4, .cls-5, .cls-6 {
        stroke-width: 0px;
      }

      .cls-2 {
        fill: #474747;
      }

      .cls-3 {
        fill: #dcdcdc;
      }

      .cls-4 {
        fill: #8b8b8b;
      }

      .cls-5 {
        fill: #f94239;
      }

      .cls-6 {
        fill: #b21d00;
      }
    </style>
  </defs>
  <g>
    <rect class="cls-4" x="27" y="84" width="34" height="6"/>
    <rect class="cls-4" x="26.75" y="72.75" width="28.5" height="6" transform="translate(-34.75 116.75) rotate(-90)"/>
    <g>
      <path class="cls-4" d="M27,41h37v6H27c-1.66,0-3-1.34-3-3h0c0-1.66,1.34-3,3-3Z"/>
      <path class="cls-4" d="M24,66h32v6H18c0-3.31,2.69-6,6-6Z"/>
      <polygon class="cls-4" points="61 72 69 41 61 41 53 72 61 72"/>
    </g>
    <path class="cls-2" d="M61,8h17c3.86,0,7,3.14,7,7v14c0,3.86-3.14,7-7,7h-17V8h0Z" transform="translate(51 95) rotate(-90)"/>
    <polygon class="cls-2" points="73 34 62.15 72 47.56 72 59 34 73 34"/>
    <path class="cls-2" d="M18.5,59h18.5v13h-18.5c-3.59,0-6.5-2.91-6.5-6.5h0c0-3.59,2.91-6.5,6.5-6.5Z"/>
    <rect class="cls-3" x="38" y="84" width="34" height="6"/>
    <rect class="cls-3" x="40.75" y="72.75" width="28.5" height="6" transform="translate(-20.75 130.75) rotate(-90)"/>
    <path class="cls-1" d="M33.29,59h35.56v13h-35.56c-3.52,0-6.38-2.86-6.38-6.38v-.24c0-3.52,2.86-6.38,6.38-6.38Z"/>
    <path class="cls-1" d="M68,15h17c3.86,0,7,3.14,7,7h0c0,3.86-3.14,7-7,7h-17v-14h0Z" transform="translate(58 102) rotate(-90)"/>
    <rect class="cls-5" x="55.64" y="16" width="15.36" height="15" rx="4" ry="4"/>
    <polygon class="cls-1" points="87 34 76.15 72 61.56 72 73 34 87 34"/>
    <g>
      <path class="cls-3" d="M43,41h37v6h-37c-1.66,0-3-1.34-3-3h0c0-1.66,1.34-3,3-3Z"/>
      <path class="cls-3" d="M40,66h32v6h-38c0-3.31,2.69-6,6-6Z"/>
      <polygon class="cls-3" points="77 72 85 41 77 41 69 72 77 72"/>
    </g>
  </g>
  <rect class="cls-6" x="60.5" y="20.5" width="15" height="6" rx="3" ry="3" transform="translate(44.5 91.5) rotate(-90)"/>
</svg>