<?xml version="1.0" encoding="UTF-8"?>
<svg id="artwork" xmlns="http://www.w3.org/2000/svg" xmlns:xlink="http://www.w3.org/1999/xlink" viewBox="0 0 100 100">
  <defs>
    <style>
      .cls-1 {
        fill: #474747;
      }

      .cls-1, .cls-2, .cls-3, .cls-4 {
        stroke-width: 0px;
      }

      .cls-2 {
        fill: #ebebeb;
      }

      .cls-5 {
        clip-path: url(#clippath);
      }

      .cls-3, .cls-6 {
        fill: none;
      }

      .cls-4 {
        fill: #66d0ff;
      }

      .cls-6 {
        stroke: #474747;
        stroke-miterlimit: 10;
        stroke-width: 6px;
      }
    </style>
    <clipPath id="clippath">
      <path class="cls-3" d="M70.95,90H29.05c-5.92,0-10.54-5.11-9.95-11L26,10h48s6.9,69,6.9,69c.59,5.89-4.03,11-9.95,11Z"/>
    </clipPath>
  </defs>
  <path class="cls-6" d="M75.39,58.39l11.48-9.83c1.93-1.65,2.91-4.15,2.62-6.68l-1.72-15.1c-.44-3.86-3.71-6.78-7.6-6.78h-8.17"/>
  <g class="cls-5">
    <rect class="cls-2" x="10" y="0" width="80" height="95"/>
    <rect class="cls-1" x="10" y="81" width="80" height="9"/>
  </g>
  <polygon class="cls-2" points="27 20 10 20 27 37 27 20"/>
  <rect class="cls-1" x="42" y="5" width="16" height="5"/>
  <rect class="cls-4" x="45" y="26" width="10" height="40" rx="5" ry="5"/>
</svg>