<?xml version="1.0" encoding="UTF-8"?>
<svg id="artwork" xmlns="http://www.w3.org/2000/svg" viewBox="0 0 100 100">
  <defs>
    <style>
      .cls-1 {
        fill: #197547;
      }

      .cls-1, .cls-2 {
        stroke-width: 0px;
      }

      .cls-3 {
        fill: none;
        stroke: #ffcd4e;
        stroke-linecap: round;
        stroke-miterlimit: 10;
        stroke-width: 4px;
      }

      .cls-2 {
        fill: #ffcd4e;
      }
    </style>
  </defs>
  <polygon class="cls-1" points="87 90 13 90 17 30 83 30 87 90"/>
  <path class="cls-3" d="M35.33,37.53v-14.86c0-8.1,6.57-14.67,14.67-14.67h0c8.1,0,14.67,6.57,14.67,14.67v14.86"/>
  <g id="BOyRzW">
    <g>
      <path class="cls-2" d="M37.98,49.76c.36.14.43.43.43.78,0,3.07,0,6.15,0,9.22,0,.15,0,.29.02.44,0,.19.11.28.29.27.31,0,.63-.02.94-.03,1.23-.04,2.46-.09,3.69-.12.24,0,.49.02.72.08.44.12.57.57.27.91-.12.14-.27.25-.42.35-1.16.75-1.89,1.85-2.46,3.07-.1.21-.12.45-.16.68-.01.06.03.19.07.2.07.01.17-.02.22-.07.17-.19.36-.38.49-.6.47-.79.92-1.59,1.38-2.38.08-.13.14-.27.23-.4.13-.18.32-.26.54-.23.22.04.35.18.38.4.09.56.17,1.12.27,1.67.06.33.13.66.23.98.08.25.23.27.39.05.13-.17.24-.35.33-.55.4-.89.72-1.82.94-2.77.08-.34.03-.65-.18-.93-.1-.13-.19-.26-.28-.39-.27-.41-.28-.85-.12-1.29.09-.25.27-.43.51-.53.49-.21.91-.01,1.01.51.06.31.06.64.08.96.04.6.13.71.69.91.31.11.62.23.91.37.4.2.6.53.59,1-.02.77,0,1.54,0,2.32,0,.15,0,.31.04.45.05.2.2.24.33.08.09-.11.18-.23.24-.36.5-.97.83-2,1.07-3.06.07-.33,0-.62-.2-.89-.13-.18-.27-.36-.37-.55-.35-.66-.02-1.49.66-1.68.45-.13.76.04.84.51.06.32.05.65.07.98.03.53.2.74.71.92.3.11.61.21.89.36.44.22.62.6.6,1.09-.03.79-.03,1.58-.02,2.36,0,.15.1.3.15.45.13-.09.3-.15.39-.27.41-.53.63-1.15.83-1.78.13-.42.25-.85.43-1.26.57-1.28,1.83-1.89,3.1-1.53.47.13.83.42,1.12.8.13.17.25.35.36.53.13.2.3.29.53.21.64-.24,1.29-.47,1.92-.73.43-.18.85-.39,1.26-.6.29-.15.58-.22.9-.23.29,0,.37-.09.4-.38,0-.1,0-.2,0-.3,0-1.98,0-3.96,0-5.94,0-.84.12-.96.95-.96.46,0,.58.12.59.59,0,.63,0,1.27,0,1.9,0,3.42,0,6.84,0,10.26,0,.24-.03.49-.11.72-.16.45-.86.68-1.25.39-.12-.09-.21-.27-.24-.42-.06-.31-.05-.64-.1-.96-.02-.11-.1-.21-.16-.31-.1.06-.22.1-.29.19-.18.23-.31.5-.51.7-.27.28-.55.56-.88.75-.49.28-1.01.11-1.31-.37-.23-.36-.31-.76-.34-1.18-.05-.73.13-1.43.29-2.13.04-.16,0-.33,0-.5-.17,0-.36-.02-.52.03-.82.28-.91.43-.93,1.3-.01.75-.24,1.43-.69,2.03-.96,1.28-2.68,1.29-3.68.04-.12-.15-.22-.31-.34-.46-.29-.37-.47-.36-.74.02-.21.3-.41.61-.63.9-.21.27-.49.44-.84.47-.44.04-.83-.09-1.01-.5-.14-.31-.27-.66-.28-1-.04-1.05-.02-2.1-.02-3.14,0-.12,0-.25-.05-.36-.11-.34-.5-.41-.72-.13-.09.12-.15.27-.19.41-.33,1.14-.66,2.28-1.2,3.34-.18.36-.4.71-.67,1-.56.61-1.4.48-1.81-.24-.19-.33-.27-.7-.27-1.08,0-.89,0-1.79,0-2.68,0-.11,0-.23,0-.34,0-.37-.13-.61-.36-.65-.21-.04-.45.16-.56.49-.19.6-.35,1.22-.56,1.82-.27.77-.6,1.51-1.09,2.16-.2.27-.45.53-.71.74-.33.26-.76.19-.98-.17-.17-.29-.27-.63-.38-.95-.09-.26-.14-.53-.24-.79-.1-.24-.24-.26-.41-.05-.12.15-.21.32-.32.47-.3.4-.57.84-.92,1.19-.67.68-1.34.49-1.65-.41-.18-.52-.12-1.03.01-1.54.21-.84.49-1.65.91-2.42.21-.38.1-.62-.33-.64-.45-.03-.9,0-1.35.01-.21,0-.41.04-.61.07-.23.03-.34.18-.36.41,0,.11,0,.21,0,.32,0,2.3,0,4.6,0,6.91,0,.23-.02.46-.08.68-.06.26-.22.36-.49.36-.21,0-.41,0-.62,0-.28,0-.39-.09-.42-.38-.03-.23-.04-.47-.04-.71,0-2.29,0-4.59,0-6.88,0-.49-.09-.58-.58-.54-.6.05-1.2.1-1.8.17-.45.05-.51.14-.51.59,0,2.16,0,4.31,0,6.47,0,.17,0,.34,0,.5-.03.56-.13.69-.64.85h-.96c-.16-.1-.38-.15-.47-.29-.13-.21-.21-.48-.22-.72-.02-1.15,0-2.31,0-3.46,0-1.04,0-2.08,0-3.12,0-.46-.12-.56-.56-.53-.38.03-.76.08-1.14.12-1.11.13-2.21.26-3.32.4-.21.03-.39-.01-.53-.19,0-.14,0-.28,0-.41.14-.06.27-.15.41-.17,1.04-.14,2.08-.25,3.12-.38.51-.06,1.02-.12,1.52-.19.42-.06.51-.16.53-.6,0-.12,0-.24,0-.37,0-3.1,0-6.19,0-9.29,0-.58.19-1.03.75-1.26h.96c.35.12.52.38.56.73.02.19.03.38.03.57,0,3,0,6,0,8.99,0,.16,0,.32.02.48.04.32.14.39.46.36.52-.05,1.05-.11,1.57-.16.74-.07.8-.14.8-.89,0-2.92,0-5.84,0-8.76,0-.19.01-.38.02-.57.02-.36.15-.63.52-.75h.69ZM57.93,64.06c.08.37.16.83.3,1.28.11.34.36.58.72.68.56.15,1.1-.1,1.41-.67.3-.54.39-1.12.37-1.73-.01-.37-.06-.39-.44-.41-.35-.01-.7-.05-1.03-.13-.17-.04-.32-.2-.48-.29-.35-.21-.59-.13-.69.26-.07.29-.1.6-.16,1.01ZM65.98,62.27c-.06-.13-.1-.33-.18-.35-.12-.03-.3.02-.41.09-.14.1-.26.26-.36.41-.51.78-.85,1.64-1.08,2.54-.05.21-.08.44-.08.65.01.26.21.35.41.19.17-.13.33-.29.43-.47.31-.59.61-1.18.86-1.79.17-.4.26-.84.39-1.28ZM59.84,62.59c.25-.05.43-.12.55-.32.11-.21.07-.42-.08-.57-.17-.17-.36-.33-.58-.42-.27-.12-.62.03-.74.26-.13.24-.07.55.19.73.2.14.44.22.66.33Z"/>
      <path class="cls-2" d="M73,60.69c-.13.61-.55.89-1.12,1.02-.78.17-1.45.55-1.99,1.15-.51.57-.44.94.27,1.23.33.13.67.25,1.02.35,1.95.59,2.09,2.72.94,3.91-.6.62-1.34,1.04-2.1,1.42-.33.17-.69.3-1.05.39-.48.12-.74-.12-.75-.62,0-.48.19-.86.59-1.09.43-.25.88-.45,1.32-.69.31-.17.62-.36.91-.58.18-.14.33-.32.45-.51.35-.57.2-1.17-.4-1.48-.42-.22-.87-.37-1.3-.56-.18-.07-.35-.14-.53-.22-.84-.38-1.11-.99-.78-1.99.14-.44.47-.77.81-1.07.75-.67,1.62-1.14,2.56-1.49.61-.22.82-.14,1.15.4v.41Z"/>
    </g>
  </g>
</svg>