<?xml version="1.0" encoding="UTF-8"?>
<svg id="artwork" xmlns="http://www.w3.org/2000/svg" viewBox="0 0 100 100">
  <defs>
    <style>
      .cls-1 {
        fill: #ffc8a3;
        stroke: #f9b180;
        stroke-width: 6px;
      }

      .cls-1, .cls-2 {
        stroke-miterlimit: 10;
      }

      .cls-2 {
        fill: #ff3000;
        stroke: #ff3000;
      }

      .cls-3 {
        fill: #f9b180;
        stroke-width: 0px;
      }
    </style>
  </defs>
  <rect class="cls-1" x="13" y="33" width="74" height="50" rx="10" ry="10"/>
  <rect class="cls-3" x="27" y="10" width="8" height="20"/>
  <rect class="cls-3" x="46" y="-16" width="8" height="74" transform="translate(71 -29) rotate(90)"/>
  <rect class="cls-3" x="65" y="10" width="8" height="20"/>
  <g>
    <path class="cls-2" d="M32.34,65.87c.08.31.15.62.26.92.38,1.12,1.12,1.97,2,2.71,1.62,1.36,3.51,2.21,5.5,2.85,2.34.75,4.74,1.21,7.2,1.3,1.5.06,3.01.12,4.51.05,3.67-.18,7.25-.82,10.61-2.37,1.57-.72,3.01-1.64,4.12-3,.67-.83,1.08-1.77,1.11-2.84.02-.86-.25-1.65-.72-2.38-.85-1.32-2.06-2.24-3.44-3.02.21.32.42.59.57.88.74,1.37.57,2.68-.32,3.91-.91,1.26-2.18,2.06-3.56,2.7-2.11.97-4.35,1.49-6.66,1.77-1.58.19-3.16.26-4.75.18-3.42-.16-6.75-.74-9.81-2.39-1.05-.57-2-1.27-2.7-2.26-.5-.7-.84-1.47-.77-2.34.07-.81.37-1.56.9-2.2.07-.09.14-.17.2-.28-.94.47-1.79,1.06-2.53,1.8-.86.86-1.51,1.85-1.69,3.09,0,.03-.03.06-.05.09v.83Z"/>
    <path class="cls-2" d="M57.31,43c-.42.43-.85.83-1.23,1.27-1.82,2.12-2.03,5.71-.19,8.16.55.73,1.11,1.46,1.61,2.22,1.51,2.3,1.47,4.68.35,7.08,1.06-.65,2.19-2.23,2.57-3.72.51-2.05.22-3.97-1.03-5.71-.58-.81-1.19-1.6-1.74-2.44-.96-1.46-1.24-3.07-.91-4.77.14-.69.37-1.37.58-2.1Z"/>
    <path class="cls-2" d="M42.09,43.03c-1.03.85-1.88,1.81-2.31,3.07-.53,1.59-.61,3.2.03,4.78.23.56.55,1.1.89,1.6.56.84,1.2,1.62,1.74,2.47.89,1.39,1.13,2.92.88,4.54-.12.8-.36,1.55-.74,2.26.85-.72,1.68-1.48,2.14-2.53,1.09-2.46.94-4.82-.65-7.04-.54-.75-1.11-1.48-1.61-2.25-1.37-2.13-1.39-4.37-.42-6.66.02-.06.05-.11.07-.17,0,0,0-.02-.02-.08Z"/>
    <path class="cls-2" d="M49.64,41.06c-.66.54-1.31,1.19-1.82,1.97-1.56,2.4-1.62,5.91.27,8.43.61.82,1.24,1.63,1.79,2.49,1.62,2.5,1.63,5.09.35,7.72-.01.03-.02.06-.04.11,1.63-1.33,2.78-2.89,3.06-5.02.27-2.08-.17-3.94-1.42-5.62-.62-.83-1.24-1.66-1.81-2.52-1.08-1.63-1.38-3.44-1.01-5.34.15-.77.42-1.51.62-2.22Z"/>
  </g>
</svg>