<?xml version="1.0" encoding="UTF-8"?>
<svg id="artwork" xmlns="http://www.w3.org/2000/svg" viewBox="0 0 100 100">
  <defs>
    <style>
      .cls-1 {
        fill: none;
        stroke: #ffefc3;
        stroke-miterlimit: 10;
        stroke-width: 2px;
      }

      .cls-2 {
        letter-spacing: -.05em;
      }

      .cls-3 {
        fill: #004b8e;
        stroke-width: 0px;
      }

      .cls-4 {
        fill: #ffefc3;
        font-family: JalnanGothicTTF, 'Jalnan Gothic TTF';
        font-size: 11px;
      }
    </style>
  </defs>
  <path class="cls-3" d="M73,89H17V9h56c5.52,0,10,4.48,10,10v60c0,5.52-4.48,10-10,10Z"/>
  <text class="cls-4" transform="translate(29.94 31.19)"><tspan class="cls-2" x="0" y="0">K</tspan><tspan x="8" y="0">OREA</tspan></text>
  <g>
    <path class="cls-1" d="M39.63,49.15c3.98-5.97,12.05-7.59,18.03-3.61,5.97,3.98,7.59,12.05,3.61,18.03"/>
    <path class="cls-1" d="M50.45,56.36c1.99-2.99,6.03-3.79,9.01-1.8,2.99,1.99,3.79,6.03,1.8,9.01-3.98,5.97-12.05,7.59-18.03,3.61-5.97-3.98-7.59-12.05-3.61-18.03-1.99,2.99-1.18,7.02,1.8,9.01s7.02,1.18,9.01-1.8"/>
  </g>
</svg>