<?xml version="1.0" encoding="UTF-8"?>
<svg id="artwork" xmlns="http://www.w3.org/2000/svg" viewBox="0 0 100 100">
  <defs>
    <style>
      .cls-1 {
        fill: #ccd34f;
      }

      .cls-1, .cls-2 {
        stroke-width: 0px;
      }

      .cls-2 {
        fill: #772;
      }
    </style>
  </defs>
  <rect class="cls-1" x="15" y="15" width="70" height="70" rx="10" ry="10"/>
  <g>
    <path class="cls-2" d="M25.78,45.06c-.72-.8-1.09-1.96-1.09-3.46v-1.06h2.76v1.27c0,1.2.5,1.8,1.51,1.8.5,0,.87-.15,1.13-.44.26-.29.38-.76.38-1.42,0-.78-.18-1.46-.53-2.06-.35-.59-1.01-1.3-1.96-2.13-1.2-1.06-2.04-2.02-2.52-2.88-.48-.86-.72-1.82-.72-2.9,0-1.47.37-2.6,1.11-3.41.74-.8,1.82-1.21,3.23-1.21s2.45.4,3.17,1.21c.72.8,1.07,1.96,1.07,3.46v.77h-2.76v-.95c0-.64-.12-1.1-.37-1.39-.25-.29-.61-.44-1.09-.44-.97,0-1.46.59-1.46,1.78,0,.67.18,1.3.54,1.88s1.02,1.29,1.98,2.12c1.22,1.06,2.06,2.02,2.52,2.89.46.87.69,1.88.69,3.05,0,1.52-.38,2.69-1.13,3.5-.75.81-1.84,1.22-3.27,1.22s-2.48-.4-3.21-1.21Z"/>
    <path class="cls-2" d="M37.24,27.45h3.95l3.02,18.56h-2.92l-.53-3.69v.05h-3.31l-.53,3.63h-2.7l3.02-18.56ZM40.42,39.85l-1.3-9.17h-.05l-1.27,9.17h2.62Z"/>
    <path class="cls-2" d="M44.1,27.45h2.94l1.91,14.4h.05l1.91-14.4h2.68l-2.81,18.56h-3.87l-2.81-18.56Z"/>
    <path class="cls-2" d="M55.87,45.05c-.76-.81-1.14-1.96-1.14-3.45v-9.76c0-1.48.38-2.63,1.14-3.45.76-.81,1.86-1.22,3.29-1.22s2.53.41,3.29,1.22c.76.81,1.14,1.96,1.14,3.45v9.76c0,1.49-.38,2.63-1.14,3.45-.76.81-1.86,1.22-3.29,1.22s-2.53-.41-3.29-1.22ZM60.67,41.79v-10.13c0-1.22-.5-1.83-1.51-1.83s-1.51.61-1.51,1.83v10.13c0,1.22.5,1.83,1.51,1.83s1.51-.61,1.51-1.83Z"/>
    <path class="cls-2" d="M65.55,27.45h3.66l2.84,11.11h.05v-11.11h2.6v18.56h-3l-3.5-13.55h-.05v13.55h-2.6v-18.56Z"/>
  </g>
  <g>
    <path class="cls-2" d="M44.96,49.48h2.38c.77,0,1.35.21,1.74.62.39.42.58,1.02.58,1.83v5.01c0,.8-.19,1.41-.58,1.83s-.97.62-1.74.62h-2.38v-9.92ZM47.31,57.98c.26,0,.45-.08.59-.23s.21-.4.21-.74v-5.16c0-.34-.07-.59-.21-.74-.14-.15-.33-.23-.59-.23h-.79v7.08h.79Z"/>
    <path class="cls-2" d="M50.71,49.48h4.25v1.42h-2.69v2.62h2.14v1.42h-2.14v3.05h2.69v1.42h-4.25v-9.92Z"/>
  </g>
  <g>
    <path class="cls-2" d="M25,62.9h2.41l1.07,7.69h.03l1.07-7.69h2.41v10.75h-1.6v-8.14h-.03l-1.23,8.14h-1.41l-1.23-8.14h-.03v8.14h-1.47v-10.75Z"/>
    <path class="cls-2" d="M34.56,62.9h2.29l1.75,10.75h-1.69l-.31-2.13v.03h-1.92l-.31,2.1h-1.57l1.75-10.75ZM36.41,70.09l-.75-5.31h-.03l-.74,5.31h1.52Z"/>
    <path class="cls-2" d="M39.42,62.9h2.5c.87,0,1.5.2,1.9.61s.6,1.03.6,1.87v.66c0,1.12-.37,1.82-1.11,2.12v.03c.41.12.7.37.87.75.17.38.25.89.25,1.52v1.89c0,.31,0,.56.03.74s.07.38.15.56h-1.72c-.06-.17-.1-.34-.12-.49-.02-.15-.03-.43-.03-.83v-1.96c0-.49-.08-.83-.24-1.03-.16-.19-.43-.29-.82-.29h-.58v4.61h-1.69v-10.75ZM41.72,67.51c.34,0,.59-.09.76-.26.17-.17.25-.47.25-.88v-.83c0-.39-.07-.67-.21-.84-.14-.17-.36-.26-.65-.26h-.77v3.07h.61Z"/>
    <path class="cls-2" d="M45.94,73.1c-.42-.47-.63-1.13-.63-2v-.61h1.6v.74c0,.7.29,1.04.87,1.04.29,0,.5-.08.65-.25.15-.17.22-.44.22-.82,0-.45-.1-.85-.31-1.19-.2-.34-.58-.75-1.14-1.24-.7-.61-1.18-1.17-1.46-1.67-.28-.5-.41-1.06-.41-1.68,0-.85.21-1.51.64-1.97.43-.47,1.05-.7,1.87-.7s1.42.23,1.83.7c.41.47.62,1.13.62,2v.45h-1.6v-.55c0-.37-.07-.64-.22-.81-.14-.17-.35-.25-.63-.25-.56,0-.84.34-.84,1.03,0,.39.1.75.31,1.09s.59.75,1.14,1.23c.71.61,1.19,1.17,1.46,1.67.27.5.4,1.09.4,1.77,0,.88-.22,1.56-.65,2.03-.43.47-1.07.71-1.9.71s-1.44-.23-1.86-.7Z"/>
    <path class="cls-2" d="M51.31,62.9h4.61v1.53h-2.92v2.84h2.32v1.54h-2.32v3.3h2.92v1.54h-4.61v-10.75Z"/>
    <path class="cls-2" d="M56.89,62.9h1.69v10.75h-1.69v-10.75Z"/>
    <path class="cls-2" d="M59.83,62.9h1.69v9.21h2.78v1.54h-4.47v-10.75Z"/>
    <path class="cls-2" d="M65.11,62.9h1.69v9.21h2.78v1.54h-4.47v-10.75Z"/>
    <path class="cls-2" d="M70.39,62.9h4.61v1.53h-2.92v2.84h2.32v1.54h-2.32v3.3h2.92v1.54h-4.61v-10.75Z"/>
  </g>
</svg>