<?xml version="1.0" encoding="UTF-8"?>
<svg id="artwork" xmlns="http://www.w3.org/2000/svg" viewBox="0 0 100 100">
  <defs>
    <style>
      .cls-1 {
        fill: #ff9fe6;
      }

      .cls-1, .cls-2, .cls-3, .cls-4, .cls-5 {
        stroke-width: 0px;
      }

      .cls-2 {
        fill: #8b8b8b;
      }

      .cls-3 {
        fill: #ffccf4;
      }

      .cls-4 {
        fill: #ffc8a3;
      }

      .cls-5 {
        fill: #f9b180;
      }
    </style>
  </defs>
  <path class="cls-4" d="M70,34l-7,56H30c-11.05,0-20-8.95-20-20v-4.62h39.74l20.26-31.38Z"/>
  <path class="cls-2" d="M22,66h32v6H16c0-3.31,2.69-6,6-6Z"/>
  <path class="cls-4" d="M60,8h17c3.86,0,7,3.14,7,7v14c0,3.86-3.14,7-7,7h-17V8h0Z" transform="translate(50 94) rotate(-90)"/>
  <polygon class="cls-4" points="78 34 67.15 72 46.56 72 58 34 78 34"/>
  <path class="cls-4" d="M16.5,59h18.5v13h-18.5c-3.59,0-6.5-2.91-6.5-6.5h0c0-3.59,2.91-6.5,6.5-6.5Z"/>
  <path class="cls-5" d="M71,15h17c3.86,0,7,3.14,7,7h0c0,3.86-3.14,7-7,7h-17v-14h0Z" transform="translate(61 105) rotate(-90)"/>
  <rect class="cls-4" x="54.32" y="15.32" width="18" height="19.36" rx="4" ry="4" transform="translate(38.32 88.32) rotate(-90)"/>
  <path class="cls-5" d="M76,34l-6.46,21.44c-.64,2.11-2.58,3.56-4.79,3.56h-28.46c-3.52,0-6.38,2.86-6.38,6.38v.24c0,3.52,2.86,6.38,6.38,6.38h42.85l10.85-38h-14Z"/>
  <path class="cls-5" d="M90,34v26c0,16.57-13.43,30-30,30h-5.38c-13.6,0-24.62-11.02-24.62-24.62h0s39.74,0,39.74,0l20.26-31.38Z"/>
  <rect class="cls-5" x="61" y="22" width="18" height="6" rx="3" ry="3" transform="translate(45 95) rotate(-90)"/>
  <g>
    <path class="cls-1" d="M27.7,42.13c-1.44-3.12-4.86-5.31-8.85-5.31s-7.41,2.19-8.85,5.31c1.44,3.12,4.86,5.31,8.85,5.31s7.41-2.19,8.85-5.31Z"/>
    <path class="cls-1" d="M44.7,42.13c-1.44-3.12-4.86-5.31-8.85-5.31s-7.41,2.19-8.85,5.31c1.44,3.12,4.86,5.31,8.85,5.31s7.41-2.19,8.85-5.31Z"/>
    <path class="cls-3" d="M43.33,26.98c-4.19-1.54-9.35-.42-13.03,3.26s-4.8,8.84-3.26,13.03c4.19,1.54,9.35.42,13.03-3.26s4.8-8.84,3.26-13.03Z"/>
    <path class="cls-3" d="M11.69,26.98c4.19-1.54,9.35-.42,13.03,3.26s4.8,8.84,3.26,13.03c-4.19,1.54-9.35.42-13.03-3.26-3.67-3.67-4.8-8.84-3.26-13.03Z"/>
    <path class="cls-1" d="M27.51,20.54c-4.05,1.87-6.91,6.32-6.91,11.51s2.85,9.64,6.91,11.51c4.05-1.87,6.91-6.32,6.91-11.51s-2.85-9.64-6.91-11.51Z"/>
  </g>
</svg>