<?xml version="1.0" encoding="UTF-8"?>
<svg id="artwork" xmlns="http://www.w3.org/2000/svg" viewBox="0 0 100 100">
  <defs>
    <style>
      .cls-1 {
        fill: #ffb901;
      }

      .cls-1, .cls-2 {
        stroke-width: 0px;
      }

      .cls-2 {
        fill: #ffe5a2;
      }
    </style>
  </defs>
  <path class="cls-2" d="M84,64c0,17.12-15.22,26-34,26s-34-8.88-34-26S31.22,28,50,28s34,18.88,34,36Z"/>
  <polygon class="cls-2" points="50 39.78 67.13 10.11 32.87 10.11 50 39.78"/>
  <rect class="cls-1" x="36" y="24" width="28" height="8" rx="4" ry="4"/>
  <g>
    <path class="cls-1" d="M49.52,75.16c-2.4,0-4.51-.44-6.32-1.32-1.81-.88-3.36-2.17-4.64-3.88l3.08-4.04c1.36,1.76,2.68,2.99,3.96,3.68,1.28.69,2.72,1.04,4.32,1.04.9,0,1.73-.14,2.48-.42.75-.28,1.33-.67,1.76-1.16.43-.49.64-1.06.64-1.7,0-.45-.09-.87-.26-1.26s-.43-.73-.78-1.04c-.35-.31-.78-.59-1.28-.86-.51-.27-1.08-.49-1.72-.68s-1.35-.36-2.12-.52c-1.97-.4-3.61-.98-4.9-1.74-1.3-.76-2.26-1.71-2.9-2.86s-.96-2.49-.96-4.04c0-1.17.26-2.25.78-3.24.52-.99,1.23-1.84,2.14-2.56.91-.72,1.96-1.28,3.16-1.68,1.2-.4,2.49-.6,3.88-.6,2.19,0,4.12.39,5.8,1.18,1.68.79,3.07,1.95,4.16,3.5l-2.96,3.6c-.91-1.23-1.96-2.15-3.14-2.78-1.19-.63-2.48-.94-3.86-.94-.96,0-1.79.13-2.5.4-.71.27-1.26.65-1.66,1.14-.4.49-.6,1.09-.6,1.78,0,.53.12,1.01.36,1.42s.58.78,1.02,1.1c.44.32,1.01.6,1.7.84s1.48.45,2.36.64c1.47.29,2.79.69,3.96,1.18,1.17.49,2.17,1.08,3,1.76.83.68,1.45,1.45,1.88,2.32.43.87.64,1.83.64,2.9,0,1.84-.43,3.42-1.3,4.74-.87,1.32-2.09,2.33-3.66,3.04-1.57.71-3.41,1.06-5.52,1.06Z"/>
    <rect class="cls-1" x="47.7" y="42.6" width="4.94" height="35.8"/>
  </g>
</svg>