<?xml version="1.0" encoding="UTF-8"?>
<svg id="artwork" xmlns="http://www.w3.org/2000/svg" viewBox="0 0 100 100">
  <defs>
    <style>
      .cls-1 {
        fill: #474747;
      }

      .cls-1, .cls-2, .cls-3, .cls-4, .cls-5 {
        stroke-width: 0px;
      }

      .cls-2 {
        fill: #ebebeb;
      }

      .cls-3 {
        fill: #ff9fe6;
      }

      .cls-4 {
        fill: #ff3000;
      }

      .cls-6 {
        stroke: #66d0ff;
      }

      .cls-6, .cls-7 {
        fill: none;
        stroke-linecap: round;
        stroke-miterlimit: 10;
        stroke-width: 4px;
      }

      .cls-5 {
        fill: #ffcd4e;
      }

      .cls-7 {
        stroke: #ff9fe6;
      }
    </style>
  </defs>
  <rect class="cls-1" x="18" y="10" width="64" height="80" rx="10" ry="10"/>
  <path class="cls-3" d="M61,13c0,6.08-4.92,11-11,11s-11-4.92-11-11"/>
  <path class="cls-4" d="M76,14c1.1,0,2,.9,2,2v68c0,1.1-.9,2-2,2H24c-1.1,0-2-.9-2-2V16c0-1.1.9-2,2-2h52M76,10H24c-3.31,0-6,2.69-6,6v68c0,3.31,2.69,6,6,6h52c3.31,0,6-2.69,6-6V16c0-3.31-2.69-6-6-6h0Z"/>
  <circle class="cls-2" cx="56" cy="43" r="5"/>
  <path class="cls-5" d="M30.69,72h0c-2.18,0-4.19,1.46-4.6,3.59-.56,2.88,1.63,5.41,4.41,5.41h14.41c1.15,0,2.09-.93,2.09-2.09h0c0-.85-.52-1.62-1.31-1.94l-10.18-4.05c-1.53-.61-3.16-.92-4.81-.92Z"/>
  <path class="cls-5" d="M69.31,72h0c2.18,0,4.19,1.46,4.6,3.59.56,2.88-1.63,5.41-4.41,5.41h-14.41c-1.15,0-2.09-.93-2.09-2.09h0c0-.85.52-1.62,1.31-1.94l10.18-4.05c1.53-.61,3.16-.92,4.81-.92Z"/>
  <path class="cls-7" d="M41,68l-9.41-4.34c-2.19-1.01-3.59-3.2-3.59-5.61v-16.05"/>
  <path class="cls-7" d="M59,68l9.41-4.34c2.19-1.01,3.59-3.2,3.59-5.61v-16.05"/>
  <line class="cls-6" x1="35" y1="54" x2="44" y2="59"/>
  <line class="cls-6" x1="65" y1="54" x2="56" y2="59"/>
  <path class="cls-5" d="M39.08,35.97c-3.79-.55-8.12-1.16-10.72-1.54-1.36-.19-2.36-1.36-2.36-2.73v-10.27c0-2.52,3.1-3.72,4.8-1.85l10.72,11.8c1.74,1.91.13,4.95-2.43,4.58Z"/>
  <path class="cls-5" d="M60.92,35.97c3.79-.55,8.12-1.16,10.72-1.54,1.36-.19,2.36-1.36,2.36-2.73v-10.27c0-2.52-3.1-3.72-4.8-1.85l-10.72,11.8c-1.74,1.91-.13,4.95,2.43,4.58Z"/>
</svg>