<?xml version="1.0" encoding="UTF-8"?>
<svg id="artwork" xmlns="http://www.w3.org/2000/svg" xmlns:xlink="http://www.w3.org/1999/xlink" viewBox="0 0 100 100">
  <defs>
    <style>
      .cls-1 {
        fill: #ebebeb;
      }

      .cls-1, .cls-2, .cls-3, .cls-4, .cls-5 {
        stroke-width: 0px;
      }

      .cls-6 {
        clip-path: url(#clippath);
      }

      .cls-2 {
        fill: none;
      }

      .cls-3 {
        fill: #f94239;
      }

      .cls-4 {
        fill: #66d0ff;
      }

      .cls-5 {
        fill: #fff;
      }
    </style>
    <clipPath id="clippath">
      <path class="cls-2" d="M66.02,27.61l.96-5.44,1.91.34.67-3.82-1.91-.34-19.11-3.37-1.91-.34-.67,3.82,1.91.34-.96,5.44c-6.29,2.3-11.22,7.78-12.47,14.85l-7.24,41.08c-.93,5.28,2.59,10.31,7.87,11.24l19.11,3.37c5.28.93,10.31-2.59,11.24-7.87l7.24-41.08c1.25-7.07-1.52-13.9-6.64-18.21Z"/>
    </clipPath>
  </defs>
  <rect class="cls-4" x="47.3" y="7.03" width="23.28" height="9.7" transform="translate(2.96 -10.05) rotate(10)"/>
  <g class="cls-6">
    <rect class="cls-1" x="33.25" y="10.7" width="45.59" height="40.74" transform="translate(6.25 -9.26) rotate(10)"/>
    <rect class="cls-4" x="27.69" y="30.59" width="45.59" height="64.03" transform="translate(11.64 -7.82) rotate(10)"/>
    <rect class="cls-3" x="28.41" y="43.26" width="46.56" height="19.4" transform="translate(9.98 -8.17) rotate(10)"/>
    <g>
      <path class="cls-5" d="M35.79,53.67l-1.95-.34.22-1.23c-.5-.09-.95-.18-1.4-.24-.1-.01-.23.07-.33.13-1.21.79-2.47.92-3.74.22-1.26-.7-1.88-1.81-1.79-3.27.13-2.09,1.92-3.26,3.49-3.22,1.22.03,2.18.55,2.89,1.54.09.12.25.23.39.26.39.1.8.15,1.21.22.06-.17.11-.33.18-.48.21-.45.7-.69,1.14-.57.5.13.82.59.73,1.12-.33,1.94-.68,3.87-1.03,5.86ZM29.98,50.74c.86.15,1.69-.41,1.85-1.25.16-.83-.43-1.69-1.27-1.85-.88-.17-1.72.41-1.86,1.28-.15.87.41,1.66,1.28,1.82ZM34.32,50.38l.16-.91-.72-.13-.16.91.72.13Z"/>
      <path class="cls-5" d="M54.59,56.99c-.64-.11-1.23-.22-1.9-.34.11-.64.22-1.27.33-1.9.09-.5.04-.58-.46-.57-.12,0-.28.14-.36.26-.8,1.18-2.25,1.79-3.64,1.5-1.4-.29-2.53-1.44-2.74-2.86-.34-2.24,1.45-4.11,3.61-4,1.68.09,3.01,1.34,3.25,2.79.06.39.32.4.56.38.11-.01.24-.25.28-.4.1-.39.14-.8.24-1.2.11-.44.58-.73,1.04-.67.46.06.91.51.84.95-.33,2.01-.7,4.01-1.06,6.06ZM50.82,52.81c.15-.88-.41-1.68-1.3-1.83-.85-.14-1.67.43-1.82,1.28-.15.88.42,1.67,1.31,1.83.87.15,1.65-.41,1.8-1.28Z"/>
      <path class="cls-5" d="M60.9,56.08l-.34,1.95c-.12-.01-.24-.02-.36-.04-1.14-.2-2.27-.39-3.41-.6-.99-.18-1.48-.89-1.31-1.89.21-1.22.43-2.44.64-3.65.16-.89.75-1.43,1.65-1.31,1.32.17,2.63.45,3.97.68l-.34,1.91c-.17-.01-.32-.02-.54-.04-.07.4-.14.79-.21,1.19-.07.37-.13.75-.2,1.12-.07.36-.22.75.44.67ZM59.13,52.77c-.26-.05-.47-.14-.66-.1-.18.04-.45.19-.49.34-.17.69-.29,1.4-.37,2.11-.02.14.15.37.29.43.21.1.48.1.72.14l.52-2.93Z"/>
      <path class="cls-5" d="M65.81,58.96l-1.88-.33c.08-.45.15-.87.23-1.29.17-.94.33-1.88.5-2.82.02-.11.08-.25.04-.33-.09-.18-.23-.33-.36-.5-.13.13-.36.25-.39.41-.26,1.35-.49,2.71-.73,4.07-.02.1-.03.19-.06.32-.64-.11-1.27-.22-1.93-.34.01-.12.02-.24.04-.36.24-1.38.48-2.77.73-4.15.2-1.14,1.2-1.95,2.32-1.91,1.26.05,2.24.91,2.37,2.08.02.18,0,.37-.04.54-.25,1.44-.5,2.88-.75,4.32-.02.09-.05.18-.09.29Z"/>
      <path class="cls-5" d="M41.7,54.72c-.66-.12-1.28-.23-1.95-.34.06-.32.11-.64.17-.95.19-1.08.38-2.16.57-3.24.1-.57.02-.7-.55-.8-.58-.1-1.17-.2-1.75-.31-.6-.11-.94-.54-.87-1.09.06-.53.48-.95,1.05-.86,1.13.16,2.25.37,3.35.64.64.16,1.04.86.94,1.47-.3,1.82-.63,3.63-.96,5.49Z"/>
      <path class="cls-5" d="M42.32,54.81c.14-.81.28-1.59.42-2.38.2-1.15.4-2.3.61-3.44.1-.54.6-.9,1.13-.82.53.08.91.6.82,1.14-.33,1.94-.68,3.87-1.03,5.84-.63-.11-1.26-.22-1.95-.34Z"/>
      <path class="cls-5" d="M66.6,58.19c.1-.59.56-.91,1.15-.8.56.1.9.58.81,1.13-.09.56-.62.93-1.17.82-.54-.11-.88-.6-.79-1.14Z"/>
    </g>
  </g>
</svg>