<?xml version="1.0" encoding="UTF-8"?>
<svg id="artwork" xmlns="http://www.w3.org/2000/svg" viewBox="0 0 100 100">
  <defs>
    <style>
      .cls-1 {
        fill: #ebebeb;
      }

      .cls-1, .cls-2 {
        stroke-width: 0px;
      }

      .cls-3 {
        fill: none;
        stroke: #ebebeb;
        stroke-linecap: round;
        stroke-miterlimit: 10;
        stroke-width: 2px;
      }

      .cls-2 {
        fill: #dcdcdc;
      }
    </style>
  </defs>
  <rect class="cls-1" x="21" y="30" width="55" height="40"/>
  <ellipse class="cls-1" cx="75" cy="50" rx="10" ry="20"/>
  <path class="cls-1" d="M30,62h61c2.21,0,4,1.79,4,4h0c0,2.21-1.79,4-4,4H30v-8h0Z"/>
  <path class="cls-2" d="M21,62h17c2.21,0,4,1.79,4,4h0c0,2.21-1.79,4-4,4h-17v-8h0Z"/>
  <ellipse class="cls-2" cx="20" cy="50" rx="10" ry="20"/>
  <ellipse class="cls-3" cx="20" cy="50" rx="3.5" ry="8.46"/>
  <line class="cls-3" x1="70.58" y1="32.06" x2="68" y2="25.63"/>
  <line class="cls-3" x1="72.18" y1="32.06" x2="73.97" y2="26.97"/>
</svg>