<?xml version="1.0" encoding="UTF-8"?>
<svg id="artwork" xmlns="http://www.w3.org/2000/svg" viewBox="0 0 100 100">
  <defs>
    <style>
      .cls-1 {
        fill: #ffb901;
      }

      .cls-1, .cls-2, .cls-3, .cls-4 {
        stroke-width: 0px;
      }

      .cls-2 {
        fill: #474747;
      }

      .cls-3 {
        fill: #ebebeb;
      }

      .cls-4 {
        fill: #ffcd4e;
      }
    </style>
  </defs>
  <rect class="cls-2" x="20" y="10" width="14" height="66" rx="4" ry="4"/>
  <rect class="cls-2" x="66" y="10" width="14" height="66" rx="4" ry="4"/>
  <path class="cls-2" d="M42,17v-2c0-4.42,3.58-8,8-8h0c4.42,0,8,3.58,8,8v2"/>
  <path class="cls-4" d="M50,14h0c16.56,0,30,13.44,30,30v31c0,8.28-6.72,15-15,15h-30c-8.28,0-15-6.72-15-15v-31c0-16.56,13.44-30,30-30Z"/>
  <rect class="cls-1" x="30" y="50" width="40" height="30" rx="6" ry="6"/>
  <rect class="cls-2" x="36" y="58" width="28" height="2"/>
  <rect class="cls-3" x="43" y="34" width="14" height="4"/>
  <rect class="cls-3" x="34" y="62" width="8" height="4" transform="translate(102 26) rotate(90)"/>
</svg>