<?xml version="1.0" encoding="UTF-8"?>
<svg id="artwork" xmlns="http://www.w3.org/2000/svg" viewBox="0 0 100 100">
  <defs>
    <style>
      .cls-1 {
        fill: none;
        stroke: #b21d00;
        stroke-linecap: round;
        stroke-miterlimit: 10;
        stroke-width: 4px;
      }

      .cls-2 {
        fill: #f94239;
      }

      .cls-2, .cls-3 {
        stroke-width: 0px;
      }

      .cls-3 {
        fill: #fff;
      }
    </style>
  </defs>
  <polygon class="cls-2" points="82 90 18 90 22 26 78 26 82 90"/>
  <path class="cls-1" d="M38,33.53v-14.53c0-6.63,5.37-12,12-12h0c6.63,0,12,5.37,12,12v14.53"/>
  <g>
    <path class="cls-3" d="M37.29,62.72h-2.15v-1.36c-.55,0-1.05-.01-1.55,0-.11,0-.24.12-.33.2-1.14,1.08-2.47,1.45-3.96.94-1.48-.51-2.36-1.59-2.54-3.16-.26-2.26,1.44-3.85,3.12-4.1,1.31-.2,2.43.18,3.39,1.1.12.11.31.19.47.21.44.03.88,0,1.34,0,.03-.2.05-.38.1-.55.13-.52.62-.87,1.11-.83.56.05.99.48.99,1.06,0,2.14,0,4.27,0,6.46ZM30.51,60.68c.95,0,1.73-.76,1.74-1.69.01-.92-.78-1.73-1.71-1.74-.98-.01-1.76.76-1.75,1.72,0,.96.76,1.7,1.72,1.71ZM35.09,59.48v-1h-.79v1h.79Z"/>
    <path class="cls-3" d="M58.03,62.73h-2.1c0-.7,0-1.4,0-2.09,0-.55-.07-.63-.6-.53-.13.02-.27.2-.33.35-.64,1.42-2.07,2.34-3.61,2.29-1.56-.05-2.98-1.06-3.48-2.54-.78-2.33.77-4.67,3.11-4.96,1.81-.22,3.48.87,4.01,2.37.14.41.42.37.67.3.12-.03.21-.31.23-.49.04-.44,0-.89.03-1.33.03-.49.48-.89.99-.91.51-.02,1.07.38,1.08.86.02,2.21,0,4.42,0,6.68ZM53.21,58.96c0-.97-.76-1.72-1.74-1.71-.94,0-1.7.78-1.7,1.72,0,.97.76,1.71,1.75,1.71.95,0,1.69-.75,1.69-1.71Z"/>
    <path class="cls-3" d="M64.62,60.56v2.15c-.13,0-.26.03-.39.03-1.25,0-2.51,0-3.76,0-1.1,0-1.75-.67-1.75-1.78,0-1.34,0-2.69,0-4.03,0-.99.54-1.67,1.52-1.71,1.45-.07,2.9-.02,4.38-.02v2.11c-.18.02-.34.04-.59.06,0,.44,0,.88,0,1.31,0,.41,0,.82,0,1.24,0,.4-.09.85.59.63ZM62.09,57.35c-.28,0-.53-.06-.73.02-.19.08-.45.29-.46.45-.05.77-.04,1.55,0,2.33,0,.15.23.36.39.41.25.07.53.02.8.02v-3.23Z"/>
    <path class="cls-3" d="M70.41,62.72h-2.07c0-.49,0-.96,0-1.43,0-1.04,0-2.08,0-3.12,0-.12.04-.28-.02-.36-.13-.18-.31-.31-.48-.46-.12.17-.34.34-.34.51-.03,1.5-.02,2.99-.02,4.49,0,.11,0,.21,0,.36h-2.13c0-.13-.03-.26-.03-.39,0-1.53,0-3.05,0-4.58,0-1.26.92-2.32,2.12-2.48,1.36-.19,2.57.55,2.92,1.78.05.19.06.39.06.59,0,1.59,0,3.18,0,4.76,0,.1-.02.21-.04.33Z"/>
    <path class="cls-3" d="M43.8,62.73h-2.16c0-.36,0-.7,0-1.05,0-1.19,0-2.38,0-3.58,0-.63-.12-.76-.74-.76-.64,0-1.29,0-1.93,0-.66,0-1.1-.4-1.14-1-.04-.58.34-1.1.96-1.12,1.24-.04,2.48-.03,3.71.05.71.05,1.27.72,1.28,1.4.02,2,0,4,0,6.06Z"/>
    <path class="cls-3" d="M44.49,62.71c0-.89,0-1.76,0-2.62,0-1.27,0-2.53,0-3.8,0-.6.47-1.08,1.06-1.09.58-.01,1.09.47,1.09,1.07,0,2.14,0,4.27,0,6.45h-2.15Z"/>
    <path class="cls-3" d="M71.11,61.74c0-.65.43-1.08,1.08-1.08.61,0,1.07.45,1.08,1.05,0,.61-.49,1.11-1.1,1.1-.6-.01-1.06-.47-1.06-1.07Z"/>
  </g>
</svg>