<?xml version="1.0" encoding="UTF-8"?>
<svg id="artwork" xmlns="http://www.w3.org/2000/svg" viewBox="0 0 100 100">
  <defs>
    <style>
      .cls-1 {
        fill: #ebebeb;
      }

      .cls-1, .cls-2, .cls-3 {
        stroke-width: 0px;
      }

      .cls-2 {
        fill: #f94239;
      }

      .cls-3 {
        fill: #b21d00;
      }
    </style>
  </defs>
  <rect class="cls-2" x="47.96" y="60.31" width="44.9" height="20.31" rx="9.5" ry="9.5" transform="translate(-29.21 70.43) rotate(-45)"/>
  <rect class="cls-2" x="35.24" y="49.73" width="49.18" height="20.31" rx="9.5" ry="9.5" transform="translate(-24.82 59.85) rotate(-45)"/>
  <rect class="cls-2" x="21.68" y="39.9" width="56.65" height="20.31" rx="9.5" ry="9.5" transform="translate(-20.75 50.02) rotate(-45)"/>
  <rect class="cls-2" x="9.77" y="29.4" width="59.47" height="20.31" rx="9.5" ry="9.5" transform="translate(-16.4 39.52) rotate(-45)"/>
  <path class="cls-2" d="M56.09,17.6l-.04-.05h0c-10.67-10.26-27.65-10.14-38.17.38-10.52,10.52-10.64,27.49-.37,38.17h0s.05.05.05.05c.11.11.21.23.32.34,1.93,1.93,31.84,22.19,45.99,31.74,4.24,2.86,9.92,2.32,13.54-1.3l9.47-9.47c3.62-3.62,4.17-9.29,1.3-13.54-9.55-14.15-29.81-44.06-31.74-45.99-.11-.11-.23-.21-.34-.32Z"/>
  <circle class="cls-3" cx="35.26" cy="35.32" r="14.97"/>
  <g>
    <path class="cls-2" d="M57.63,55.21c-6.42,0-11.63-7.18-11.63-16.04s5.21-16.04,11.63-16.04v32.07Z"/>
    <path class="cls-2" d="M55.16,57.73c0-6.48-7.18-11.73-16.04-11.73-8.86,0-16.04,5.25-16.04,11.73h32.07Z"/>
  </g>
  <rect class="cls-1" x="48.52" y="42.96" width="2.9" height="14.14" rx=".5" ry=".5" transform="translate(-20.74 49.99) rotate(-45)"/>
</svg>