<?xml version="1.0" encoding="UTF-8"?>
<svg id="artwork" xmlns="http://www.w3.org/2000/svg" viewBox="0 0 100 100">
  <defs>
    <style>
      .cls-1 {
        font-family: BebasNeue-Regular, 'Bebas Neue';
        font-size: 13px;
      }

      .cls-1, .cls-2 {
        fill: #ffcd4e;
      }

      .cls-3 {
        fill: #ffb901;
      }

      .cls-3, .cls-4, .cls-5, .cls-6, .cls-7, .cls-8, .cls-2 {
        stroke-width: 0px;
      }

      .cls-4 {
        fill: #474747;
      }

      .cls-5 {
        fill: #ebebeb;
      }

      .cls-6 {
        fill: #dcdcdc;
      }

      .cls-7 {
        fill: #ff3000;
      }

      .cls-9 {
        letter-spacing: 0em;
      }

      .cls-10 {
        letter-spacing: 0em;
      }

      .cls-8 {
        fill: #ba5435;
      }
    </style>
  </defs>
  <circle class="cls-2" cx="46" cy="46" r="36"/>
  <circle class="cls-8" cx="46" cy="46" r="30"/>
  <rect class="cls-2" x="10" y="45" width="72" height="33"/>
  <rect class="cls-2" x="10" y="78" width="72" height="12"/>
  <rect class="cls-3" x="10" y="73" width="72" height="8"/>
  <rect class="cls-2" x="14" y="36" width="64" height="9"/>
  <rect class="cls-5" x="16" y="43" width="20" height="26"/>
  <rect class="cls-5" x="56" y="43" width="20" height="26"/>
  <rect class="cls-6" x="36" y="43" width="20" height="26"/>
  <rect class="cls-2" x="82" y="59" width="8" height="14"/>
  <rect class="cls-2" x="86" y="28" width="4" height="31"/>
  <circle class="cls-7" cx="88" cy="28" r="6"/>
  <path class="cls-4" d="M42.6,49v.83s.03.01.05.02c.18-.16.36-.3.57-.42.46-.25.96-.38,1.48-.4.98-.04,1.93.18,2.85.51.53.19,1.04.42,1.59.55.7.16,1.28-.04,1.73-.6.03-.04.07-.07.13-.07.82,0,1.65,0,2.51,0-.1.27-.19.49-.27.72-1.11,3.02-2.14,6.06-2.95,9.18-.28,1.1-.53,2.22-.68,3.35-.05.4-.1.8-.09,1.21,0,.1-.03.13-.13.13-1.74,0-3.48,0-5.21,0-.11,0-.14-.03-.14-.14.03-.63.18-1.24.37-1.84.45-1.37,1.09-2.66,1.79-3.92.96-1.73,2.04-3.38,3.2-4.99.03-.04.06-.09.1-.15-.21-.02-.4-.03-.59-.06-.57-.08-1.11-.27-1.65-.45-.78-.26-1.57-.45-2.4-.45-1,0-1.76.54-2.08,1.49-.05.15-.11.19-.26.19-.55,0-1.1,0-1.65,0-.11,0-.14-.03-.13-.14.04-1.34.08-2.67.12-4.01,0-.18.01-.36.02-.54h1.73Z"/>
  <path class="cls-4" d="M22,49v.83s.03.01.05.02c.18-.16.36-.3.57-.42.46-.25.96-.38,1.48-.4.98-.04,1.93.18,2.85.51.53.19,1.04.42,1.59.55.7.16,1.28-.04,1.73-.6.03-.04.07-.07.13-.07.82,0,1.65,0,2.51,0-.1.27-.19.49-.27.72-1.11,3.02-2.14,6.06-2.95,9.18-.28,1.1-.53,2.22-.68,3.35-.05.4-.1.8-.09,1.21,0,.1-.03.13-.13.13-1.74,0-3.48,0-5.21,0-.11,0-.14-.03-.14-.14.03-.63.18-1.24.37-1.84.45-1.37,1.09-2.66,1.79-3.92.96-1.73,2.04-3.38,3.2-4.99.03-.04.06-.09.1-.15-.21-.02-.4-.03-.59-.06-.57-.08-1.11-.27-1.65-.45-.78-.26-1.57-.45-2.4-.45-1,0-1.76.54-2.08,1.49-.05.15-.11.19-.26.19-.55,0-1.1,0-1.65,0-.11,0-.14-.03-.13-.14.04-1.34.08-2.67.12-4.01,0-.18.01-.36.02-.54h1.73Z"/>
  <path class="cls-4" d="M62,49v.83s.03.01.05.02c.18-.16.36-.3.57-.42.46-.25.96-.38,1.48-.4.98-.04,1.93.18,2.85.51.53.19,1.04.42,1.59.55.7.16,1.28-.04,1.73-.6.03-.04.07-.07.13-.07.82,0,1.65,0,2.51,0-.1.27-.19.49-.27.72-1.11,3.02-2.14,6.06-2.95,9.18-.28,1.1-.53,2.22-.68,3.35-.05.4-.1.8-.09,1.21,0,.1-.03.13-.13.13-1.74,0-3.48,0-5.21,0-.11,0-.14-.03-.14-.14.03-.63.18-1.24.37-1.84.45-1.37,1.09-2.66,1.79-3.92.96-1.73,2.04-3.38,3.2-4.99.03-.04.06-.09.1-.15-.21-.02-.4-.03-.59-.06-.57-.08-1.11-.27-1.65-.45-.78-.26-1.57-.45-2.4-.45-1,0-1.76.54-2.08,1.49-.05.15-.11.19-.26.19-.55,0-1.1,0-1.65,0-.11,0-.14-.03-.13-.14.04-1.34.08-2.67.12-4.01,0-.18.01-.36.02-.54h1.73Z"/>
  <text class="cls-1" transform="translate(29.02 33.46)"><tspan class="cls-10" x="0" y="0">JA</tspan><tspan x="8.61" y="0">CKP</tspan><tspan class="cls-9" x="23.98" y="0">O</tspan><tspan x="29.13" y="0">T</tspan></text>
</svg>