<?xml version="1.0" encoding="UTF-8"?>
<svg id="artwork" xmlns="http://www.w3.org/2000/svg" viewBox="0 0 100 100">
  <defs>
    <style>
      .cls-1 {
        fill: #ebebeb;
      }

      .cls-1, .cls-2, .cls-3, .cls-4 {
        stroke-width: 0px;
      }

      .cls-2 {
        fill: #dcdcdc;
      }

      .cls-5 {
        fill: none;
        stroke: #bbb;
        stroke-miterlimit: 10;
      }

      .cls-3 {
        fill: #f94239;
      }

      .cls-4 {
        fill: #b21d00;
      }
    </style>
  </defs>
  <polygon class="cls-1" points="10 73 90 80 90 27 10 27 10 73"/>
  <path class="cls-2" d="M28,50h50c6.62,0,12,5.38,12,12h0c0,6.62-5.38,12-12,12H28v-24h0Z"/>
  <path class="cls-2" d="M28,74h56c3.31,0,6,2.69,6,6h0c0,3.31-2.69,6-6,6H28v-12h0Z"/>
  <circle class="cls-2" cx="28" cy="68" r="18"/>
  <circle class="cls-1" cx="23" cy="27" r="13"/>
  <path class="cls-1" d="M23,14h55c6.62,0,12,5.38,12,12v4H23V14h0Z"/>
  <path class="cls-5" d="M72,62H28c-3.31,0-6,2.69-6,6h0c0,3.31,2.69,6,6,6h44"/>
  <rect class="cls-3" x="63" y="14" width="10" height="52"/>
  <rect class="cls-4" x="63" y="50" width="10" height="36"/>
</svg>