<?xml version="1.0" encoding="UTF-8"?>
<svg id="artwork" xmlns="http://www.w3.org/2000/svg" viewBox="0 0 100 100">
  <defs>
    <style>
      .cls-1 {
        fill: #ebebeb;
      }

      .cls-1, .cls-2, .cls-3 {
        stroke-width: 0px;
      }

      .cls-2 {
        fill: #999;
      }

      .cls-3 {
        fill: #ff3000;
      }
    </style>
  </defs>
  <g>
    <rect class="cls-1" x="14.61" y="24.61" width="32" height="50" rx="10" ry="10" transform="translate(9.08 -4.56) rotate(10)"/>
    <rect class="cls-2" x="26.08" y="11.59" width="20" height="14" transform="translate(3.78 -5.98) rotate(10)"/>
    <circle class="cls-3" cx="31.22" cy="46.16" r="8"/>
    <path class="cls-1" d="M34,47.67c-.29,1.63-1.84,2.72-3.48,2.43s-2.72-1.84-2.43-3.48c.52-2.95,4-5.39,4-5.39,0,0,2.43,3.48,1.91,6.43Z"/>
  </g>
  <g>
    <rect class="cls-1" x="52.83" y="39.61" width="32" height="50" rx="10" ry="10" transform="translate(-10.17 12.93) rotate(-10)"/>
    <rect class="cls-2" x="53.36" y="26.59" width="20" height="14" transform="translate(-4.87 11.51) rotate(-10)"/>
    <circle class="cls-3" cx="68.23" cy="61.16" r="8"/>
    <path class="cls-1" d="M71.35,61.63c.29,1.63-.8,3.19-2.43,3.48s-3.19-.8-3.48-2.43c-.52-2.95,1.91-6.43,1.91-6.43,0,0,3.48,2.43,4,5.39Z"/>
  </g>
</svg>