<?xml version="1.0" encoding="UTF-8"?>
<svg id="artwork" xmlns="http://www.w3.org/2000/svg" viewBox="0 0 100 100">
  <defs>
    <style>
      .cls-1 {
        fill: #f5f5f5;
      }

      .cls-1, .cls-2, .cls-3, .cls-4 {
        stroke-width: 0px;
      }

      .cls-2 {
        fill: #474747;
      }

      .cls-3 {
        fill: #bbb;
      }

      .cls-4 {
        fill: #dcdcdc;
      }

      .cls-5 {
        fill: none;
        stroke: #474747;
        stroke-linecap: round;
        stroke-miterlimit: 10;
        stroke-width: 2px;
      }
    </style>
  </defs>
  <rect class="cls-3" x="72" y="44" width="6" height="12"/>
  <rect class="cls-2" x="35" y="10" width="30" height="80"/>
  <g>
    <path class="cls-1" d="M50,72.5c-12.41,0-22.5-10.09-22.5-22.5s10.09-22.5,22.5-22.5,22.5,10.09,22.5,22.5-10.09,22.5-22.5,22.5Z"/>
    <path class="cls-4" d="M50,30c11.03,0,20,8.97,20,20s-8.97,20-20,20-20-8.97-20-20,8.97-20,20-20M50,25c-13.81,0-25,11.19-25,25s11.19,25,25,25,25-11.19,25-25-11.19-25-25-25h0Z"/>
  </g>
  <circle class="cls-2" cx="50" cy="50" r="4"/>
  <polyline class="cls-5" points="60.5 39.5 50 50 42.5 42.5"/>
</svg>