<?xml version="1.0" encoding="UTF-8"?>
<svg id="artwork" xmlns="http://www.w3.org/2000/svg" viewBox="0 0 100 100">
  <defs>
    <style>
      .cls-1 {
        fill: #ebebeb;
      }

      .cls-1, .cls-2 {
        stroke-width: 0px;
      }

      .cls-2 {
        fill: #004b8e;
      }
    </style>
  </defs>
  <rect class="cls-1" x="15" y="15" width="70" height="70" rx="5" ry="5"/>
  <path class="cls-2" d="M77,23v54H23V23h54M77,20H23c-1.66,0-3,1.34-3,3v54c0,1.66,1.34,3,3,3h54c1.66,0,3-1.34,3-3V23c0-1.66-1.34-3-3-3h0Z"/>
  <circle class="cls-2" cx="50" cy="50" r="3"/>
  <path class="cls-2" d="M60.5,31.28c-2.05-.65-4.55-.22-6.72,1.23-.52-2.5-1.93-4.54-3.78-5.51-1.85.97-3.26,3.01-3.78,5.51-2.17-1.45-4.67-1.88-6.72-1.23-.34,1.07-.39,2.27-.15,3.47.01.04.02.09.03.13.36,1.64,1.24,3.3,2.63,4.69.05.05.09.09.14.13.06.07.14.15.21.21,1.98,1.92,4.67,3.09,7.64,3.09s5.66-1.17,7.64-3.09c.07-.06.15-.14.21-.21.05-.04.09-.08.14-.13,1.39-1.39,2.27-3.05,2.63-4.69.01-.04.02-.09.03-.13.24-1.2.19-2.4-.15-3.47Z"/>
  <path class="cls-2" d="M39.5,68.72c2.05.65,4.55.22,6.72-1.23.52,2.5,1.93,4.54,3.78,5.51,1.85-.97,3.26-3.01,3.78-5.51,2.17,1.45,4.67,1.88,6.72,1.23.34-1.07.39-2.27.15-3.47-.01-.04-.02-.09-.03-.13-.36-1.64-1.24-3.3-2.63-4.69-.05-.05-.09-.09-.14-.13-.06-.07-.14-.15-.21-.21-1.98-1.92-4.67-3.09-7.64-3.09s-5.66,1.17-7.64,3.09c-.07.06-.15.14-.21.21-.05.04-.09.08-.14.13-1.39,1.39-2.27,3.05-2.63,4.69-.01.04-.02.09-.03.13-.24,1.2-.19,2.4.15,3.47Z"/>
  <path class="cls-2" d="M68.72,60.5c.65-2.05.22-4.55-1.23-6.72,2.5-.52,4.54-1.93,5.51-3.78-.97-1.85-3.01-3.26-5.51-3.78,1.45-2.17,1.88-4.67,1.23-6.72-1.07-.34-2.27-.39-3.47-.15-.04.01-.09.02-.13.03-1.64.36-3.3,1.24-4.69,2.63-.05.05-.09.09-.13.14-.07.06-.15.14-.21.21-1.92,1.98-3.09,4.67-3.09,7.64s1.17,5.66,3.09,7.64c.06.07.14.15.21.21.04.05.08.09.13.14,1.39,1.39,3.05,2.27,4.69,2.63.04.01.09.02.13.03,1.2.24,2.4.19,3.47-.15Z"/>
  <path class="cls-2" d="M31.28,39.5c-.65,2.05-.22,4.55,1.23,6.72-2.5.52-4.54,1.93-5.51,3.78.97,1.85,3.01,3.26,5.51,3.78-1.45,2.17-1.88,4.67-1.23,6.72,1.07.34,2.27.39,3.47.15.04-.01.09-.02.13-.03,1.64-.36,3.3-1.24,4.69-2.63.05-.05.09-.09.13-.14.07-.06.15-.14.21-.21,1.92-1.98,3.09-4.67,3.09-7.64s-1.17-5.66-3.09-7.64c-.06-.07-.14-.15-.21-.21-.04-.05-.08-.09-.13-.14-1.39-1.39-3.05-2.27-4.69-2.63-.04-.01-.09-.02-.13-.03-1.2-.24-2.4-.19-3.47.15Z"/>
  <path class="cls-2" d="M30,27c-1.66,0-3,1.34-3,3s1.34,3,3,3,3-1.34,3-3-1.34-3-3-3h0Z"/>
  <path class="cls-2" d="M70,27c-1.66,0-3,1.34-3,3s1.34,3,3,3,3-1.34,3-3-1.34-3-3-3h0Z"/>
  <path class="cls-2" d="M30,68c-1.66,0-3,1.34-3,3s1.34,3,3,3,3-1.34,3-3-1.34-3-3-3h0Z"/>
  <path class="cls-2" d="M70,68c-1.66,0-3,1.34-3,3s1.34,3,3,3,3-1.34,3-3-1.34-3-3-3h0Z"/>
</svg>