<?xml version="1.0" encoding="UTF-8"?>
<svg id="artwork" xmlns="http://www.w3.org/2000/svg" viewBox="0 0 100 100">
  <defs>
    <style>
      .cls-1 {
        fill: #ebebeb;
      }

      .cls-1, .cls-2, .cls-3, .cls-4 {
        stroke-width: 0px;
      }

      .cls-2 {
        fill: #ba5435;
      }

      .cls-3 {
        fill: #ffcd4e;
      }

      .cls-4 {
        fill: #ff7847;
      }
    </style>
  </defs>
  <path class="cls-1" d="M28.85,7.91c1.6,0,3.08.94,3.75,2.39.96,2.07.07,4.53-2,5.5-.55.26-1.14.39-1.74.39-1.6,0-3.08-.94-3.75-2.39-.47-1-.52-2.12-.14-3.16s1.14-1.87,2.14-2.33c.55-.26,1.14-.39,1.74-.39M28.85,4.91c-1.01,0-2.04.22-3.01.67-3.57,1.67-5.12,5.91-3.45,9.48,1.21,2.6,3.78,4.12,6.47,4.12,1.01,0,2.04-.22,3.01-.67,3.57-1.67,5.12-5.91,3.45-9.48-1.21-2.6-3.78-4.12-6.47-4.12h0Z"/>
  <path class="cls-1" d="M30.75,12.64h.08c1.1,0,2,.9,2,2v4.14c0,.55-.45,1-1,1h-2.08c-.55,0-1-.45-1-1v-4.14c0-1.1.9-2,2-2Z" transform="translate(-3.96 14.53) rotate(-25)"/>
  <path class="cls-2" d="M55.75,62.5l-5.54,2.59L29.03,22.09c-.95-2.04-.07-4.47,1.97-5.42h0c2.04-.95,4.47-.07,5.42,1.97l19.33,43.86Z"/>
  <path class="cls-3" d="M48.67,54.55c-8.17,3.81-11.7,13.51-7.89,21.68l9.97,18.97,27.72-12.93-8.12-19.84c-3.81-8.17-13.51-11.7-21.68-7.89Z"/>
  <polygon class="cls-3" points="53.85 53.26 44.35 57.69 40.11 50.67 51.2 45.5 53.85 53.26"/>
  <rect class="cls-4" x="41.53" y="52.51" width="14.27" height="4.08" rx="2" ry="2" transform="translate(-18.49 25.68) rotate(-25)"/>
</svg>