<?xml version="1.0" encoding="UTF-8"?>
<svg id="artwork" xmlns="http://www.w3.org/2000/svg" viewBox="0 0 100 100">
  <defs>
    <style>
      .cls-1 {
        fill: #b75d21;
      }

      .cls-1, .cls-2, .cls-3, .cls-4 {
        stroke-width: 0px;
      }

      .cls-2 {
        fill: #f94239;
      }

      .cls-3 {
        fill: #007635;
      }

      .cls-4 {
        fill: #ffcd4e;
      }
    </style>
  </defs>
  <polygon class="cls-1" points="56 90 44 90 46 75 54 75 56 90"/>
  <path class="cls-3" d="M50,26.2l-26.26,31.42c-1.09,1.3-.16,3.28,1.53,3.28h49.44c1.7,0,2.62-1.98,1.53-3.28l-26.26-31.42Z"/>
  <path class="cls-3" d="M50,40.21l-31.26,37.4c-1.09,1.3-.16,3.28,1.53,3.28h59.44c1.7,0,2.62-1.98,1.53-3.28l-31.26-37.4Z"/>
  <path class="cls-3" d="M50,16.61l-18.86,20.22c-1.19,1.28-.29,3.36,1.46,3.36h34.8c1.75,0,2.66-2.09,1.46-3.36l-18.86-20.22Z"/>
  <path class="cls-4" d="M50.88,6.69l1.73,3.22,3.6.65c.78.14,1.1,1.1.54,1.68l-2.53,2.64.49,3.62c.11.79-.71,1.38-1.43,1.04l-3.29-1.59-3.29,1.59c-.72.35-1.53-.25-1.43-1.04l.49-3.62-2.53-2.64c-.55-.58-.24-1.53.54-1.68l3.6-.65,1.73-3.22c.38-.7,1.38-.7,1.76,0Z"/>
  <circle class="cls-2" cx="54" cy="35" r="4"/>
  <circle class="cls-2" cx="41" cy="54" r="4"/>
  <circle class="cls-2" cx="63" cy="70" r="4"/>
</svg>