<?xml version="1.0" encoding="UTF-8"?>
<svg id="artwork" xmlns="http://www.w3.org/2000/svg" viewBox="0 0 100 100">
  <defs>
    <style>
      .cls-1 {
        fill: #333;
      }

      .cls-1, .cls-2, .cls-3, .cls-4, .cls-5, .cls-6 {
        stroke-width: 0px;
      }

      .cls-2 {
        fill: #f5f5f5;
      }

      .cls-3 {
        fill: #ffeab2;
      }

      .cls-4 {
        fill: #f94239;
      }

      .cls-5, .cls-7 {
        fill: #ffcd4e;
      }

      .cls-7 {
        font-family: HiraKakuStd-W8-83pv-RKSJ-H, 'Hiragino Kaku Gothic Std';
        font-size: 19px;
      }

      .cls-6 {
        fill: #ffdb7f;
      }
    </style>
  </defs>
  <path class="cls-4" d="M90,58c0,22.09-17.91,32-40,32S10,80.09,10,58,21,10,50,10s40,25.91,40,48Z"/>
  <path class="cls-3" d="M81,45.15c0,11.6-13.88,15.85-31,15.85s-31-4.25-31-15.85,8.52-28.15,31-28.15,31,16.55,31,28.15Z"/>
  <g>
    <circle class="cls-2" cx="37" cy="39" r="7"/>
    <circle class="cls-1" cx="37" cy="39" r="5"/>
  </g>
  <g>
    <circle class="cls-2" cx="63" cy="39" r="7"/>
    <circle class="cls-1" cx="63" cy="39" r="5"/>
  </g>
  <path class="cls-1" d="M50,50c-3.11,6.81-13.2,7.24-18.22,2.44-2.46-2.75-2.44-2.55,1.07-2.75,2.43-.13,4.89-.1,7.2-.03,2.45.05,7.48.23,9.94.34h0Z"/>
  <path class="cls-1" d="M28.15,26.19c5.25-5.34,14.88-2.29,17.95,3.94,1.37,3.43,1.42,3.23-1.95,2.22-2.33-.71-4.63-1.58-6.78-2.43-2.28-.88-6.95-2.78-9.23-3.72h0Z"/>
  <path class="cls-1" d="M72.02,26.19c-2.29.95-6.93,2.84-9.23,3.72-2.15.86-4.45,1.73-6.78,2.43-3.33,1-3.33,1.24-1.95-2.22,3.07-6.23,12.71-9.28,17.95-3.94h0Z"/>
  <path class="cls-1" d="M70,50c-3.11,6.81-13.2,7.24-18.22,2.44-2.46-2.75-2.44-2.55,1.07-2.75,2.43-.13,4.89-.1,7.2-.03,2.45.05,7.48.23,9.94.34h0Z"/>
  <circle class="cls-6" cx="50" cy="48" r="7"/>
  <g>
    <path class="cls-5" d="M29,62c3.53,6.56,4.87,13.26,8,20-7.31-2.68-10.19-13.05-8-20h0Z"/>
    <path class="cls-5" d="M17.5,57.5c2.04,4.45,3.12,9.27,4.69,13.82.53,1.48,1.12,2.93,1.81,4.68-1.8-.5-3.35-1.69-4.54-3.11-3.32-4.29-4.29-10.41-1.96-15.39h0Z"/>
  </g>
  <g>
    <path class="cls-5" d="M71.49,62c2.17,6.99-.66,17.27-8,20,3.13-6.74,4.47-13.44,8-20h0Z"/>
    <path class="cls-5" d="M82.99,57.5c2.32,4.98,1.35,11.1-1.96,15.39-1.19,1.42-2.73,2.61-4.54,3.11.7-1.76,1.29-3.21,1.81-4.68,1.57-4.55,2.64-9.36,4.69-13.82h0Z"/>
  </g>
  <text class="cls-7" transform="translate(40.19 83.08)"><tspan x="0" y="0">福</tspan></text>
</svg>