<?xml version="1.0" encoding="UTF-8"?>
<svg id="artwork" xmlns="http://www.w3.org/2000/svg" viewBox="0 0 100 100">
  <defs>
    <style>
      .cls-1 {
        fill: #474747;
      }

      .cls-1, .cls-2, .cls-3, .cls-4 {
        stroke-width: 0px;
      }

      .cls-2, .cls-5 {
        fill: #ffb803;
      }

      .cls-3 {
        fill: #f94239;
      }

      .cls-5 {
        stroke: #ffcd4e;
        stroke-miterlimit: 10;
        stroke-width: 5px;
      }

      .cls-4 {
        fill: #ffcd4e;
      }
    </style>
  </defs>
  <circle class="cls-2" cx="50" cy="66" r="9"/>
  <path class="cls-3" d="M95,66c0-24.85-20.15-45-45-45S5,41.15,5,66h90Z"/>
  <path class="cls-5" d="M68,66c0-9.94-8.06-18-18-18s-18,8.06-18,18"/>
  <rect class="cls-4" x="33" y="62" width="35" height="4"/>
  <rect class="cls-4" x="41" y="54" width="18" height="4" transform="translate(106 6) rotate(90)"/>
  <rect class="cls-4" x="47" y="56" width="18" height="4" transform="translate(136.61 59.41) rotate(135)"/>
  <rect class="cls-4" x="35" y="56" width="18" height="4" transform="translate(53.9 -14.12) rotate(45)"/>
  <circle class="cls-1" cx="39" cy="30" r="4"/>
  <circle class="cls-1" cx="24" cy="38" r="4"/>
  <circle class="cls-1" cx="35" cy="44" r="4"/>
  <circle class="cls-1" cx="22" cy="52" r="4"/>
  <circle class="cls-1" cx="61" cy="30" r="4"/>
  <circle class="cls-1" cx="50" cy="40" r="4"/>
  <circle class="cls-1" cx="76" cy="38" r="4"/>
  <circle class="cls-1" cx="65" cy="44" r="4"/>
  <circle class="cls-1" cx="79" cy="52" r="4"/>
</svg>