<?xml version="1.0" encoding="UTF-8"?>
<svg id="artwork" xmlns="http://www.w3.org/2000/svg" viewBox="0 0 100 100">
  <defs>
    <style>
      .cls-1 {
        fill: #ffb803;
      }

      .cls-1, .cls-2 {
        stroke-width: 0px;
      }

      .cls-2 {
        fill: #ffcd4e;
      }
    </style>
  </defs>
  <circle class="cls-1" cx="50" cy="81" r="9"/>
  <path class="cls-2" d="M86,73.8c-5.24-6.47-8.1-14.54-8.1-22.87v-.93h-.03c.01-.37.03-.73.03-1.1,0-15.41-12.49-27.9-27.9-27.9s-27.9,12.49-27.9,27.9c0,.37.01.73.03,1.1h-.03v.93c0,8.33-2.86,16.4-8.1,22.87h0v7.2h72v-7.2h0Z"/>
  <rect class="cls-2" x="42" y="19" width="16" height="7"/>
  <path class="cls-2" d="M50,10c2.48,0,4.5,2.02,4.5,4.5s-2.02,4.5-4.5,4.5-4.5-2.02-4.5-4.5,2.02-4.5,4.5-4.5M50,7c-4.14,0-7.5,3.36-7.5,7.5s3.36,7.5,7.5,7.5,7.5-3.36,7.5-7.5-3.36-7.5-7.5-7.5h0Z"/>
</svg>