<?xml version="1.0" encoding="UTF-8"?>
<svg id="artwork" xmlns="http://www.w3.org/2000/svg" viewBox="0 0 100 100">
  <defs>
    <style>
      .cls-1 {
        fill: #ffb803;
      }

      .cls-1, .cls-2 {
        stroke-width: 0px;
      }

      .cls-2 {
        fill: #ffcd4e;
      }
    </style>
  </defs>
  <path class="cls-2" d="M57.05,26.26l6.67,12.43,19.38,3.5c3.92.71,5.48,5.5,2.72,8.38l-13.62,14.22,2.66,19.51c.54,3.95-3.54,6.91-7.13,5.18l-17.73-8.56-17.73,8.56c-3.59,1.73-7.67-1.23-7.13-5.18l2.66-19.51-13.62-14.22c-2.76-2.88-1.2-7.67,2.72-8.38l19.38-3.5,6.67-12.43c3.02-5.62,11.08-5.62,14.1,0Z"/>
  <path class="cls-2" d="M50,10c2.48,0,4.5,2.02,4.5,4.5s-2.02,4.5-4.5,4.5-4.5-2.02-4.5-4.5,2.02-4.5,4.5-4.5M50,7c-4.14,0-7.5,3.36-7.5,7.5s3.36,7.5,7.5,7.5,7.5-3.36,7.5-7.5-3.36-7.5-7.5-7.5h0Z"/>
  <rect class="cls-1" x="42" y="19" width="16" height="7"/>
</svg>