<?xml version="1.0" encoding="UTF-8"?>
<svg id="artwork" xmlns="http://www.w3.org/2000/svg" viewBox="0 0 100 100">
  <defs>
    <style>
      .cls-1 {
        fill: #fc9994;
      }

      .cls-1, .cls-2, .cls-3, .cls-4 {
        stroke-width: 0px;
      }

      .cls-2 {
        fill: #f94239;
      }

      .cls-3 {
        fill: #ffcd4e;
      }

      .cls-5 {
        fill: none;
        stroke: #00bf56;
        stroke-miterlimit: 10;
        stroke-width: 4px;
      }

      .cls-4 {
        fill: #00bf56;
      }
    </style>
  </defs>
  <circle class="cls-5" cx="50" cy="50" r="28"/>
  <g>
    <path class="cls-4" d="M38.24,23.63c3.76,3.76,5.5,8.61,5.02,12.77-4.16.48-9.01-1.26-12.77-5.02-3.76-3.76-5.5-8.61-5.02-12.77,4.16-.48,9.01,1.26,12.77,5.02Z"/>
    <path class="cls-4" d="M27.37,28.53c5.8,0,10.87,2.39,13.71,5.97-2.84,3.58-7.91,5.97-13.71,5.97s-10.87-2.39-13.71-5.97c2.84-3.58,7.91-5.97,13.71-5.97Z"/>
    <path class="cls-4" d="M61.76,23.63c-3.76,3.76-5.5,8.61-5.02,12.77,4.16.48,9.01-1.26,12.77-5.02,3.76-3.76,5.5-8.61,5.02-12.77-4.16-.48-9.01,1.26-12.77,5.02Z"/>
    <path class="cls-4" d="M72.63,28.53c-5.8,0-10.87,2.39-13.71,5.97,2.84,3.58,7.91,5.97,13.71,5.97s10.87-2.39,13.71-5.97c-2.84-3.58-7.91-5.97-13.71-5.97Z"/>
    <g>
      <path class="cls-4" d="M72.72,37.28c-4.1-4.1-9.38-5.99-13.91-5.47-.52,4.54,1.37,9.81,5.47,13.91,4.1,4.1,9.38,5.99,13.91,5.47.52-4.54-1.37-9.81-5.47-13.91Z"/>
      <path class="cls-4" d="M35.72,45.72c-4.1,4.1-9.38,5.99-13.91,5.47-.52-4.54,1.37-9.81,5.47-13.91,4.1-4.1,9.38-5.99,13.91-5.47.52,4.54-1.37,9.81-5.47,13.91Z"/>
    </g>
  </g>
  <g>
    <path class="cls-4" d="M61.76,76.37c-3.76-3.76-5.5-8.61-5.02-12.77,4.16-.48,9.01,1.26,12.77,5.02,3.76,3.76,5.5,8.61,5.02,12.77-4.16.48-9.01-1.26-12.77-5.02Z"/>
    <path class="cls-4" d="M72.63,71.46c-5.8,0-10.87-2.39-13.71-5.97,2.84-3.58,7.91-5.97,13.71-5.97s10.87,2.39,13.71,5.97c-2.84,3.58-7.91,5.97-13.71,5.97Z"/>
    <path class="cls-4" d="M38.24,76.37c3.76-3.76,5.5-8.61,5.02-12.77-4.16-.48-9.01,1.26-12.77,5.02s-5.5,8.61-5.02,12.77c4.16.48,9.01-1.26,12.77-5.02Z"/>
    <path class="cls-4" d="M27.37,71.46c5.8,0,10.87-2.39,13.71-5.97-2.84-3.58-7.91-5.97-13.71-5.97s-10.87,2.39-13.71,5.97c2.84,3.58,7.91,5.97,13.71,5.97Z"/>
    <g>
      <path class="cls-4" d="M72.72,63.72c-4.1,4.1-9.38,5.99-13.91,5.47-.52-4.54,1.37-9.81,5.47-13.91,4.1-4.1,9.38-5.99,13.91-5.47.52,4.54-1.37,9.81-5.47,13.91Z"/>
      <path class="cls-4" d="M35.72,55.28c-4.1-4.1-9.38-5.99-13.91-5.47-.52,4.54,1.37,9.81,5.47,13.91,4.1,4.1,9.38,5.99,13.91,5.47.52-4.54-1.37-9.81-5.47-13.91Z"/>
    </g>
  </g>
  <g>
    <path class="cls-2" d="M55.82,15.82c0,3.21-5.82,9.75-5.82,9.75,0,0-5.82-6.54-5.82-9.75s2.6-5.82,5.82-5.82,5.82,2.6,5.82,5.82Z"/>
    <path class="cls-2" d="M49.48,35.56c1.87-2.61.93-11.32.93-11.32,0,0-8.53,1.94-10.4,4.56s-1.26,6.25,1.35,8.11,6.25,1.26,8.11-1.35Z"/>
    <path class="cls-2" d="M50.93,35.56c-1.87-2.61-.93-11.32-.93-11.32,0,0,8.53,1.94,10.4,4.56s1.26,6.25-1.35,8.11-6.25,1.26-8.11-1.35Z"/>
    <path class="cls-2" d="M60.83,27.42c-3,1.16-11.2-1.9-11.2-1.9,0,0,4-7.79,7-8.95s6.36.33,7.52,3.32-.33,6.36-3.32,7.52Z"/>
    <path class="cls-2" d="M43.36,16.57c3,1.15,7.02,8.92,7.02,8.92,0,0-8.19,3.09-11.19,1.94s-4.5-4.52-3.35-7.51,4.52-4.5,7.51-3.35Z"/>
  </g>
  <g>
    <path class="cls-3" d="M84.18,55.82c-3.21,0-9.75-5.82-9.75-5.82,0,0,6.54-5.82,9.75-5.82s5.82,2.6,5.82,5.82-2.6,5.82-5.82,5.82Z"/>
    <path class="cls-3" d="M64.44,49.48c2.61,1.87,11.32.93,11.32.93,0,0-1.94-8.53-4.56-10.4s-6.25-1.26-8.11,1.35-1.26,6.25,1.35,8.11Z"/>
    <path class="cls-3" d="M64.44,50.93c2.61-1.87,11.32-.93,11.32-.93,0,0-1.94,8.53-4.56,10.4s-6.25,1.26-8.11-1.35-1.26-6.25,1.35-8.11Z"/>
    <path class="cls-3" d="M72.58,60.83c-1.16-3,1.9-11.2,1.9-11.2,0,0,7.79,4,8.95,7s-.33,6.36-3.32,7.52-6.36-.33-7.52-3.32Z"/>
    <path class="cls-3" d="M83.43,43.36c-1.15,3-8.92,7.02-8.92,7.02,0,0-3.09-8.19-1.94-11.19s4.52-4.5,7.51-3.35,4.5,4.52,3.35,7.51Z"/>
  </g>
  <g>
    <path class="cls-1" d="M32.18,55.82c-3.21,0-9.75-5.82-9.75-5.82,0,0,6.54-5.82,9.75-5.82s5.82,2.6,5.82,5.82-2.6,5.82-5.82,5.82Z"/>
    <path class="cls-1" d="M12.44,49.48c2.61,1.87,11.32.93,11.32.93,0,0-1.94-8.53-4.56-10.4s-6.25-1.26-8.11,1.35-1.26,6.25,1.35,8.11Z"/>
    <path class="cls-1" d="M12.44,50.93c2.61-1.87,11.32-.93,11.32-.93,0,0-1.94,8.53-4.56,10.4s-6.25,1.26-8.11-1.35-1.26-6.25,1.35-8.11Z"/>
    <path class="cls-1" d="M20.58,60.83c-1.16-3,1.9-11.2,1.9-11.2,0,0,7.79,4,8.95,7s-.33,6.36-3.32,7.52-6.36-.33-7.52-3.32Z"/>
    <path class="cls-1" d="M31.43,43.36c-1.15,3-8.92,7.02-8.92,7.02,0,0-3.09-8.19-1.94-11.19s4.52-4.5,7.51-3.35,4.5,4.52,3.35,7.51Z"/>
  </g>
  <g>
    <path class="cls-2" d="M55.82,84.18c0-3.21-5.82-9.75-5.82-9.75,0,0-5.82,6.54-5.82,9.75s2.6,5.82,5.82,5.82,5.82-2.6,5.82-5.82Z"/>
    <path class="cls-2" d="M49.48,64.44c1.87,2.61.93,11.32.93,11.32,0,0-8.53-1.94-10.4-4.56s-1.26-6.25,1.35-8.11,6.25-1.26,8.11,1.35Z"/>
    <path class="cls-2" d="M50.93,64.44c-1.87,2.61-.93,11.32-.93,11.32,0,0,8.53-1.94,10.4-4.56s1.26-6.25-1.35-8.11-6.25-1.26-8.11,1.35Z"/>
    <path class="cls-2" d="M60.83,72.58c-3-1.16-11.2,1.9-11.2,1.9,0,0,4,7.79,7,8.95s6.36-.33,7.52-3.32-.33-6.36-3.32-7.52Z"/>
    <path class="cls-2" d="M43.36,83.43c3-1.15,7.02-8.92,7.02-8.92,0,0-8.19-3.09-11.19-1.94s-4.5,4.52-3.35,7.51,4.52,4.5,7.51,3.35Z"/>
  </g>
</svg>