<?xml version="1.0" encoding="UTF-8"?>
<svg id="artwork" xmlns="http://www.w3.org/2000/svg" viewBox="0 0 100 100">
  <defs>
    <style>
      .cls-1 {
        fill: #ffb803;
      }

      .cls-1, .cls-2, .cls-3, .cls-4 {
        stroke-width: 0px;
      }

      .cls-2 {
        fill: #b75d21;
      }

      .cls-3 {
        fill: #f94239;
      }

      .cls-4 {
        fill: #ffcd4e;
      }
    </style>
  </defs>
  <g>
    <g>
      <path class="cls-1" d="M41,78.5c-14.34,0-26-11.66-26-26s11.66-26,26-26,26,11.66,26,26-11.66,26-26,26Z"/>
      <path class="cls-4" d="M41,31.5c11.58,0,21,9.42,21,21s-9.42,21-21,21-21-9.42-21-21,9.42-21,21-21M41,21.5c-17.12,0-31,13.88-31,31s13.88,31,31,31,31-13.88,31-31-13.88-31-31-31h0Z"/>
    </g>
    <path class="cls-4" d="M41.48,13.36c2.35,0,4.27,1.91,4.27,4.27s-1.91,4.27-4.27,4.27-4.27-1.91-4.27-4.27,1.91-4.27,4.27-4.27M41.48,10.36c-4.01,0-7.27,3.25-7.27,7.27s3.25,7.27,7.27,7.27,7.27-3.25,7.27-7.27-3.25-7.27-7.27-7.27h0Z"/>
  </g>
  <g>
    <path class="cls-2" d="M80.45,50.78l5.65,2.02-10.13,33.55c-.79,2.6-3.59,4.02-6.15,3.1h0c-2.56-.92-3.84-3.79-2.79-6.3l13.43-32.38Z"/>
    <circle class="cls-3" cx="85.29" cy="46.14" r="10"/>
  </g>
</svg>