<?xml version="1.0" encoding="UTF-8"?>
<svg id="artwork" xmlns="http://www.w3.org/2000/svg" viewBox="0 0 100 100">
  <defs>
    <style>
      .cls-1 {
        fill: #f94239;
      }

      .cls-1, .cls-2 {
        stroke-width: 0px;
      }

      .cls-3 {
        font-family: AppleSDGothicNeo-Medium-KSCpc-EUC-H, 'Apple SD Gothic Neo';
        font-size: 34px;
        font-weight: 500;
      }

      .cls-3, .cls-2 {
        fill: #ffcd4e;
      }
    </style>
  </defs>
  <path class="cls-1" d="M84,64c0,17.12-15.22,26-34,26s-34-8.88-34-26S31.22,28,50,28s34,18.88,34,36Z"/>
  <polygon class="cls-1" points="50 39.78 67.13 10.11 32.87 10.11 50 39.78"/>
  <text class="cls-3" transform="translate(35.35 73.48)"><tspan x="0" y="0">福</tspan></text>
  <g>
    <path class="cls-2" d="M35.52,22.56c.63,0,1.58.16,2.49.92l5.19,4.36-6.37,2.32c-.45.16-.9.25-1.36.25-1.14,0-2.23-.52-2.99-1.42-.75-.89-1.04-2.02-.84-3.18.38-2.13,2.24-3.24,3.88-3.24M35.52,19.56c-3.17,0-6.21,2.19-6.83,5.72h0c-.78,4.4,2.69,8.12,6.79,8.12.78,0,1.58-.14,2.38-.43l11.25-4.09-9.17-7.7c-1.33-1.11-2.89-1.62-4.42-1.62h0Z"/>
    <path class="cls-2" d="M64.48,22.56c1.64,0,3.51,1.11,3.88,3.24.2,1.16-.09,2.29-.84,3.18-.76.9-1.85,1.42-2.99,1.42-.45,0-.91-.08-1.36-.25l-6.37-2.32,5.19-4.36c.91-.76,1.85-.92,2.49-.92M64.48,19.56c-1.53,0-3.09.51-4.42,1.62l-9.17,7.7,11.25,4.09c.8.29,1.6.43,2.38.43,4.09,0,7.56-3.72,6.79-8.12h0c-.62-3.53-3.67-5.72-6.83-5.72h0Z"/>
  </g>
  <circle class="cls-2" cx="50" cy="27" r="6"/>
</svg>