<?xml version="1.0" encoding="UTF-8"?>
<svg id="artwork" xmlns="http://www.w3.org/2000/svg" viewBox="0 0 100 100">
  <defs>
    <style>
      .cls-1 {
        fill: #f94239;
      }

      .cls-1, .cls-2, .cls-3, .cls-4, .cls-5 {
        stroke-width: 0px;
      }

      .cls-2 {
        fill: #ea7900;
      }

      .cls-3 {
        fill: #3396ff;
      }

      .cls-4 {
        fill: #ffcd4e;
      }

      .cls-5 {
        fill: #ffdb7f;
      }
    </style>
  </defs>
  <path class="cls-5" d="M20,71.5h0s0,0,0,0c0-2.01-.8-3.93-2.22-5.35l-2.78-2.78v12.89c0,2.89,2.35,5.37,5.23,5.24,3.53-.16,6.11-3.99,4.01-7.77-.84-1.51-2.52-2.37-4.24-2.22Z"/>
  <path class="cls-5" d="M80,71.5h0s0,0,0,0c0-2.01.8-3.93,2.22-5.35l2.78-2.78v12.89c0,2.89-2.35,5.37-5.23,5.24-3.53-.16-6.11-3.99-4.01-7.77.84-1.51,2.52-2.37,4.24-2.22Z"/>
  <polygon class="cls-2" points="50 47.68 41.32 39 58.68 39 50 47.68"/>
  <polygon class="cls-5" points="50 30.32 58.68 39 41.32 39 50 30.32"/>
  <rect class="cls-4" x="44" y="32" width="12" height="3" rx="1.5" ry="1.5"/>
  <polygon class="cls-4" points="50 9.63 45 35 55 35 50 9.63"/>
  <rect class="cls-5" x="21" y="85" width="58" height="5" rx="2.5" ry="2.5"/>
  <rect class="cls-4" x="24" y="65" width="52" height="20"/>
  <polygon class="cls-4" points="44.69 43 24 60 76 60 55.31 43 44.69 43"/>
  <g>
    <ellipse class="cls-3" cx="61.25" cy="75" rx="4.75" ry="6"/>
    <path class="cls-5" d="M61.25,70c2.07,0,3.75,2.24,3.75,5s-1.68,5-3.75,5-3.75-2.24-3.75-5,1.68-5,3.75-5M61.25,68c-3.22,0-5.75,3.07-5.75,7s2.53,7,5.75,7,5.75-3.07,5.75-7-2.53-7-5.75-7h0Z"/>
  </g>
  <g>
    <ellipse class="cls-1" cx="38.75" cy="75" rx="4.75" ry="6"/>
    <path class="cls-5" d="M38.75,70c2.07,0,3.75,2.24,3.75,5s-1.68,5-3.75,5-3.75-2.24-3.75-5,1.68-5,3.75-5M38.75,68c-3.22,0-5.75,3.07-5.75,7s2.53,7,5.75,7,5.75-3.07,5.75-7-2.53-7-5.75-7h0Z"/>
  </g>
  <rect class="cls-5" x="21" y="60" width="58" height="5" rx="2.5" ry="2.5"/>
</svg>