<?xml version="1.0" encoding="UTF-8"?>
<svg id="artwork" xmlns="http://www.w3.org/2000/svg" viewBox="0 0 100 100">
  <defs>
    <style>
      .cls-1 {
        fill: none;
        stroke: #b76042;
        stroke-miterlimit: 10;
        stroke-width: 3px;
      }

      .cls-2 {
        fill: #b76042;
      }

      .cls-2, .cls-3, .cls-4 {
        stroke-width: 0px;
      }

      .cls-3 {
        fill: #6b3020;
      }

      .cls-4 {
        fill: #f94239;
      }
    </style>
  </defs>
  <g>
    <path class="cls-3" d="M50,88.5c-21.23,0-38.5-17.27-38.5-38.5S28.77,11.5,50,11.5s38.5,17.27,38.5,38.5-17.27,38.5-38.5,38.5Z"/>
    <path class="cls-2" d="M50,13c20.4,0,37,16.6,37,37s-16.6,37-37,37S13,70.4,13,50,29.6,13,50,13M50,10c-22.09,0-40,17.91-40,40s17.91,40,40,40,40-17.91,40-40S72.09,10,50,10h0Z"/>
  </g>
  <path class="cls-1" d="M18.58,43.91c.01-.06.02-.13.04-.19.63-3.14,3.97-4.93,6.93-3.72l.56.23c1.31-3.2,3.24-6.07,5.64-8.48l-.43-.43c-2.26-2.26-1.9-6.03.75-7.83.03-.02.07-.05.1-.07,2.66-1.79,6.3-.71,7.55,2.25l.23.55c3.09-1.31,6.48-2.03,10.05-2.03v-.58c0-3.23,2.95-5.65,6.11-5.03l.11.02c3.17.62,4.99,3.98,3.76,6.98l-.22.53c3.2,1.31,6.07,3.24,8.48,5.64l.43-.43c2.27-2.27,6.04-1.91,7.84.75l.06.09c1.8,2.66.72,6.3-2.24,7.55l-.55.23c1.31,3.09,2.03,6.48,2.03,10.05h.61c3.21,0,5.61,2.94,5,6.09-.01.06-.02.13-.04.19-.63,3.14-3.97,4.93-6.93,3.72l-.56-.23c-1.31,3.2-3.24,6.07-5.64,8.48l.43.43c2.27,2.27,1.9,6.04-.75,7.83-.05.04-.11.07-.16.11-2.67,1.79-6.31.7-7.55-2.26l-.23-.55c-3.07,1.29-6.44,2-9.99,2v.61c0,3.21-2.94,5.61-6.09,5-.06-.01-.13-.02-.19-.04-3.14-.63-4.93-3.97-3.72-6.93l.23-.56c-3.2-1.31-6.07-3.24-8.48-5.64l-.43.43c-2.26,2.26-6.03,1.91-7.83-.75-.02-.03-.05-.07-.07-.1-1.79-2.66-.71-6.3,2.24-7.55l.55-.23c-1.31-3.09-2.03-6.48-2.03-10.05h-.61c-3.21,0-5.61-2.94-5-6.09Z"/>
  <g>
    <path class="cls-3" d="M50,69.5c-10.75,0-19.5-8.75-19.5-19.5s8.75-19.5,19.5-19.5,19.5,8.75,19.5,19.5-8.75,19.5-19.5,19.5Z"/>
    <path class="cls-2" d="M50,32c9.93,0,18,8.07,18,18s-8.07,18-18,18-18-8.07-18-18,8.07-18,18-18M50,29c-11.6,0-21,9.4-21,21s9.4,21,21,21,21-9.4,21-21-9.4-21-21-21h0Z"/>
  </g>
  <g>
    <path class="cls-3" d="M44.29,59.64c-1.14,0-2.07-.93-2.07-2.07s.93-2.07,2.07-2.07h11.43c1.14,0,2.07.93,2.07,2.07s-.93,2.07-2.07,2.07h-11.43Z"/>
    <path class="cls-2" d="M55.71,57c.32,0,.57.26.57.57s-.26.57-.57.57h-11.43c-.32,0-.57-.26-.57-.57s.26-.57.57-.57h11.43M55.71,54h-11.43c-1.97,0-3.57,1.6-3.57,3.57s1.6,3.57,3.57,3.57h11.43c1.97,0,3.57-1.6,3.57-3.57s-1.6-3.57-3.57-3.57h0Z"/>
  </g>
  <path class="cls-2" d="M46.71,47c0,2.37-1.92,4.29-4.29,4.29s-4.29-1.92-4.29-4.29h8.57Z"/>
  <path class="cls-2" d="M61.86,47c0,2.37-1.92,4.29-4.29,4.29s-4.29-1.92-4.29-4.29h8.57Z"/>
  <path class="cls-4" d="M37.37,44h25.27c-2.25-4.73-7.05-8-12.63-8s-10.39,3.27-12.63,8Z"/>
  <path class="cls-4" d="M54.74,63h-9.48c.84,1.77,2.64,3,4.74,3s3.89-1.23,4.74-3Z"/>
  <g>
    <g>
      <circle class="cls-2" cx="24.02" cy="32.32" r="2.13"/>
      <circle class="cls-2" cx="75.98" cy="67.68" r="2.13"/>
    </g>
    <g>
      <circle class="cls-2" cx="19.13" cy="55.87" r="2.13"/>
      <circle class="cls-2" cx="80.87" cy="44.13" r="2.13"/>
    </g>
    <g>
      <circle class="cls-2" cx="55.87" cy="80.87" r="2.13"/>
      <circle class="cls-2" cx="44.13" cy="19.13" r="2.13"/>
    </g>
    <g>
      <circle class="cls-2" cx="31.87" cy="75.67" r="2.13"/>
      <circle class="cls-2" cx="68.13" cy="24.33" r="2.13"/>
    </g>
  </g>
</svg>