<?xml version="1.0" encoding="UTF-8"?>
<svg id="artwork" xmlns="http://www.w3.org/2000/svg" viewBox="0 0 100 100">
  <defs>
    <style>
      .cls-1 {
        fill: #ebebeb;
      }

      .cls-1, .cls-2, .cls-3 {
        stroke-width: 0px;
      }

      .cls-2 {
        fill: #bbb;
      }

      .cls-3 {
        fill: #f94239;
      }

      .cls-4, .cls-5 {
        font-size: 19px;
      }

      .cls-4, .cls-6 {
        fill: #000;
        font-family: JalnanGothicTTF, 'Jalnan Gothic TTF';
      }

      .cls-7 {
        font-size: 6px;
      }
    </style>
  </defs>
  <path class="cls-2" d="M50,9c6.62,0,12,5.38,12,12s-5.38,12-12,12-12-5.38-12-12,5.38-12,12-12M50,5c-8.84,0-16,7.16-16,16s7.16,16,16,16,16-7.16,16-16-7.16-16-16-16h0Z"/>
  <path class="cls-1" d="M50,41c1.93,0,3.5,1.57,3.5,3.5s-1.57,3.5-3.5,3.5-3.5-1.57-3.5-3.5,1.57-3.5,3.5-3.5M50,37c-4.14,0-7.5,3.36-7.5,7.5s3.36,7.5,7.5,7.5,7.5-3.36,7.5-7.5-3.36-7.5-7.5-7.5h0Z"/>
  <rect class="cls-1" x="27" y="44" width="46" height="46"/>
  <rect class="cls-2" x="48" y="30" width="4" height="14" rx="2" ry="2"/>
  <text class="cls-4" transform="translate(35.01 65.15)"><tspan x="0" y="0">I</tspan></text>
  <text class="cls-6" transform="translate(34.5 84.36)"><tspan class="cls-5" x="0" y="0">N</tspan><tspan class="cls-7" x="14.73" y="0"> </tspan><tspan class="cls-5" x="16.41" y="0">Y</tspan></text>
  <path class="cls-3" d="M63.38,51.5c-2.15-2.15-5.65-2.15-7.8,0-.22.22-.41.45-.58.69-.17-.24-.36-.48-.58-.69-2.15-2.15-5.65-2.15-7.8,0s-2.15,5.65,0,7.8c2.15,2.15,8.21,8.07,8.38,7.82.17.24,6.23-5.67,8.38-7.82,2.15-2.15,2.15-5.65,0-7.8Z"/>
</svg>