<?xml version="1.0" encoding="UTF-8"?>
<svg id="artwork" xmlns="http://www.w3.org/2000/svg" viewBox="0 0 100 100">
  <defs>
    <style>
      .cls-1 {
        fill: #fb6c65;
      }

      .cls-1, .cls-2, .cls-3, .cls-4 {
        stroke-width: 0px;
      }

      .cls-2 {
        fill: #f94239;
      }

      .cls-3 {
        fill: #e22727;
      }

      .cls-4 {
        fill: #62cc8f;
      }
    </style>
  </defs>
  <path class="cls-3" d="M41.22,21.76c.63.08,2.04,1.01,3.5,2.24-1.47,1.23-2.88,2.17-3.48,2.24-1.24,0-2.24-1.01-2.24-2.24s.99-2.23,2.22-2.24M41.24,18.76c-2.89,0-5.24,2.35-5.24,5.24s2.35,5.24,5.24,5.24,7.86-5.24,7.86-5.24c0,0-4.97-5.24-7.86-5.24h0Z"/>
  <path class="cls-3" d="M45.06,16.3c.22,0,.63.05,1,.39.25.4.47,1.45.61,2.7-1.42-.15-2.36-.41-2.69-.61-.53-.58-.52-1.48.04-2.04.38-.38.81-.43,1.04-.43M45.06,13.3c-1.14,0-2.29.44-3.16,1.31-1.75,1.75-1.75,4.58,0,6.33,1.47,1.47,6.06,1.59,7.48,1.59.27,0,.43,0,.43,0,0,0,.17-6.16-1.58-7.91-.87-.87-2.02-1.31-3.16-1.31h0Z"/>
  <path class="cls-3" d="M46.67,28.62c-.14,1.25-.36,2.3-.61,2.7-.37.34-.78.39-1,.39s-.67-.06-1.04-.43c-.56-.56-.57-1.46-.04-2.04.33-.21,1.28-.46,2.69-.61M49.38,25.48c-1.42,0-6.01.12-7.48,1.59-1.75,1.75-1.75,4.58,0,6.33.87.87,2.02,1.31,3.16,1.31s2.29-.44,3.16-1.31c1.75-1.75,1.58-7.91,1.58-7.91,0,0-.16,0-.43,0h0Z"/>
  <path class="cls-3" d="M58.71,21.69c1.27.01,2.29,1.04,2.29,2.31s-1.04,2.31-2.28,2.31c-.64-.07-2.11-1.04-3.62-2.31,1.51-1.27,2.97-2.23,3.61-2.31M58.69,18.69c-2.93,0-7.97,5.31-7.97,5.31,0,0,5.04,5.31,7.97,5.31s5.31-2.38,5.31-5.31-2.38-5.31-5.31-5.31h0Z"/>
  <path class="cls-3" d="M53.14,28.63c1.48.16,2.46.42,2.8.64.26.28.41.65.41,1.04,0,.41-.16.8-.45,1.09s-.68.45-1.09.45-.76-.15-1.04-.41c-.26-.41-.49-1.51-.63-2.81M50.44,25.5c-.27,0-.43,0-.43,0,0,0-.17,6.25,1.6,8.02.89.89,2.05,1.33,3.21,1.33s2.32-.44,3.21-1.33c1.77-1.77,1.77-4.64,0-6.41-1.49-1.49-6.14-1.61-7.59-1.61h0Z"/>
  <path class="cls-3" d="M54.81,16.15c.41,0,.8.16,1.09.45s.45.68.45,1.09-.15.76-.41,1.04c-.34.21-1.32.48-2.81.64.14-1.3.37-2.4.64-2.81.28-.26.65-.41,1.04-.41M54.81,13.15c-1.16,0-2.32.44-3.21,1.33-1.77,1.77-1.6,8.02-1.6,8.02,0,0,.16,0,.43,0,1.44,0,6.1-.12,7.59-1.61,1.77-1.77,1.77-4.64,0-6.41-.89-.89-2.05-1.33-3.21-1.33h0Z"/>
  <path class="cls-3" d="M50.01,8.82c.85,0,1.54.69,1.54,1.5-.04.69-.67,2.57-1.54,4.85-.87-2.28-1.49-4.15-1.53-4.82,0-.85.69-1.54,1.54-1.54M50.01,5.82c-2.5,0-4.54,2.03-4.54,4.54s4.54,12.65,4.54,12.65c0,0,4.54-10.14,4.54-12.65s-2.03-4.54-4.54-4.54h0Z"/>
  <circle class="cls-2" cx="50" cy="25" r="7"/>
  <rect class="cls-2" x="48" y="31" width="4" height="3"/>
  <rect class="cls-2" x="48" y="58" width="4" height="3"/>
  <rect class="cls-1" x="44" y="61" width="12" height="4" rx="2" ry="2"/>
  <polygon class="cls-1" points="57 95 43 95 46 65 54 65 57 95"/>
  <polygon class="cls-1" points="60 90 40 90 46 65 54 65 60 90"/>
  <circle class="cls-4" cx="50" cy="46" r="13"/>
</svg>