<?xml version="1.0" encoding="UTF-8"?>
<svg id="artwork" xmlns="http://www.w3.org/2000/svg" viewBox="0 0 100 100">
  <defs>
    <style>
      .cls-1 {
        fill: #ebebeb;
      }

      .cls-1, .cls-2 {
        stroke-width: 0px;
      }

      .cls-2 {
        fill: #f94239;
      }

      .cls-3 {
        fill: #ffcd4e;
        font-family: AppleSDGothicNeo-Bold-KSCpc-EUC-H, 'Apple SD Gothic Neo';
        font-size: 24px;
        font-weight: 700;
      }
    </style>
  </defs>
  <path class="cls-2" d="M65,26h-30l-7.68,9.22c-1.5,1.8-2.32,4.06-2.32,6.4v48.38h50v-48.38c0-2.34-.82-4.6-2.32-6.4l-7.68-9.22Z"/>
  <g>
    <path class="cls-1" d="M39,12.33c1.61,0,3.12.63,4.26,1.76,1.03,1.03,2.07,5.41,2.33,10.83-5.85-.28-9.86-1.32-10.85-2.31-1.14-1.14-1.76-2.65-1.76-4.26s.63-3.12,1.76-4.26,2.65-1.76,4.26-1.76M39,8.33c-2.57,0-5.13.98-7.09,2.94-3.91,3.91-3.91,10.26,0,14.18,3.29,3.29,13.58,3.55,16.77,3.55.6,0,.95,0,.95,0,0,0,.37-13.81-3.54-17.72-1.96-1.96-4.52-2.94-7.09-2.94h0Z"/>
    <path class="cls-1" d="M60.86,12c1.65,0,3.19.64,4.36,1.81,2.4,2.4,2.4,6.31,0,8.72-1.01,1.01-5.12,2.08-11.1,2.36.26-5.54,1.33-10.02,2.38-11.08,1.16-1.16,2.71-1.81,4.36-1.81M60.86,8c-2.6,0-5.2.99-7.19,2.98-3.97,3.97-3.59,17.97-3.59,17.97,0,0,.35,0,.97,0,3.24,0,13.66-.27,17-3.6,3.97-3.97,3.97-10.4,0-14.37-1.98-1.98-4.59-2.98-7.19-2.98h0Z"/>
  </g>
  <rect class="cls-1" x="42.8" y="17" width="14.4" height="12" rx="6" ry="6"/>
  <text class="cls-3" transform="translate(39.51 57.7)"><tspan x="0" y="0">御</tspan><tspan x="0" y="24">守</tspan></text>
  <path class="cls-1" d="M50.01,26.94c1.02,1.96,1.72,3.58,1.81,4.3-.03.98-.83,1.76-1.81,1.76s-1.78-.79-1.81-1.76c.09-.72.79-2.34,1.81-4.3M50.01,19s-5.81,8.98-5.81,12.19,2.6,5.81,5.81,5.81,5.81-2.6,5.81-5.81-5.81-12.19-5.81-12.19h0Z"/>
</svg>