<?xml version="1.0" encoding="UTF-8"?>
<svg id="artwork" xmlns="http://www.w3.org/2000/svg" viewBox="0 0 100 100">
  <defs>
    <style>
      .cls-1 {
        fill: #ffeab2;
      }

      .cls-1, .cls-2, .cls-3, .cls-4 {
        stroke-width: 0px;
      }

      .cls-2 {
        fill: #0fd166;
      }

      .cls-3 {
        fill: #ffcd4e;
      }

      .cls-5 {
        fill: none;
        stroke: #ffeab2;
        stroke-linecap: round;
        stroke-miterlimit: 10;
        stroke-width: 2px;
      }

      .cls-4 {
        fill: #00bf56;
      }
    </style>
  </defs>
  <g>
    <path class="cls-2" d="M21.47,63.74c4.61,4.61,10.54,6.74,15.63,6.15.59-5.1-1.54-11.03-6.15-15.63-4.61-4.61-10.54-6.74-15.63-6.15-.59,5.1,1.54,11.03,6.15,15.63Z"/>
    <path class="cls-2" d="M78.96,63.74c-4.61,4.61-10.54,6.74-15.63,6.15-.59-5.1,1.54-11.03,6.15-15.63,4.61-4.61,10.54-6.74,15.63-6.15.59,5.1-1.54,11.03-6.15,15.63Z"/>
  </g>
  <path class="cls-2" d="M50,10h0c4.97,0,9,4.03,9,9v49h-18V19c0-4.97,4.03-9,9-9Z"/>
  <g>
    <circle class="cls-3" cx="50" cy="19" r="7.5"/>
    <path class="cls-1" d="M50,13c3.31,0,6,2.69,6,6s-2.69,6-6,6-6-2.69-6-6,2.69-6,6-6M50,10c-4.97,0-9,4.03-9,9s4.03,9,9,9,9-4.03,9-9-4.03-9-9-9h0Z"/>
  </g>
  <g>
    <path class="cls-4" d="M64,30h0c4.97,0,9,4.03,9,9v43h-18v-43c0-4.97,4.03-9,9-9Z"/>
    <g>
      <circle class="cls-3" cx="64" cy="39" r="7.5"/>
      <path class="cls-1" d="M64,33c3.31,0,6,2.69,6,6s-2.69,6-6,6-6-2.69-6-6,2.69-6,6-6M64,30c-4.97,0-9,4.03-9,9s4.03,9,9,9,9-4.03,9-9-4.03-9-9-9h0Z"/>
    </g>
  </g>
  <g>
    <path class="cls-4" d="M36,25h0c4.97,0,9,4.03,9,9v43h-18v-43c0-4.97,4.03-9,9-9Z"/>
    <g>
      <circle class="cls-3" cx="36" cy="34" r="7.5"/>
      <path class="cls-1" d="M36,28c3.31,0,6,2.69,6,6s-2.69,6-6,6-6-2.69-6-6,2.69-6,6-6M36,25c-4.97,0-9,4.03-9,9s4.03,9,9,9,9-4.03,9-9-4.03-9-9-9h0Z"/>
    </g>
  </g>
  <rect class="cls-3" x="27" y="68" width="46" height="22"/>
  <path class="cls-1" d="M40.25,64.75c1.02,0,3.74,1.49,6.33,3.25-2.59,1.76-5.3,3.25-6.33,3.25-1.79,0-3.25-1.46-3.25-3.25s1.46-3.25,3.25-3.25M40.25,62.75c-2.9,0-5.25,2.35-5.25,5.25s2.35,5.25,5.25,5.25,9.75-5.25,9.75-5.25c0,0-6.85-5.25-9.75-5.25h0Z"/>
  <path class="cls-1" d="M59.75,64.75c1.79,0,3.25,1.46,3.25,3.25s-1.46,3.25-3.25,3.25c-1.02,0-3.74-1.49-6.33-3.25,2.59-1.76,5.3-3.25,6.33-3.25M59.75,62.75c-2.9,0-9.75,5.25-9.75,5.25,0,0,6.85,5.25,9.75,5.25s5.25-2.35,5.25-5.25-2.35-5.25-5.25-5.25h0Z"/>
  <path class="cls-1" d="M49,65c-.55,0-1,.45-1,1v4c0,.55.45,1,1,1s1-.45,1-1v-4c0-.55-.45-1-1-1h0Z"/>
  <path class="cls-1" d="M51,65c-.55,0-1,.45-1,1v4c0,.55.45,1,1,1s1-.45,1-1v-4c0-.55-.45-1-1-1h0Z"/>
  <path class="cls-5" d="M49,68.74s-5,5.26-7,13.26"/>
  <path class="cls-5" d="M51,68.74s5,5.26,7,13.26"/>
</svg>