<?xml version="1.0" encoding="UTF-8"?>
<svg id="artwork" xmlns="http://www.w3.org/2000/svg" viewBox="0 0 100 100">
  <defs>
    <style>
      .cls-1 {
        fill: #ff6933;
      }

      .cls-1, .cls-2, .cls-3, .cls-4 {
        stroke-width: 0px;
      }

      .cls-2 {
        fill: #ebebeb;
      }

      .cls-3 {
        fill: #ff875c;
      }

      .cls-4 {
        fill: #008e40;
      }
    </style>
  </defs>
  <polygon class="cls-4" points="57 33 43 33 45 23 55 23 57 33"/>
  <path class="cls-2" d="M50,15c-.83,0-1.5.67-1.5,1.5v6.5h3v-6.5c0-.83-.67-1.5-1.5-1.5h0Z"/>
  <path class="cls-2" d="M50,10c2.48,0,4.5,2.02,4.5,4.5s-2.02,4.5-4.5,4.5-4.5-2.02-4.5-4.5,2.02-4.5,4.5-4.5M50,7c-4.14,0-7.5,3.36-7.5,7.5s3.36,7.5,7.5,7.5,7.5-3.36,7.5-7.5-3.36-7.5-7.5-7.5h0Z"/>
  <rect class="cls-1" x="10" y="32" width="80" height="58" rx="28.5" ry="28.5"/>
  <rect class="cls-3" x="29" y="32" width="42" height="58" rx="21" ry="21"/>
</svg>