<?xml version="1.0" encoding="UTF-8"?>
<svg id="artwork" xmlns="http://www.w3.org/2000/svg" viewBox="0 0 100 100">
  <defs>
    <style>
      .cls-1 {
        fill: #007635;
      }

      .cls-1, .cls-2, .cls-3 {
        stroke-width: 0px;
      }

      .cls-2 {
        fill: #008e40;
      }

      .cls-3 {
        fill: #ffcd4e;
      }
    </style>
  </defs>
  <path class="cls-1" d="M17,10h61c2.76,0,5,2.24,5,5v70c0,2.76-2.24,5-5,5H17V10h0Z"/>
  <path class="cls-3" d="M73,17c1.65,0,3,1.35,3,3v60c0,1.65-1.35,3-3,3H30V17h43M73,15H28v70h45c2.76,0,5-2.24,5-5V20c0-2.76-2.24-5-5-5h0Z"/>
  <rect class="cls-2" x="17" y="10" width="6" height="80"/>
  <polygon class="cls-3" points="54 68 38 50 54 32 70 50 54 68"/>
  <circle class="cls-1" cx="54" cy="50" r="7"/>
</svg>