<?xml version="1.0" encoding="UTF-8"?>
<svg id="artwork" xmlns="http://www.w3.org/2000/svg" viewBox="0 0 100 100">
  <defs>
    <style>
      .cls-1 {
        fill: #fb6c65;
      }

      .cls-1, .cls-2, .cls-3 {
        stroke-width: 0px;
      }

      .cls-2 {
        fill: #f94239;
      }

      .cls-3 {
        fill: #ffcd4e;
      }
    </style>
  </defs>
  <path class="cls-2" d="M55,35L22.5,16.24c-3.33-1.92-7.5.48-7.5,4.33v28.87c0,3.85,4.17,6.25,7.5,4.33l32.5-18.76Z"/>
  <path class="cls-2" d="M45,35l32.5,18.76c3.33,1.92,7.5-.48,7.5-4.33v-28.87c0-3.85-4.17-6.25-7.5-4.33l-32.5,18.76Z"/>
  <g>
    <polygon class="cls-2" points="85.03 81.62 72.52 80.83 65.09 90.92 51.51 47.6 60.57 43.37 85.03 81.62"/>
    <polygon class="cls-2" points="14.97 81.62 27.48 80.83 34.91 90.92 48.49 47.6 39.43 43.37 14.97 81.62"/>
  </g>
  <rect class="cls-3" x="42" y="23" width="16" height="5"/>
  <path class="cls-3" d="M50,13c2.76,0,5,2.24,5,5s-2.24,5-5,5-5-2.24-5-5,2.24-5,5-5M50,10c-4.42,0-8,3.58-8,8s3.58,8,8,8,8-3.58,8-8-3.58-8-8-8h0Z"/>
  <rect class="cls-1" x="40" y="25" width="20" height="26" rx="10" ry="10"/>
</svg>