<?xml version="1.0" encoding="UTF-8"?>
<svg id="artwork" xmlns="http://www.w3.org/2000/svg" viewBox="0 0 100 100">
  <defs>
    <style>
      .cls-1 {
        fill: #474747;
      }

      .cls-1, .cls-2, .cls-3 {
        stroke-width: 0px;
      }

      .cls-2 {
        fill: #ebebeb;
      }

      .cls-3 {
        fill: #f94239;
      }
    </style>
  </defs>
  <path class="cls-2" d="M24,41.15c1.77-12.88,11.43-24.09,23.58-28.56,9.62-3.89,22.84-4.32,29.61,5.11,9.69,14.03,3.21,34.89-5.74,47.51-2.68,3.93-8.46,11.6-7.14,16.31,1.57,2.5,6.44.45,8.65-.67,1.35-.68,2.63-1.52,3.9-2.41-2.95,3.55-7.36,7.73-12.62,6.87-9.14-3.08-1.15-18.22,1.97-23.52,6.09-10.6,11.6-28.53,4.58-39.42-4.84-6.55-13.44-5.64-21.18-3.65-11.39,3.04-20.66,11.55-25.63,22.42h0Z"/>
  <g>
    <path class="cls-1" d="M16.17,73.3c-4.25-11.68,1.77-24.59,13.45-28.84,11.68-4.25,24.59,1.77,28.84,13.45"/>
    <rect class="cls-1" x="9.5" y="65.49" width="57" height="4" rx="2" ry="2" transform="translate(-20.79 17.07) rotate(-20)"/>
    <circle class="cls-3" cx="28.42" cy="41.18" r="7"/>
  </g>
</svg>