<?xml version="1.0" encoding="UTF-8"?>
<svg id="artwork" xmlns="http://www.w3.org/2000/svg" viewBox="0 0 100 100">
  <defs>
    <style>
      .cls-1 {
        fill: #474747;
      }

      .cls-1, .cls-2, .cls-3 {
        stroke-width: 0px;
      }

      .cls-2 {
        fill: #ebebeb;
      }

      .cls-3 {
        fill: #bbb;
      }
    </style>
  </defs>
  <rect class="cls-3" x="44.5" y="24" width="11" height="3" rx="1.5" ry="1.5" transform="translate(24.5 75.5) rotate(-90)"/>
  <path class="cls-3" d="M50,13c2.76,0,5,2.24,5,5s-2.24,5-5,5-5-2.24-5-5,2.24-5,5-5M50,10c-4.42,0-8,3.58-8,8s3.58,8,8,8,8-3.58,8-8-3.58-8-8-8h0Z"/>
  <path class="cls-2" d="M82.68,54.5c0,25.05-15.83,30.5-32.68,30.5s-32.68-7.62-32.68-30.5,15.83-30.5,32.68-30.5,32.68,8.71,32.68,30.5Z"/>
  <circle class="cls-1" cx="35" cy="55" r="10"/>
  <circle class="cls-1" cx="65" cy="55" r="10"/>
  <path class="cls-2" d="M67,74h-34v11c0,2.76,2.24,5,5,5h24c2.76,0,5-2.24,5-5v-11Z"/>
  <path class="cls-2" d="M79,65.08H21v7.85c0,5.52,4.48,10,10,10h38c5.52,0,10-4.48,10-10v-7.85Z"/>
  <path class="cls-1" d="M48.09,70.48c.76,0,1.44-.34,1.91-.88.47.53,1.14.88,1.91.88,1.4,0,2.54-1.14,2.54-2.54s-4.45-5.08-4.45-5.08c0,0-4.45,3.68-4.45,5.08s1.14,2.54,2.54,2.54Z"/>
</svg>