<?xml version="1.0" encoding="UTF-8"?>
<svg id="artwork" xmlns="http://www.w3.org/2000/svg" viewBox="0 0 100 100">
  <defs>
    <style>
      .cls-1 {
        fill: #ebebeb;
      }

      .cls-1, .cls-2, .cls-3, .cls-4 {
        stroke-width: 0px;
      }

      .cls-2 {
        fill: #f94239;
      }

      .cls-3 {
        fill: #ffcd4e;
      }

      .cls-4 {
        fill: #00bf56;
      }
    </style>
  </defs>
  <path class="cls-2" d="M66.39,54.73l2.32-13.16-40.49-7.14-3.21,18.22-3.57,20.24c-.99,5.59,2.75,10.92,8.34,11.91l27.9,4.92c9.75,1.72,19.04-4.79,20.76-14.54h0c1.34-7.6-2.33-15.2-9.11-18.87l-2.93-1.59Z"/>
  <g>
    <path class="cls-3" d="M48.1,13h0c.6,0,1.16.29,1.51.77.25.52.34,1.95.26,3.62-1.59-.5-2.92-1.07-3.32-1.48-.57-.84-.35-1.99.48-2.57.4-.28.8-.34,1.07-.34M48.09,10c-.96,0-1.94.29-2.79.88-2.2,1.54-2.74,4.58-1.2,6.78,1.54,2.2,8.38,3.47,8.38,3.47,0,0,1.14-6.86-.4-9.06-.95-1.35-2.46-2.08-3.99-2.08h0Z"/>
    <path class="cls-3" d="M58.75,14.88c.61,0,1.19.3,1.53.8.58.83.39,1.98-.43,2.58-.1.04-.74.29-2.49.29-.38,0-.76-.01-1.14-.03.5-1.59,1.07-2.92,1.48-3.32.39-.26.78-.32,1.04-.32M58.75,11.88c-.96,0-1.94.29-2.79.88-2.2,1.54-3.47,8.38-3.47,8.38,0,0,2.44.41,4.88.41,1.65,0,3.29-.19,4.18-.81,2.2-1.54,2.74-4.58,1.2-6.78-.95-1.35-2.46-2.08-3.99-2.08h0Z"/>
    <rect class="cls-4" x="33.48" y="17.84" width="37" height="12.33" transform="translate(4.96 -8.66) rotate(10)"/>
    <rect class="cls-4" x="33.48" y="17.84" width="37" height="12.33" transform="translate(4.96 -8.66) rotate(10)"/>
    <rect class="cls-3" x="45.81" y="22.02" width="12.33" height="3.97" transform="translate(19.31 71.03) rotate(-80)"/>
  </g>
  <rect class="cls-1" x="23.65" y="24.9" width="53.45" height="16.45" rx="5" ry="5" transform="translate(6.52 -8.24) rotate(10)"/>
</svg>