<?xml version="1.0" encoding="UTF-8"?>
<svg id="artwork" xmlns="http://www.w3.org/2000/svg" xmlns:xlink="http://www.w3.org/1999/xlink" viewBox="0 0 100 100">
  <defs>
    <style>
      .cls-1 {
        fill: #ebebeb;
      }

      .cls-1, .cls-2, .cls-3, .cls-4 {
        stroke-width: 0px;
      }

      .cls-5 {
        clip-path: url(#clippath);
      }

      .cls-2 {
        fill: none;
      }

      .cls-3 {
        fill: #3396ff;
      }

      .cls-4 {
        fill: #ffcd4e;
      }
    </style>
    <clipPath id="clippath">
      <path class="cls-2" d="M60,18.3h0c0-1.83,1.48-3.3,3.3-3.3h0c.94,0,1.7-.76,1.7-1.7v-.8c0-1.38-1.12-2.5-2.5-2.5h-25c-1.38,0-2.5,1.12-2.5,2.5v.8c0,.94.76,1.7,1.7,1.7h0c1.83,0,3.3,1.48,3.3,3.3h0c0,1.35-.82,2.55-2.07,3.06-11.71,4.77-19.96,14.25-19.96,27.67,0,16.5,17.47,35.97,17.47,35.97h29.12s17.47-19.47,17.47-35.97c0-13.42-8.26-22.9-19.96-27.67-1.25-.51-2.07-1.71-2.07-3.06Z"/>
    </clipPath>
  </defs>
  <g class="cls-5">
    <rect class="cls-1" x="3" y="1" width="93" height="97"/>
    <rect class="cls-3" x="9.14" y="67.86" width="81.71" height="3" rx="1.5" ry="1.5"/>
    <rect class="cls-3" x="9.14" y="25.86" width="81.71" height="3" rx="1.5" ry="1.5"/>
    <g>
      <g>
        <path class="cls-3" d="M54.31,39.77c0,5.54-4.31,9.23-4.31,9.23,0,0-4.31-3.69-4.31-9.23s4.31-6.77,4.31-6.77c0,0,4.31,1.23,4.31,6.77Z"/>
        <path class="cls-3" d="M45.69,58.23c0-5.54,4.31-9.23,4.31-9.23,0,0,4.31,3.69,4.31,9.23s-4.31,6.77-4.31,6.77c0,0-4.31-1.23-4.31-6.77Z"/>
      </g>
      <g>
        <path class="cls-3" d="M60.15,48.12c-4.8,2.77-10.15.88-10.15.88,0,0,1.04-5.58,5.84-8.35s8.02.35,8.02.35c0,0,1.09,4.35-3.71,7.12Z"/>
        <path class="cls-3" d="M39.85,49.88c4.8-2.77,10.15-.88,10.15-.88,0,0-1.04,5.58-5.84,8.35s-8.02-.35-8.02-.35c0,0-1.09-4.35,3.71-7.12Z"/>
      </g>
      <g>
        <path class="cls-3" d="M55.84,57.35c-4.8-2.77-5.84-8.35-5.84-8.35,0,0,5.35-1.88,10.15.88s3.71,7.12,3.71,7.12c0,0-3.22,3.12-8.02.35Z"/>
        <path class="cls-3" d="M44.16,40.65c4.8,2.77,5.84,8.35,5.84,8.35,0,0-5.35,1.88-10.15-.88s-3.71-7.12-3.71-7.12c0,0,3.22-3.12,8.02-.35Z"/>
      </g>
      <circle class="cls-4" cx="50" cy="49" r="4.31"/>
    </g>
  </g>
  <rect class="cls-1" x="33" y="85" width="34" height="5" rx="2.5" ry="2.5"/>
  <rect class="cls-4" x="35" y="10" width="30" height="5" rx="2.5" ry="2.5"/>
</svg>