<?xml version="1.0" encoding="UTF-8"?>
<svg id="artwork" xmlns="http://www.w3.org/2000/svg" viewBox="0 0 100 100">
  <defs>
    <style>
      .cls-1 {
        fill: #fb6c65;
      }

      .cls-1, .cls-2, .cls-3 {
        stroke-width: 0px;
      }

      .cls-4 {
        stroke: #0fd166;
        stroke-linecap: round;
        stroke-width: 2px;
      }

      .cls-4, .cls-5 {
        fill: none;
        stroke-miterlimit: 10;
      }

      .cls-2 {
        fill: #ffcd4e;
      }

      .cls-5 {
        stroke: #00bf56;
        stroke-width: 4px;
      }

      .cls-3 {
        fill: #00bf56;
      }
    </style>
  </defs>
  <g>
    <rect class="cls-2" x="47.68" y="60.87" width="10" height="20"/>
    <line class="cls-4" x1="52.68" y1="63.71" x2="52.68" y2="52.53"/>
  </g>
  <path class="cls-3" d="M62.51,56.63c6.51,0,12.2-2.68,15.38-6.7-3.19-4.01-8.87-6.7-15.38-6.7-6.51,0-12.2,2.68-15.38,6.7,3.19,4.01,8.87,6.7,15.38,6.7Z"/>
  <g>
    <rect class="cls-1" x="65.68" y="42.87" width="10" height="20"/>
    <line class="cls-4" x1="70.68" y1="45.71" x2="70.68" y2="34.53"/>
  </g>
  <path class="cls-5" d="M32.68,89.87s-.61-28.76,24.52-55.34"/>
  <path class="cls-3" d="M56.27,20.15c3.24-5.65,8.4-9.25,13.46-10.02,1.9,4.76,1.4,11.03-1.84,16.68s-8.4,9.25-13.46,10.02c-1.9-4.76-1.4-11.03,1.84-16.68Z"/>
  <path class="cls-3" d="M31.86,40.12c-3.22-5.66-3.7-11.93-1.79-16.68,5.06.78,10.21,4.4,13.43,10.06,3.22,5.66,3.7,11.93,1.79,16.68-5.06-.78-10.21-4.4-13.43-10.06Z"/>
  <path class="cls-3" d="M29.32,53.92c-6.28-1.72-11.05-5.82-13.06-10.53,4.13-3.03,10.33-4.11,16.61-2.38,6.28,1.72,11.05,5.82,13.06,10.53-4.13,3.03-10.33,4.11-16.61,2.38Z"/>
  <path class="cls-3" d="M72.3,36.6c5.97-2.59,10.12-7.32,11.44-12.28-4.52-2.41-10.81-2.61-16.78-.01-5.97,2.59-10.12,7.32-11.44,12.28,4.52,2.41,10.81,2.61,16.78.01Z"/>
</svg>