<?xml version="1.0" encoding="UTF-8"?>
<svg id="artwork" xmlns="http://www.w3.org/2000/svg" viewBox="0 0 100 100">
  <defs>
    <style>
      .cls-1 {
        fill: #ffc8a3;
      }

      .cls-1, .cls-2, .cls-3, .cls-4 {
        stroke-width: 0px;
      }

      .cls-2 {
        fill: #e22727;
      }

      .cls-3 {
        fill: #f9b180;
      }

      .cls-4 {
        fill: #fff;
      }
    </style>
  </defs>
  <g>
    <polygon class="cls-3" points="31.31 88 19.76 52.45 50 30.47 80.24 52.45 68.69 88 31.31 88"/>
    <path class="cls-1" d="M50,32.94l27.89,20.27-10.65,32.79h-34.48l-10.65-32.79,27.89-20.27M50,28l-32.6,23.68,12.45,38.32h40.29l12.45-38.32-32.6-23.68h0Z"/>
  </g>
  <path class="cls-2" d="M50.01,8.82c.85,0,1.54.69,1.54,1.5-.04.69-.67,2.57-1.54,4.85-.87-2.28-1.49-4.15-1.53-4.82,0-.85.69-1.54,1.54-1.54M50.01,5.82c-2.5,0-4.54,2.03-4.54,4.54s4.54,12.65,4.54,12.65c0,0,4.54-10.14,4.54-12.65s-2.03-4.54-4.54-4.54h0Z"/>
  <circle class="cls-4" cx="50" cy="41" r="4"/>
  <path class="cls-2" d="M50,42h0c-1.1,0-2-.9-2-2V16h4v24c0,1.1-.9,2-2,2Z"/>
  <rect class="cls-2" x="45" y="26" width="10" height="4" rx="2" ry="2"/>
  <rect class="cls-2" x="45" y="22" width="10" height="4" rx="2" ry="2"/>
</svg>