<?xml version="1.0" encoding="UTF-8"?>
<svg id="artwork" xmlns="http://www.w3.org/2000/svg" viewBox="0 0 100 100">
  <defs>
    <style>
      .cls-1 {
        fill: #9b4f0b;
      }

      .cls-1, .cls-2 {
        stroke-width: 0px;
      }

      .cls-2 {
        fill: #b75d21;
      }
    </style>
  </defs>
  <path class="cls-1" d="M30.1,90.42c-2.59-3.83-4.1-8.45-4.1-13.42,0-13.25,10.75-24,24-24s24,10.75,24,24c0,4.79-1.4,9.26-3.82,13l-40.08.41Z"/>
  <rect class="cls-2" x="23" y="10" width="54" height="61" rx="5" ry="5"/>
  <polygon class="cls-2" points="78 95 22 95 24 85 76 85 78 95"/>
  <path class="cls-1" d="M46,32c0,3.87-3.13,7-7,7s-7-3.13-7-7h14Z"/>
  <path class="cls-1" d="M68,32c0,3.87-3.13,7-7,7s-7-3.13-7-7h14Z"/>
  <path class="cls-1" d="M37,56c0-7.18,5.82-13,13-13s13,5.82,13,13h-26Z"/>
</svg>