<?xml version="1.0" encoding="UTF-8"?>
<svg id="artwork" xmlns="http://www.w3.org/2000/svg" xmlns:xlink="http://www.w3.org/1999/xlink" viewBox="0 0 100 100">
  <defs>
    <style>
      .cls-1 {
        clip-path: url(#clippath);
      }

      .cls-2 {
        fill: none;
      }

      .cls-2, .cls-3, .cls-4, .cls-5, .cls-6 {
        stroke-width: 0px;
      }

      .cls-3 {
        fill: #ffc8a3;
      }

      .cls-4 {
        fill: #b75d21;
      }

      .cls-5 {
        fill: #f94239;
      }

      .cls-6 {
        fill: #ffcd4e;
      }
    </style>
    <clipPath id="clippath">
      <path class="cls-2" d="M88.94,52.62L31.78,15.74l-15.44,23.93h.02c-.09.14-.19.26-.27.39-4.81,7.46,4.08,21.76,19.87,31.95,15.79,10.18,32.48,12.39,37.3,4.93.08-.13.15-.27.23-.4h.02s15.44-23.91,15.44-23.91Z"/>
    </clipPath>
  </defs>
  <circle class="cls-6" cx="29.18" cy="19.77" r="1.7"/>
  <circle class="cls-6" cx="86.34" cy="56.65" r="1.7"/>
  <circle class="cls-6" cx="12.12" cy="46.21" r="1.7"/>
  <circle class="cls-6" cx="69.29" cy="83.08" r="1.7"/>
  <g>
    <path class="cls-5" d="M81.94,63.47L24.78,26.6l-13.55,21h.02c-.08.12-.17.23-.24.34-4.22,6.55,5.15,20.11,20.94,30.29,15.79,10.18,32.01,13.13,36.23,6.58.07-.11.13-.23.2-.35h.02s13.55-20.98,13.55-20.98Z"/>
    <path class="cls-4" d="M88.94,52.62L31.78,15.74l-15.44,23.93h.02c-.09.14-.19.26-.27.39-4.81,7.46,4.08,21.76,19.87,31.95,15.79,10.18,32.48,12.39,37.3,4.93.08-.13.15-.27.23-.4h.02s15.44-23.91,15.44-23.91Z"/>
    <g class="cls-1">
      <path class="cls-5" d="M98.4,37.95L41.24,1.08l-13.55,21h.02c-.08.12-.17.23-.24.34-4.22,6.55,5.15,20.11,20.94,30.29,15.79,10.18,32.01,13.13,36.23,6.58.07-.11.13-.23.2-.35h.02s13.55-20.98,13.55-20.98Z"/>
    </g>
    <g>
      <path class="cls-3" d="M78.04,55.92c-7.33,0-16.99-3.41-25.83-9.11-7.45-4.81-13.56-10.68-17.2-16.53-3.38-5.43-4.19-10.3-2.22-13.35,1.99-3.09,6.21-3.73,9.39-3.73,7.33,0,16.99,3.41,25.83,9.11,7.45,4.81,13.56,10.68,17.2,16.53,3.38,5.43,4.19,10.3,2.22,13.35-1.99,3.09-6.21,3.73-9.39,3.73Z"/>
      <path class="cls-5" d="M42.18,11.71v3c7.05,0,16.4,3.32,25.01,8.87,7.27,4.69,13.21,10.39,16.74,16.06,3.06,4.92,3.88,9.2,2.24,11.74-1.71,2.65-5.83,3.05-8.13,3.05-7.05,0-16.4-3.32-25.02-8.87-7.27-4.69-13.21-10.39-16.74-16.06-3.06-4.92-3.88-9.2-2.24-11.74,1.71-2.65,5.83-3.05,8.13-3.05v-3M42.18,11.71c-4.91,0-8.73,1.44-10.65,4.42-4.81,7.46,4.08,21.76,19.87,31.95,9.47,6.11,19.28,9.35,26.64,9.35,4.91,0,8.73-1.44,10.65-4.42,4.81-7.46-4.08-21.76-19.87-31.95-9.47-6.11-19.28-9.35-26.64-9.35h0Z"/>
    </g>
  </g>
  <circle class="cls-6" cx="50.39" cy="49.64" r="1.7"/>
  <circle class="cls-6" cx="32.94" cy="34.34" r="1.7"/>
  <circle class="cls-6" cx="71.52" cy="59.23" r="1.7"/>
  <circle class="cls-6" cx="16.8" cy="59.35" r="1.7"/>
  <circle class="cls-6" cx="55.39" cy="84.24" r="1.7"/>
  <circle class="cls-6" cx="33.79" cy="75.36" r="1.7"/>
</svg>