<?xml version="1.0" encoding="UTF-8"?>
<svg id="artwork" xmlns="http://www.w3.org/2000/svg" xmlns:xlink="http://www.w3.org/1999/xlink" viewBox="0 0 100 100">
  <defs>
    <style>
      .cls-1 {
        fill: #ebebeb;
      }

      .cls-1, .cls-2, .cls-3, .cls-4 {
        stroke-width: 0px;
      }

      .cls-5 {
        clip-path: url(#clippath);
      }

      .cls-2 {
        fill: none;
      }

      .cls-3 {
        fill: #f94239;
      }

      .cls-4 {
        fill: #ffcd4e;
      }
    </style>
    <clipPath id="clippath">
      <path class="cls-2" d="M51.36,89.76c-3.68-.98-5.86-4.76-4.87-8.44l10.02-37.4c.93-3.49-1.14-7.09-4.63-8.02-3.49-.93-7.09,1.14-8.02,4.63l-.82,3.05c-.98,3.68-4.76,5.86-8.44,4.87-3.68-.98-5.86-4.76-4.87-8.44l.82-3.05c2.9-10.83,14.07-17.28,24.9-14.37,10.83,2.9,17.28,14.07,14.37,24.9l-10.02,37.4c-.98,3.68-4.76,5.86-8.44,4.87Z"/>
    </clipPath>
  </defs>
  <rect class="cls-4" x="48.42" y="20.61" width="13.78" height="4.92" transform="translate(7.86 -13.53) rotate(15)"/>
  <path class="cls-4" d="M56.97,13h0c.34,0,.68.05,1.01.13,2.07.56,3.31,2.69,2.75,4.76-.45,1.7-2,2.88-3.75,2.88-.34,0-.68-.05-1.01-.13-2.07-.56-3.31-2.69-2.75-4.76.45-1.7,2-2.88,3.75-2.88M56.96,10c-3.04,0-5.83,2.03-6.65,5.11-.98,3.68,1.2,7.45,4.87,8.44.6.16,1.2.24,1.79.24,3.04,0,5.83-2.03,6.65-5.11.98-3.68-1.2-7.45-4.87-8.44-.6-.16-1.2-.24-1.79-.24h0Z"/>
  <g class="cls-5">
    <rect class="cls-1" x=".42" y="14.24" width="95" height="78.37" transform="translate(87.12 -6.68) rotate(75)"/>
    <rect class="cls-3" x="48.87" y="55.22" width="9.84" height="45.93" transform="translate(115.39 6) rotate(75)"/>
    <rect class="cls-3" x="54.22" y="35.26" width="9.84" height="45.93" transform="translate(100.08 -13.97) rotate(75)"/>
    <rect class="cls-3" x="43.9" y="3.27" width="9.84" height="78.37" transform="translate(77.2 -15.68) rotate(75)"/>
    <rect class="cls-3" x="48.99" y="-15.74" width="9.84" height="78.37" transform="translate(62.61 -34.7) rotate(75)"/>
  </g>
</svg>