<?xml version="1.0" encoding="UTF-8"?>
<svg id="artwork" xmlns="http://www.w3.org/2000/svg" viewBox="0 0 100 100">
  <defs>
    <style>
      .cls-1 {
        fill: #197547;
      }

      .cls-1, .cls-2, .cls-3 {
        stroke-width: 0px;
      }

      .cls-2 {
        fill: #f94239;
      }

      .cls-3 {
        fill: #ffcd4e;
      }
    </style>
  </defs>
  <rect class="cls-3" x="42" y="17" width="16" height="7"/>
  <path class="cls-3" d="M50,10c2.48,0,4.5,2.02,4.5,4.5s-2.02,4.5-4.5,4.5-4.5-2.02-4.5-4.5,2.02-4.5,4.5-4.5M50,7c-4.14,0-7.5,3.36-7.5,7.5s3.36,7.5,7.5,7.5,7.5-3.36,7.5-7.5-3.36-7.5-7.5-7.5h0Z"/>
  <path class="cls-1" d="M50,36.5c9.37,0,17,7.63,17,17s-7.63,17-17,17-17-7.63-17-17,7.63-17,17-17M50,20.5c-18.23,0-33,14.77-33,33s14.77,33,33,33,33-14.77,33-33-14.77-33-33-33h0Z"/>
  <g>
    <polygon class="cls-2" points="50 80.76 31.36 70 31.36 91.53 50 80.76"/>
    <polygon class="cls-2" points="50 80.76 68.64 91.53 68.64 70 50 80.76"/>
  </g>
  <rect class="cls-2" x="46" y="72" width="8" height="14" rx="4" ry="4"/>
  <circle class="cls-3" cx="46" cy="86" r="4"/>
  <circle class="cls-3" cx="54" cy="86" r="4"/>
  <circle class="cls-3" cx="50" cy="90" r="4"/>
</svg>