<?xml version="1.0" encoding="UTF-8"?>
<svg id="artwork" xmlns="http://www.w3.org/2000/svg" viewBox="0 0 100 100">
  <defs>
    <style>
      .cls-1 {
        fill: #333;
      }

      .cls-1, .cls-2, .cls-3, .cls-4 {
        stroke-width: 0px;
      }

      .cls-2 {
        fill: #474747;
      }

      .cls-3 {
        fill: #ebebeb;
      }

      .cls-4 {
        fill: #dcdcdc;
      }
    </style>
  </defs>
  <rect class="cls-3" x="34" y="20" width="32" height="60"/>
  <rect class="cls-4" x="46" y="20" width="4" height="60"/>
  <rect class="cls-4" x="38" y="20" width="4" height="60"/>
  <rect class="cls-4" x="54" y="20" width="4" height="60"/>
  <polygon class="cls-3" points="42 20 46 20 44.01 18.01 42 20"/>
  <polygon class="cls-3" points="34 20 38 20 36.01 18.01 34 20"/>
  <polygon class="cls-3" points="50 20 54 20 52.01 18.01 50 20"/>
  <polygon class="cls-3" points="58 20 62 20 60.01 18.01 58 20"/>
  <polygon class="cls-4" points="46 20 50 20 48.01 18.01 46 20"/>
  <polygon class="cls-4" points="38 20 42 20 40.01 18.01 38 20"/>
  <polygon class="cls-4" points="54 20 58 20 56.01 18.01 54 20"/>
  <polygon class="cls-4" points="62 20 66 20 64.01 18.01 62 20"/>
  <polygon class="cls-3" points="54 80 50 80 51.99 81.99 54 80"/>
  <polygon class="cls-3" points="62 80 58 80 59.99 81.99 62 80"/>
  <polygon class="cls-3" points="46 80 42 80 43.99 81.99 46 80"/>
  <polygon class="cls-3" points="38 80 34 80 35.99 81.99 38 80"/>
  <polygon class="cls-4" points="50 80 46 80 47.99 81.99 50 80"/>
  <polygon class="cls-4" points="58 80 54 80 55.99 81.99 58 80"/>
  <rect class="cls-4" x="62" y="20" width="4" height="60"/>
  <line class="cls-4" x1="64.01" y1="18.01" x2="62" y2="20"/>
  <polygon class="cls-4" points="66 80 62 80 63.99 81.99 66 80"/>
  <polygon class="cls-4" points="42 80 38 80 39.99 81.99 42 80"/>
  <g>
    <rect class="cls-2" x="10" y="20" width="24" height="60"/>
    <rect class="cls-3" x="10" y="25" width="17" height="50"/>
    <rect class="cls-4" x="10" y="66" width="17" height="9"/>
    <rect class="cls-4" x="10" y="24" width="17" height="9"/>
    <rect class="cls-4" x="10" y="44" width="17" height="12"/>
    <rect class="cls-1" x="18" y="32" width="9" height="4"/>
    <rect class="cls-1" x="18" y="42.67" width="9" height="4"/>
    <rect class="cls-1" x="18" y="53.33" width="9" height="4"/>
    <rect class="cls-1" x="18" y="64" width="9" height="4"/>
  </g>
  <g>
    <rect class="cls-2" x="66" y="20" width="24" height="60"/>
    <rect class="cls-1" x="73" y="25" width="17" height="50"/>
    <circle class="cls-2" cx="84" cy="31" r="2"/>
    <circle class="cls-2" cx="84" cy="43.33" r="2"/>
    <circle class="cls-2" cx="84" cy="68" r="2"/>
    <circle class="cls-2" cx="84" cy="55.67" r="2"/>
    <circle class="cls-2" cx="78" cy="37" r="2"/>
    <circle class="cls-2" cx="78" cy="49.33" r="2"/>
    <circle class="cls-2" cx="78" cy="61.67" r="2"/>
  </g>
</svg>