<?xml version="1.0" encoding="UTF-8"?>
<svg id="artwork" xmlns="http://www.w3.org/2000/svg" xmlns:xlink="http://www.w3.org/1999/xlink" viewBox="0 0 100 100">
  <defs>
    <style>
      .cls-1 {
        fill: #f5f5f5;
      }

      .cls-1, .cls-2, .cls-3, .cls-4, .cls-5 {
        stroke-width: 0px;
      }

      .cls-2 {
        fill: #ebebeb;
      }

      .cls-6 {
        clip-path: url(#clippath);
      }

      .cls-3 {
        fill: none;
      }

      .cls-4 {
        fill: #f94239;
      }

      .cls-7 {
        clip-path: url(#clippath-1);
      }

      .cls-5 {
        fill: #e22727;
      }
    </style>
    <clipPath id="clippath">
      <path class="cls-3" d="M69.78,38.61c-1.94-3.12-2.55-6.88-1.73-10.46l1.49-6.46c.63-1.67.81-3.59.14-5.68-.93-2.94-3.38-5.25-6.38-5.91-5.26-1.16-10.16,2.57-10.62,7.76-.07.81-.02,1.6.12,2.37l.34,6.63c.19,3.67-1.06,7.26-3.52,10-4.13,4.6-7.16,11.97-7.9,20.48-.74,8.45.94,16.19,4.17,21.44l20.28,1.77c4.09-4.61,7.09-11.94,7.83-20.4.74-8.5-.96-16.29-4.23-21.54Z"/>
    </clipPath>
    <clipPath id="clippath-1">
      <path class="cls-3" d="M89.09,54.92c-1.07-3.51-.68-7.3,1.04-10.55l3.11-5.86c1.04-1.46,1.71-3.26,1.61-5.45-.14-3.08-1.9-5.94-4.64-7.36-4.78-2.48-10.48-.15-12.26,4.74-.28.76-.43,1.54-.49,2.32l-1.38,6.49c-.77,3.59-2.91,6.74-5.98,8.75-5.18,3.38-10.01,9.71-12.93,17.73s-3.28,15.89-1.52,21.79l19.13,6.96c5.14-3.4,9.94-9.7,12.84-17.67s3.29-15.98,1.49-21.9Z"/>
    </clipPath>
  </defs>
  <g class="cls-6">
    <rect class="cls-2" x="37.35" y=".94" width="47" height="82" transform="translate(3.89 -5.14) rotate(5)"/>
    <rect class="cls-4" x="57.77" y="19.89" width="6" height="23" transform="translate(24.2 89.19) rotate(-85)"/>
  </g>
  <g class="cls-7">
    <rect class="cls-1" x="56.1" y="14.82" width="47" height="82" transform="translate(23.89 -23.86) rotate(20)"/>
    <rect class="cls-4" x="79.25" y="34.11" width="6" height="23" transform="translate(11.26 107.3) rotate(-70)"/>
  </g>
  <g>
    <circle class="cls-4" cx="35" cy="65" r="25"/>
    <circle class="cls-5" cx="28.09" cy="53.83" r="4.26"/>
    <circle class="cls-5" cx="19.57" cy="60.21" r="4.26"/>
    <circle class="cls-5" cx="29.15" cy="64.47" r="4.26"/>
  </g>
</svg>