<?xml version="1.0" encoding="UTF-8"?>
<svg id="artwork" xmlns="http://www.w3.org/2000/svg" viewBox="0 0 100 100">
  <defs>
    <style>
      .cls-1 {
        fill: #333;
      }

      .cls-1, .cls-2, .cls-3, .cls-4 {
        stroke-width: 0px;
      }

      .cls-2 {
        fill: #ba5435;
      }

      .cls-3 {
        fill: #ffcd4e;
      }

      .cls-4 {
        fill: #fff;
      }
    </style>
  </defs>
  <rect class="cls-3" x="10" y="28" width="44" height="52"/>
  <polygon class="cls-2" points="82 61 90 61 90 28 54 28 54 80 82 80 82 61"/>
  <rect class="cls-1" x="10" y="22" width="44" height="6"/>
  <rect class="cls-1" x="23" y="14" width="18" height="8"/>
  <rect class="cls-1" x="10" y="80" width="44" height="6" transform="translate(64 166) rotate(180)"/>
  <rect class="cls-4" x="72" y="31" width="6" height="6"/>
  <rect class="cls-4" x="63" y="31" width="6" height="6"/>
  <rect class="cls-4" x="54" y="31" width="6" height="6"/>
  <rect class="cls-4" x="72" y="71" width="6" height="6"/>
  <rect class="cls-4" x="63" y="71" width="6" height="6"/>
  <rect class="cls-4" x="54" y="71" width="6" height="6"/>
  <rect class="cls-4" x="81" y="31" width="6" height="6"/>
</svg>