<?xml version="1.0" encoding="UTF-8"?>
<svg id="artwork" xmlns="http://www.w3.org/2000/svg" viewBox="0 0 100 100">
  <defs>
    <style>
      .cls-1 {
        fill: #ffc8a3;
      }

      .cls-1, .cls-2, .cls-3 {
        stroke-width: 0px;
      }

      .cls-2 {
        fill: #f94239;
      }

      .cls-3 {
        fill: #ba5435;
      }
    </style>
  </defs>
  <g>
    <rect class="cls-3" x="63.89" y="9.53" width="6.29" height="20.96" transform="translate(18.99 -30.83) rotate(30)"/>
    <rect class="cls-3" x="67.29" y="7.86" width="10.48" height="5.24" transform="translate(14.96 -34.86) rotate(30)"/>
    <path class="cls-1" d="M40.53,93.16c-1.13,1.96-3.63,2.63-5.59,1.5l-8.25-4.76-8.25-4.76c-1.96-1.13-2.63-3.63-1.5-5.59l30.78-53.31c1.01-1.75,3.15-2.5,5.03-1.77l8.99,3.49c.39.15.75.36,1.08.62l7.52,6.03c1.58,1.26,1.99,3.49.98,5.24l-30.78,53.31Z"/>
  </g>
  <circle class="cls-2" cx="71" cy="76" r="14"/>
</svg>