<?xml version="1.0" encoding="UTF-8"?>
<svg id="artwork" xmlns="http://www.w3.org/2000/svg" viewBox="0 0 100 100">
  <defs>
    <style>
      .cls-1 {
        fill: #a9d6ff;
      }

      .cls-1, .cls-2, .cls-3 {
        stroke-width: 0px;
      }

      .cls-2 {
        fill: #6bbefc;
      }

      .cls-3 {
        fill: #ff9f8f;
      }
    </style>
  </defs>
  <circle class="cls-1" cx="50" cy="50" r="40"/>
  <circle class="cls-3" cx="50" cy="37" r="9"/>
  <path class="cls-3" d="M65.5,64.53c0,8.56-6.94,9.47-15.5,9.47s-15.5-.91-15.5-9.47,6.94-21.53,15.5-21.53,15.5,12.97,15.5,21.53Z"/>
  <path class="cls-2" d="M90,50c0,22.09-17.91,40-40,40S10,72.09,10,50"/>
  <path class="cls-3" d="M46.14,22.96c1.22,4.53,1.9,11.4.56,11.76s-4.18-5.93-5.39-10.46-.34-5.6.99-5.96,2.62.13,3.84,4.67Z"/>
  <path class="cls-3" d="M54.02,22.96c-1.22,4.53-1.9,11.4-.56,11.76s4.18-5.93,5.39-10.46.34-5.6-.99-5.96-2.62.13-3.84,4.67Z"/>
</svg>