<?xml version="1.0" encoding="UTF-8"?>
<svg id="artwork" xmlns="http://www.w3.org/2000/svg" viewBox="0 0 100 100">
  <defs>
    <style>
      .cls-1 {
        fill: #f94239;
      }

      .cls-1, .cls-2 {
        stroke-width: 0px;
      }

      .cls-2 {
        fill: #e22727;
      }
    </style>
  </defs>
  <path class="cls-1" d="M90,31.05c0,22.95-28,58.95-40,58.95S10,55,10,31.05c0-16.48,24.39-20.91,40-20.91s40,4.43,40,20.91Z"/>
  <g>
    <circle class="cls-2" cx="45.74" cy="54.47" r="8.53"/>
    <rect class="cls-2" x="49.53" y="27" width="4.74" height="28.42"/>
    <path class="cls-2" d="M53.97,26.82c5.98.99,11.33,6.17,10.23,12.53-.5,3.58-1.72,8.42-5.7,9.44,1.9-.93,2.67-3.04,2.94-4.99.22-1.87.15-3.98-.39-5.79-1.02-3.33-4.39-4.55-7.45-4.2,0,0,.37-6.99.37-6.99h0Z"/>
  </g>
</svg>