<?xml version="1.0" encoding="UTF-8"?>
<svg id="artwork" xmlns="http://www.w3.org/2000/svg" xmlns:xlink="http://www.w3.org/1999/xlink" viewBox="0 0 100 100">
  <defs>
    <style>
      .cls-1 {
        fill: #c1c1c1;
      }

      .cls-1, .cls-2, .cls-3, .cls-4 {
        stroke-width: 0px;
      }

      .cls-2 {
        fill: #474747;
      }

      .cls-5 {
        clip-path: url(#clippath);
      }

      .cls-3 {
        fill: none;
      }

      .cls-4 {
        fill: #dcdcdc;
      }
    </style>
    <clipPath id="clippath">
      <path class="cls-3" d="M89.38,25.46l-12.34-12.34c-7.5-7.5-19.65-7.5-27.14,0h0c-3.07,3.07-4.88,6.93-5.43,10.93-.75,5.44-3.5,10.29-7.7,13.83-.92.78-1.79,1.65-2.59,2.63-6.13,7.45-5.87,18.51.57,25.69,7.64,8.52,20.75,8.79,28.73.81.52-.52,1.01-1.07,1.46-1.63,3.34-4.17,8.32-6.59,13.61-7.34,3.96-.56,7.79-2.37,10.84-5.42h0c7.5-7.5,7.5-19.65,0-27.14Z"/>
    </clipPath>
  </defs>
  <circle class="cls-4" cx="24" cy="24" r="14"/>
  <g>
    <g class="cls-5">
      <g>
        <g>
          <rect class="cls-1" x="68.54" y="-13.74" width="4.65" height="90.74" transform="translate(143.35 3.88) rotate(135)"/>
          <rect class="cls-1" x="56.62" y="-1.81" width="4.65" height="90.74" transform="translate(131.42 32.68) rotate(135)"/>
          <rect class="cls-1" x="44.69" y="10.12" width="4.65" height="90.74" transform="translate(119.49 61.47) rotate(135)"/>
        </g>
        <g>
          <rect class="cls-1" x="66.9" y="8.47" width="4.65" height="90.74" transform="translate(80.1 140.86) rotate(-135)"/>
          <rect class="cls-1" x="56.62" y="-1.81" width="4.65" height="90.74" transform="translate(69.82 116.04) rotate(-135)"/>
          <rect class="cls-1" x="46.33" y="-12.09" width="4.65" height="90.74" transform="translate(59.54 91.21) rotate(-135)"/>
        </g>
      </g>
    </g>
    <path class="cls-4" d="M63.47,13.5c3.52,0,6.84,1.37,9.33,3.86l12.34,12.34c2.49,2.49,3.86,5.81,3.86,9.33,0,3.52-1.37,6.84-3.86,9.33-2.03,2.03-4.6,3.32-7.44,3.72-7.14,1.02-13.34,4.4-17.45,9.53-.32.39-.66.78-1.02,1.14-2.6,2.6-6.06,4.03-9.74,4.03-3.97,0-7.62-1.64-10.28-4.6-4.49-5.01-4.66-12.69-.4-17.88.55-.67,1.17-1.3,1.82-1.85,5.37-4.52,8.84-10.77,9.78-17.6.39-2.86,1.68-5.45,3.73-7.5,2.49-2.49,5.81-3.86,9.33-3.86M63.47,7.5c-4.91,0-9.82,1.87-13.57,5.62h0c-3.07,3.07-4.88,6.93-5.43,10.93-.75,5.44-3.5,10.29-7.7,13.83-.92.78-1.79,1.65-2.59,2.63-6.13,7.45-5.87,18.51.57,25.69,3.94,4.4,9.35,6.6,14.75,6.6,5.06,0,10.12-1.93,13.98-5.79.52-.52,1.01-1.07,1.46-1.63,3.34-4.17,8.32-6.59,13.61-7.34,3.96-.56,7.79-2.37,10.84-5.42h0c7.5-7.5,7.5-19.65,0-27.14l-12.34-12.34c-3.75-3.75-8.66-5.62-13.57-5.62h0Z"/>
    <rect class="cls-2" x="20.15" y="61.41" width="9.31" height="32.57" transform="translate(62.2 5.22) rotate(45)"/>
  </g>
</svg>