<?xml version="1.0" encoding="UTF-8"?>
<svg id="artwork" xmlns="http://www.w3.org/2000/svg" viewBox="0 0 100 100">
  <defs>
    <style>
      .cls-1 {
        fill: #474747;
      }

      .cls-1, .cls-2, .cls-3, .cls-4 {
        stroke-width: 0px;
      }

      .cls-2 {
        fill: #dcdcdc;
      }

      .cls-5 {
        fill: none;
        stroke: #dcdcdc;
        stroke-miterlimit: 10;
        stroke-width: 3px;
      }

      .cls-3 {
        fill: #fff;
      }

      .cls-4 {
        fill: #004b8e;
      }
    </style>
  </defs>
  <path class="cls-2" d="M37,16.75c1.65,0,3,1.35,3,3s-1.35,3-3,3-3-1.35-3-3,1.35-3,3-3M37,13.75c-3.31,0-6,2.69-6,6s2.69,6,6,6,6-2.69,6-6-2.69-6-6-6h0Z"/>
  <path class="cls-2" d="M37,61.75c1.65,0,3,1.35,3,3s-1.35,3-3,3-3-1.35-3-3,1.35-3,3-3M37,58.75c-3.31,0-6,2.69-6,6s2.69,6,6,6,6-2.69,6-6-2.69-6-6-6h0Z"/>
  <path class="cls-2" d="M89,39.75c1.65,0,3,1.35,3,3s-1.35,3-3,3-3-1.35-3-3,1.35-3,3-3M89,36.75c-3.31,0-6,2.69-6,6s2.69,6,6,6,6-2.69,6-6-2.69-6-6-6h0Z"/>
  <path class="cls-4" d="M86,42.75s-23.91,22.5-46,22.5S5,42.75,5,42.75c0,0,12.91-22.5,35-22.5s46,22.5,46,22.5Z"/>
  <circle class="cls-3" cx="23" cy="39.75" r="5"/>
  <circle class="cls-1" cx="23" cy="39.75" r="2.75"/>
  <g>
    <path class="cls-5" d="M37,68.25v11.65c0,3.51-2.69,6.35-6,6.35h0c-3.31,0-6-2.84-6-6.35v-3.53"/>
    <path class="cls-5" d="M37,68.25v11.65c0,3.51,2.69,6.35,6,6.35h0c3.31,0,6-2.84,6-6.35v-3.53"/>
  </g>
  <path class="cls-5" d="M89,46.25v11.65c0,3.51-2.69,6.35-6,6.35h0c-3.31,0-6-2.84-6-6.35v-3.53"/>
</svg>