<?xml version="1.0" encoding="UTF-8"?>
<svg id="artwork" xmlns="http://www.w3.org/2000/svg" xmlns:xlink="http://www.w3.org/1999/xlink" viewBox="0 0 100 100">
  <defs>
    <style>
      .cls-1 {
        fill: #f5f5f5;
      }

      .cls-1, .cls-2, .cls-3, .cls-4 {
        stroke-width: 0px;
      }

      .cls-2 {
        fill: #e57257;
      }

      .cls-5 {
        clip-path: url(#clippath);
      }

      .cls-3 {
        fill: none;
      }

      .cls-4 {
        fill: #ba5435;
      }
    </style>
    <clipPath id="clippath">
      <path class="cls-3" d="M80.91,67.84c-11.75,20.35-39.86,26.11-52.18,19S7.34,52.5,19.09,32.16C30.84,11.81,58.95,6.04,71.27,13.16c12.32,7.12,21.38,34.34,9.64,54.69Z"/>
    </clipPath>
  </defs>
  <g class="cls-5">
    <rect class="cls-4" x="1.72" y="1.87" width="88.28" height="91.47" transform="translate(29.95 -16.55) rotate(30)"/>
    <rect class="cls-2" x="47.36" y="14.1" width="39.35" height="91.47" transform="translate(38.9 -25.5) rotate(30)"/>
  </g>
  <rect class="cls-1" x="43.62" y="46.81" width="12.76" height="6.38" rx="3" ry="3" transform="translate(31.7 -18.3) rotate(30)"/>
  <rect class="cls-1" x="37.77" y="56.94" width="12.76" height="6.38" rx="3" ry="3" transform="translate(35.98 -14.02) rotate(30)"/>
  <rect class="cls-1" x="49.47" y="36.68" width="12.76" height="6.38" rx="3" ry="3" transform="translate(27.42 -22.58) rotate(30)"/>
</svg>