<?xml version="1.0" encoding="UTF-8"?>
<svg id="artwork" xmlns="http://www.w3.org/2000/svg" xmlns:xlink="http://www.w3.org/1999/xlink" viewBox="0 0 100 100">
  <defs>
    <style>
      .cls-1 {
        fill: #474747;
      }

      .cls-1, .cls-2, .cls-3, .cls-4 {
        stroke-width: 0px;
      }

      .cls-2 {
        fill: #ebebeb;
      }

      .cls-5 {
        clip-path: url(#clippath);
      }

      .cls-3 {
        fill: none;
      }

      .cls-4 {
        fill: #ffcd4e;
      }
    </style>
    <clipPath id="clippath">
      <path class="cls-3" d="M62.03,36.91c-1.42,7.1-5.14,25.66-6.51,32.53l-.07.34c-.01.08,0,.04,0,.07.51,1.35-.99,2.53-2.3,2.45-1.4.06-2.93-1.35-3.24-2.83-.02-.35-.49-5.91-.53-6.37-.58-7.07-2.13-25.75-2.73-33.06-.19-2.09-.51-6.7-.77-8.71-1.28-9.35-10.79-16.06-19.84-13.84-4.77,1.59-9.35,3.18-14.44,3.59-.51.05-1.04.09-1.59.13v3.37c4.37.42,8.78.29,13.16-.4,1.22-.18,2.68-.54,3.87-.64,4.21-.35,8.58,2.92,9.2,6.94.27,1.26.04,2.78-.05,4.05l-.45,5.51c-.6,7.23-2.15,26.08-2.73,33.06-.04.77-.53,6.02-.53,6.66-.36,8.97,5.04,17.56,13.44,21.2,12.91,5.79,28.14-1.58,32.33-14.98,2.52-6.63,9.15-24.15,11.76-31.02l-27.97-8.04Z"/>
    </clipPath>
  </defs>
  <g class="cls-5">
    <rect class="cls-4" x="9" y="3" width="88" height="104"/>
    <rect class="cls-1" x="3" width="24" height="31"/>
  </g>
  <circle class="cls-2" cx="46.38" cy="28.45" r="4.16"/>
  <circle class="cls-2" cx="47.42" cy="40.93" r="4.16"/>
  <circle class="cls-2" cx="48.46" cy="53.4" r="4.16"/>
</svg>