<?xml version="1.0" encoding="UTF-8"?>
<svg id="artwork" xmlns="http://www.w3.org/2000/svg" xmlns:xlink="http://www.w3.org/1999/xlink" viewBox="0 0 100 100">
  <defs>
    <style>
      .cls-1 {
        clip-path: url(#clippath);
      }

      .cls-2, .cls-3, .cls-4, .cls-5, .cls-6 {
        stroke-width: 0px;
      }

      .cls-2, .cls-7, .cls-8 {
        fill: none;
      }

      .cls-3 {
        fill: #6bbefc;
      }

      .cls-4 {
        fill: #3396ff;
      }

      .cls-5 {
        fill: #ffcd4e;
      }

      .cls-7 {
        stroke: #3396ff;
      }

      .cls-7, .cls-8 {
        stroke-miterlimit: 10;
        stroke-width: 2px;
      }

      .cls-6 {
        fill: #ff7847;
      }

      .cls-8 {
        stroke: #ebebeb;
      }
    </style>
    <clipPath id="clippath">
      <path class="cls-2" d="M45.98,94.43c9.99-4.66,19.5-15.14,25.86-32.62,8.97-24.65,7.28-51.09-5.05-55.58-12.33-4.49-30.62,14.68-39.59,39.33-6.36,17.49-5.81,31.63-1.16,41.61l19.93,7.25Z"/>
    </clipPath>
  </defs>
  <g class="cls-1">
    <rect class="cls-6" x="16.78" y="-.95" width="66" height="102" transform="translate(20.12 -14.01) rotate(20)"/>
    <rect class="cls-3" x="47.13" y="9.41" width="13" height="66" transform="translate(-4.56 78.3) rotate(-70)"/>
    <rect class="cls-4" x="48.05" y="17.86" width="5" height="66" transform="translate(-14.53 80.97) rotate(-70)"/>
    <rect class="cls-5" x="46.34" y="22.56" width="5" height="66" transform="translate(-20.07 82.45) rotate(-70)"/>
  </g>
  <line class="cls-8" x1="65.14" y1="10.79" x2="41.15" y2="76.7"/>
  <line class="cls-7" x1="38.58" y1="83.75" x2="41.15" y2="76.7"/>
</svg>