<?xml version="1.0" encoding="UTF-8"?>
<svg id="artwork" xmlns="http://www.w3.org/2000/svg" viewBox="0 0 100 100">
  <defs>
    <style>
      .cls-1 {
        fill: #474747;
      }

      .cls-1, .cls-2, .cls-3 {
        stroke-width: 0px;
      }

      .cls-2 {
        fill: #e57257;
      }

      .cls-4 {
        fill: none;
        stroke: #f5f5f5;
        stroke-miterlimit: 10;
      }

      .cls-3 {
        fill: #ba5435;
      }
    </style>
  </defs>
  <path class="cls-3" d="M64.1,64.08c1.42-.74,2.72-1.76,3.83-3.09,4.2-5.02,3.61-12.51-1.02-17.14l-10.77-10.77c-4.63-4.63-12.12-5.22-17.14-1.02-1.32,1.11-2.35,2.41-3.09,3.83-1.49,2.87-4.29,4.85-7.5,5.24-5.94.72-11.68,3.38-16.21,7.99-8.5,8.65-9.13,22.3-2.14,32.21,10.39,14.71,28.9,18.36,40.98,6.28,4.45-4.45,7.04-10.04,7.78-15.83.42-3.28,2.34-6.18,5.27-7.7Z"/>
  <rect class="cls-2" x="58.32" y="10.35" width="13.67" height="48.99" transform="translate(43.72 -35.86) rotate(45)"/>
  <rect class="cls-2" x="19.25" y="71.64" width="13.67" height="4.56" transform="translate(59.91 3.21) rotate(45)"/>
  <circle class="cls-1" cx="43.81" cy="56.19" r="9.11"/>
  <rect class="cls-3" x="76.74" y="6.15" width="3.42" height="3.42" transform="translate(28.53 -53.17) rotate(45)"/>
  <rect class="cls-3" x="72.71" y="10.18" width="3.42" height="3.42" transform="translate(30.2 -49.14) rotate(45)"/>
  <rect class="cls-3" x="68.68" y="14.21" width="3.42" height="3.42" transform="translate(31.87 -45.11) rotate(45)"/>
  <rect class="cls-3" x="90.43" y="19.85" width="3.42" height="3.42" transform="translate(42.23 -58.84) rotate(45)"/>
  <rect class="cls-3" x="86.4" y="23.87" width="3.42" height="3.42" transform="translate(43.9 -54.81) rotate(45)"/>
  <rect class="cls-3" x="82.37" y="27.9" width="3.42" height="3.42" transform="translate(45.57 -50.78) rotate(45)"/>
  <line class="cls-4" x1="24.47" y1="75.53" x2="85.49" y2="14.51"/>
  <line class="cls-4" x1="22.06" y1="73.11" x2="83.08" y2="12.09"/>
  <line class="cls-4" x1="26.89" y1="77.94" x2="87.91" y2="16.92"/>
  <rect class="cls-3" x="74.43" y="11.33" width="13.67" height="14.81" transform="translate(37.05 -51.97) rotate(45)"/>
</svg>