<?xml version="1.0" encoding="UTF-8"?>
<svg id="artwork" xmlns="http://www.w3.org/2000/svg" xmlns:xlink="http://www.w3.org/1999/xlink" viewBox="0 0 100 100">
  <defs>
    <style>
      .cls-1 {
        fill: #474747;
      }

      .cls-1, .cls-2, .cls-3, .cls-4, .cls-5 {
        stroke-width: 0px;
      }

      .cls-2 {
        fill: #e57257;
      }

      .cls-6 {
        clip-path: url(#clippath);
      }

      .cls-3, .cls-7 {
        fill: none;
      }

      .cls-7 {
        stroke: #f5f5f5;
        stroke-miterlimit: 10;
      }

      .cls-4 {
        fill: #ba5435;
      }

      .cls-5 {
        fill: #fff;
      }
    </style>
    <clipPath id="clippath">
      <circle class="cls-3" cx="46.01" cy="74.52" r="20.13"/>
    </clipPath>
  </defs>
  <rect class="cls-4" x="30.55" y="38.92" width="35" height="56" rx="17.5" ry="17.5" transform="translate(18.96 -10.16) rotate(15)"/>
  <circle class="cls-4" cx="46.01" cy="74.52" r="20.13"/>
  <circle class="cls-5" cx="29.18" cy="60.05" r="6.13"/>
  <circle class="cls-5" cx="67.82" cy="70.4" r="6.13"/>
  <polygon class="cls-2" points="55.98 56.62 46.32 54.03 60.23 5.99 67.96 8.06 55.98 56.62"/>
  <rect class="cls-4" x="56.3" y="6.86" width="13" height="10" transform="translate(5.21 -15.85) rotate(15)"/>
  <g>
    <line class="cls-7" x1="62.8" y1="11.86" x2="44.68" y2="79.47"/>
    <line class="cls-7" x1="65.22" y1="12.51" x2="47.1" y2="80.12"/>
    <line class="cls-7" x1="60.39" y1="11.21" x2="42.27" y2="78.83"/>
  </g>
  <polygon class="cls-2" points="50.55 76.9 40.89 74.32 40.16 88.62 44.03 89.65 50.55 76.9"/>
  <circle class="cls-4" cx="73.94" cy="12.77" r="3"/>
  <circle class="cls-4" cx="51.66" cy="10.94" r="3"/>
  <g class="cls-6">
    <circle class="cls-1" cx="28.93" cy="86.12" r="12"/>
  </g>
</svg>