<?xml version="1.0" encoding="UTF-8"?>
<svg id="artwork" xmlns="http://www.w3.org/2000/svg" xmlns:xlink="http://www.w3.org/1999/xlink" viewBox="0 0 100 100">
  <defs>
    <style>
      .cls-1 {
        fill: #ebebeb;
      }

      .cls-1, .cls-2, .cls-3, .cls-4 {
        stroke-width: 0px;
      }

      .cls-5 {
        clip-path: url(#clippath);
      }

      .cls-2 {
        fill: none;
      }

      .cls-3 {
        fill: #dcdcdc;
      }

      .cls-4 {
        fill: #ccc;
      }
    </style>
    <clipPath id="clippath">
      <circle class="cls-2" cx="50" cy="50" r="40"/>
    </clipPath>
  </defs>
  <g class="cls-5">
    <g>
      <rect class="cls-4" x="5" y="50" width="90" height="16.67"/>
      <rect class="cls-3" x="5" y="66.67" width="90" height="16.67"/>
      <rect class="cls-4" x="5" y="83.33" width="90" height="16.67"/>
    </g>
    <g>
      <rect class="cls-1" x="35.81" y="13.89" width="90" height="16.58" transform="translate(39.36 -50.65) rotate(45)"/>
      <rect class="cls-4" x="24.09" y="25.62" width="90" height="16.58" transform="translate(44.21 -38.92) rotate(45)"/>
      <rect class="cls-1" x="12.36" y="37.35" width="90" height="16.58" transform="translate(49.07 -27.19) rotate(45)"/>
    </g>
    <g>
      <rect class="cls-3" x="-25.79" y="13.88" width="90" height="16.67" transform="translate(-10.08 20.09) rotate(-45)"/>
      <rect class="cls-1" x="-14" y="25.67" width="90" height="16.67" transform="translate(-14.96 31.88) rotate(-45)"/>
      <rect class="cls-3" x="-2.21" y="37.45" width="90" height="16.67" transform="translate(-19.84 43.66) rotate(-45)"/>
    </g>
    <g>
      <rect class="cls-4" x="-40" y="50" width="90" height="16.67"/>
      <rect class="cls-3" x="-40" y="66.67" width="90" height="16.67"/>
      <rect class="cls-4" x="-40" y="83.33" width="90" height="16.67"/>
    </g>
  </g>
</svg>