<?xml version="1.0" encoding="UTF-8"?>
<svg id="artwork" xmlns="http://www.w3.org/2000/svg" viewBox="0 0 100 100">
  <defs>
    <style>
      .cls-1 {
        fill: #ebebeb;
      }

      .cls-1, .cls-2, .cls-3 {
        stroke-width: 0px;
      }

      .cls-2 {
        fill: #f94239;
      }

      .cls-3 {
        fill: #e22727;
      }
    </style>
  </defs>
  <path class="cls-1" d="M73.28,9c2.21,0,4.28.86,5.84,2.42,1.56,1.56,2.42,3.64,2.42,5.84s-.86,4.28-2.42,5.84c-1.93,1.93-9.96,4.5-18.03,6.35,1.85-8.07,4.42-16.1,6.35-18.03,1.56-1.56,3.64-2.42,5.84-2.42M73.28,5c-3.14,0-6.28,1.2-8.67,3.59-4.79,4.79-8.67,26.01-8.67,26.01,0,0,21.22-3.88,26.01-8.67s4.79-12.55,0-17.34c-2.39-2.39-5.53-3.59-8.67-3.59h0Z"/>
  <circle class="cls-3" cx="44" cy="62.02" r="32.98"/>
  <circle class="cls-1" cx="48.25" cy="62.02" r="29.79"/>
  <circle class="cls-2" cx="56" cy="62.02" r="32.98"/>
</svg>